{"glyphs":{"0":{"ha":1035,"x_min":0,"x_max":0,"o":"m 31 486 b 517 0 31 218 248 0 b 1003 486 785 0 1003 218 b 517 972 1003 755 785 972 b 31 486 248 972 31 755 z m 552 909 l 552 64 b 517 29 552 44 536 29 b 482 64 498 29 482 44 l 482 909 b 517 944 482 928 498 944 b 552 909 536 944 552 928 z "},"1":{"ha":735,"x_min":0,"x_max":0,"o":"m 704 111 l 704 861 b 593 972 704 922 654 972 l 38 972 b 31 965 34 972 31 969 l 31 952 b 38 945 31 948 34 945 l 270 945 l 270 111 b 381 0 270 50 320 0 l 593 0 b 704 111 654 0 704 50 z "},"2":{"ha":876,"x_min":0,"x_max":0,"o":"m 42 703 b 119 576 6 597 63 576 l 284 576 b 374 680 367 576 379 623 b 472 932 357 870 434 933 b 479 678 606 930 532 749 l 58 111 b 87 0 12 50 25 0 l 839 0 b 846 7 843 0 846 3 l 846 20 b 839 27 846 24 843 27 l 430 27 l 792 514 b 488 972 865 612 935 966 b 42 703 299 975 108 900 z "},"3":{"ha":856,"x_min":0,"x_max":0,"o":"m 38 0 l 712 0 b 824 111 774 0 824 50 l 824 861 b 712 972 824 922 774 972 l 38 972 b 31 965 34 972 31 969 l 31 952 b 38 945 31 948 34 945 l 389 945 l 389 500 l 185 500 b 178 493 181 500 178 497 l 178 480 b 185 473 178 476 181 473 l 389 473 l 389 27 l 38 27 b 31 20 34 27 31 24 l 31 7 b 38 0 31 3 34 0 z "},"4":{"ha":1214,"x_min":0,"x_max":0,"o":"m 86 361 l 748 361 l 748 111 b 859 0 748 50 798 0 l 1071 0 b 1182 111 1132 0 1182 50 l 1182 861 b 1071 972 1182 922 1132 972 l 859 972 b 834 969 851 972 842 971 b 834 972 834 970 834 971 l 558 972 b 372 894 457 972 391 920 l 58 473 b 86 361 12 411 25 361 z m 748 816 l 748 388 l 430 388 z "},"5":{"ha":997,"x_min":0,"x_max":0,"o":"m 125 570 b 609 248 262 525 609 634 b 508 40 609 152 555 41 b 443 292 470 40 426 102 b 354 396 448 350 436 396 l 128 396 b 51 269 72 396 14 375 b 511 -1 121 72 317 -3 b 966 345 824 4 972 125 b 465 629 961 560 787 627 l 465 945 l 840 945 b 847 952 844 945 847 948 l 847 965 b 840 972 847 969 844 972 l 134 972 b 31 869 77 972 31 926 l 31 673 b 125 570 31 619 72 575 z "},"6":{"ha":1018,"x_min":0,"x_max":0,"o":"m 510 0 b 987 286 823 0 987 144 b 459 563 987 449 816 563 b 510 945 460 787 477 945 b 557 680 531 945 549 837 b 663 576 560 623 580 576 l 889 576 b 945 703 944 576 998 597 b 510 972 866 862 701 972 b 510 0 -129 972 -129 0 z m 539 28 b 471 181 504 25 479 89 b 463 520 467 222 465 471 b 539 28 689 520 723 48 z "},"7":{"ha":943,"x_min":0,"x_max":0,"o":"m 38 945 l 509 945 l 47 111 b 96 0 13 50 35 0 l 331 0 b 468 88 379 0 441 40 l 896 861 b 846 972 930 922 908 972 l 38 972 b 31 965 34 972 31 969 l 31 952 b 38 945 31 948 34 945 z "},"8":{"ha":1033,"x_min":0,"x_max":0,"o":"m 31 292 b 517 0 31 131 248 0 b 1003 292 785 0 1003 131 b 878 486 1003 366 956 434 b 1003 681 956 538 1003 606 b 517 972 1003 842 785 972 b 31 681 248 972 31 842 b 155 486 31 606 77 538 b 31 292 77 434 31 366 z m 516 952 b 568 681 544 952 568 833 b 564 582 568 646 567 612 b 469 582 549 533 484 531 b 465 681 466 612 465 646 b 516 952 465 833 487 952 z m 468 390 b 564 390 500 457 532 462 b 568 292 567 360 568 327 b 517 21 568 140 545 21 b 465 292 488 21 465 140 b 468 390 465 327 466 360 z "},"9":{"ha":1018,"x_min":0,"x_max":0,"o":"m 558 409 b 508 27 557 185 541 27 b 461 292 487 27 469 136 b 355 396 458 350 437 396 l 129 396 b 72 269 73 396 20 375 b 508 0 152 110 317 0 b 508 972 1147 0 1147 972 b 31 686 195 972 31 829 b 558 409 31 523 202 409 z m 479 944 b 547 791 514 948 538 883 b 555 452 550 751 553 501 b 479 944 329 452 295 925 z "},"\u0000":{"ha":0,"x_min":0,"x_max":0,"o":""},"\n":{"ha":0,"x_min":0,"x_max":0,"o":""},"\r":{"ha":0,"x_min":0,"x_max":0,"o":""}," ":{"ha":558,"x_min":0,"x_max":0,"o":""},"!":{"ha":518,"x_min":0,"x_max":0,"o":"m 259 206 b 259 14 133 206 133 14 b 259 206 385 14 385 206 z m 365 986 l 153 986 b 42 874 92 986 42 936 l 42 354 b 153 243 42 293 92 243 l 365 243 b 476 354 426 243 476 293 l 476 874 b 365 986 476 936 426 986 z "},"\"":{"ha":588,"x_min":0,"x_max":0,"o":"m 196 1093 b 42 794 64 1093 129 949 b 196 1093 394 879 309 1093 z m 447 1093 b 292 794 315 1093 380 949 b 447 1093 644 879 560 1093 z "},"”":{"ha":588,"x_min":0,"x_max":0,"o":"m 196 1093 b 42 794 64 1093 129 949 b 196 1093 394 879 309 1093 z m 447 1093 b 292 794 315 1093 380 949 b 447 1093 644 879 560 1093 z "},"#":{"ha":1135,"x_min":0,"x_max":0,"o":"m 1075 655 l 982 655 l 1055 915 b 1003 986 1066 954 1043 986 l 869 986 b 778 915 830 986 789 954 l 706 655 l 516 655 l 588 915 b 537 986 599 954 576 986 l 403 986 b 312 915 364 986 323 954 l 240 655 l 146 655 b 119 635 134 655 122 646 l 109 597 b 125 578 106 586 113 578 l 218 578 l 175 422 l 81 422 b 54 402 69 422 57 413 l 44 365 b 60 345 41 354 48 345 l 154 345 l 81 84 b 132 14 70 46 93 14 l 266 14 b 357 84 305 14 346 46 l 430 345 l 619 345 l 547 84 b 598 14 536 46 559 14 l 732 14 b 823 84 771 14 812 46 l 896 345 l 989 345 b 1016 365 1001 345 1013 354 l 1026 402 b 1011 422 1030 413 1022 422 l 917 422 l 961 578 l 1054 578 b 1081 597 1066 578 1078 586 l 1091 635 b 1075 655 1094 646 1087 655 z m 641 422 l 451 422 l 494 578 l 684 578 z "},"$":{"ha":1036,"x_min":0,"x_max":0,"o":"m 818 500 b 675 544 776 517 727 531 b 437 752 497 589 441 672 b 525 946 432 848 478 945 b 590 694 564 946 607 883 b 680 590 585 636 597 590 l 905 590 b 982 716 961 590 1018 611 b 595 982 926 885 760 964 b 596 990 596 984 596 987 l 596 1063 b 560 1098 596 1082 580 1098 l 492 1098 b 457 1063 473 1098 457 1082 l 457 990 b 458 983 457 988 457 985 b 56 711 252 964 79 854 b 219 500 38 604 119 540 b 362 456 261 483 310 469 b 600 247 540 410 596 327 b 512 54 605 152 559 55 b 447 306 474 53 430 116 b 357 409 452 363 441 409 l 132 409 b 55 283 76 409 18 388 b 458 15 119 102 284 24 b 457 10 457 13 457 11 l 457 -63 b 492 -99 457 -83 473 -99 l 560 -99 b 596 -63 580 -99 596 -83 l 596 10 b 594 21 596 14 595 17 b 981 288 789 49 963 155 b 818 500 996 395 918 459 z "},"%":{"ha":1564,"x_min":0,"x_max":0,"o":"m 1029 986 l 891 986 b 791 913 851 986 806 953 l 488 86 b 534 14 473 47 494 14 l 673 14 b 772 86 713 14 758 47 l 1075 913 b 1029 986 1090 953 1069 986 z m 620 743 b 331 986 620 877 490 986 b 42 743 171 986 42 877 b 331 500 42 609 171 500 b 620 743 490 500 620 609 z m 331 517 b 300 743 314 517 300 616 b 330 969 300 869 313 969 b 361 743 347 969 361 869 b 331 517 361 616 348 517 z m 1233 500 b 944 257 1073 500 944 391 b 1233 14 944 122 1073 14 b 1522 257 1393 14 1522 122 b 1233 500 1522 391 1393 500 z m 1233 31 b 1202 257 1216 31 1202 130 b 1232 483 1202 384 1215 483 b 1264 257 1249 483 1264 384 b 1233 31 1264 130 1250 31 z "},"&":{"ha":867,"x_min":0,"x_max":0,"o":"m 813 507 l 711 507 b 632 561 700 551 676 561 l 502 561 b 434 525 475 561 450 553 b 344 739 338 567 344 670 b 380 972 344 868 360 972 b 416 739 400 972 416 806 b 495 643 416 685 441 643 l 639 643 b 718 739 705 643 718 692 b 380 986 718 875 567 986 b 42 739 193 986 42 875 b 300 500 42 623 152 526 b 42 260 152 474 42 376 b 380 14 42 124 193 14 b 718 260 567 14 718 124 b 718 432 718 263 718 352 b 714 493 718 457 717 477 l 811 493 b 813 507 829 493 827 507 z m 416 423 l 416 260 b 380 28 416 193 400 28 b 344 260 360 28 344 132 b 418 467 344 330 339 422 b 416 423 417 454 416 439 z "},"'":{"ha":336,"x_min":0,"x_max":0,"o":"m 197 1093 b 42 794 64 1093 129 949 b 197 1093 394 879 309 1093 z "},"’":{"ha":336,"x_min":0,"x_max":0,"o":"m 197 1093 b 42 794 64 1093 129 949 b 197 1093 394 879 309 1093 z "},"(":{"ha":701,"x_min":0,"x_max":0,"o":"m 626 -35 b 625 1034 331 26 329 970 b 628 1099 673 1044 668 1099 b 627 -99 -148 1083 -159 -55 b 626 -35 669 -101 671 -44 z "},")":{"ha":701,"x_min":0,"x_max":0,"o":"m 73 1099 b 76 1034 33 1099 28 1044 b 75 -35 372 970 370 26 b 75 -99 30 -44 32 -101 b 73 1099 860 -55 850 1083 z "},"*":{"ha":325,"x_min":0,"x_max":0,"o":"m 276 821 l 216 856 l 276 891 b 281 910 283 895 285 903 l 268 932 b 249 937 264 939 256 941 l 189 902 l 189 972 b 175 986 189 980 183 986 l 149 986 b 136 972 142 986 136 980 l 136 902 l 75 937 b 57 932 69 941 60 939 l 44 910 b 49 891 40 903 42 895 l 109 856 l 49 821 b 44 803 42 818 40 809 l 57 780 b 75 775 60 774 69 771 l 136 810 l 136 740 b 149 726 136 733 142 726 l 175 726 b 189 740 183 726 189 733 l 189 810 l 249 775 b 268 780 256 771 264 774 l 281 803 b 276 821 285 809 283 818 z "},"+":{"ha":693,"x_min":0,"x_max":0,"o":"m 593 612 l 458 612 l 458 747 b 401 804 458 778 432 804 l 291 804 b 234 747 260 804 234 778 l 234 612 l 99 612 b 42 554 67 612 42 586 l 42 445 b 99 388 42 413 67 388 l 234 388 l 234 253 b 291 195 234 221 260 195 l 401 195 b 458 253 432 195 458 221 l 458 388 l 593 388 b 651 445 625 388 651 413 l 651 554 b 593 612 651 586 625 612 z "},",":{"ha":336,"x_min":0,"x_max":0,"o":"m 196 206 b 101 110 143 206 101 163 b 42 -93 94 32 74 -36 b 196 206 394 -8 309 206 z "},"-":{"ha":557,"x_min":0,"x_max":0,"o":"m 463 596 l 94 596 b 42 544 65 596 42 573 l 42 455 b 94 403 42 427 65 403 l 463 403 b 515 455 492 403 515 427 l 515 544 b 463 596 515 573 492 596 z "},".":{"ha":274,"x_min":0,"x_max":0,"o":"m 136 206 b 136 14 10 206 10 14 b 136 206 263 14 263 206 z "},"/":{"ha":772,"x_min":0,"x_max":0,"o":"m 680 1106 l 541 1106 b 442 1033 502 1106 457 1073 l 47 -34 b 92 -107 32 -74 52 -107 l 230 -107 b 331 -34 271 -107 316 -74 l 726 1033 b 680 1106 741 1073 720 1106 z "},":":{"ha":274,"x_min":0,"x_max":0,"o":"m 136 540 b 136 731 263 540 263 731 b 136 540 10 731 10 540 z m 136 460 b 136 268 10 460 10 268 b 136 460 263 268 263 460 z "},";":{"ha":336,"x_min":0,"x_max":0,"o":"m 196 460 b 42 161 64 460 129 317 b 196 460 394 246 309 460 z m 196 540 b 196 731 323 540 323 731 b 196 540 70 731 70 540 z "},"<":{"ha":722,"x_min":0,"x_max":0,"o":"m 554 500 l 653 598 b 653 737 691 636 691 698 l 521 868 b 382 868 483 907 420 907 l 284 770 b 284 229 -39 448 -39 552 l 382 131 b 521 131 420 93 483 93 l 653 263 b 653 402 691 301 691 364 z "},"=":{"ha":622,"x_min":0,"x_max":0,"o":"m 523 776 l 99 776 b 42 718 68 776 42 750 l 42 609 b 99 552 42 578 68 552 l 523 552 b 580 609 555 552 580 578 l 580 718 b 523 776 580 750 555 776 z m 523 448 l 99 448 b 42 390 68 448 42 422 l 42 281 b 99 224 42 249 68 224 l 523 224 b 580 281 555 224 580 249 l 580 390 b 523 448 580 422 555 448 z "},">":{"ha":725,"x_min":0,"x_max":0,"o":"m 440 770 l 342 868 b 203 868 304 907 242 907 l 72 737 b 72 598 33 698 33 636 l 170 500 l 72 402 b 72 263 33 364 33 301 l 203 131 b 342 131 242 93 304 93 l 440 229 b 440 770 763 552 763 448 z "},"?":{"ha":989,"x_min":0,"x_max":0,"o":"m 510 206 b 510 14 384 206 384 14 b 510 206 636 14 636 206 z m 901 777 b 498 986 828 902 690 986 b 63 716 308 986 143 876 b 120 590 10 611 64 590 l 345 590 b 452 694 428 590 449 636 b 499 959 460 850 478 959 b 544 704 522 959 537 848 b 293 385 551 576 293 562 l 293 316 b 366 243 293 276 326 243 l 654 243 b 727 316 694 243 727 276 b 830 432 727 377 773 408 b 901 777 990 502 958 677 z "},"@":{"ha":1331,"x_min":0,"x_max":0,"o":"m 662 779 b 42 340 380 779 42 696 b 448 -99 42 98 224 -99 l 643 -99 b 643 -59 667 -99 675 -60 b 289 340 447 -50 289 126 b 659 739 289 559 456 739 l 670 739 b 1040 340 874 739 1040 559 b 988 194 1040 55 988 -97 l 988 408 b 685 611 988 577 842 606 b 373 479 536 616 371 575 b 424 442 374 449 399 442 l 571 442 b 640 515 625 442 636 475 b 700 509 653 627 692 604 b 704 426 703 481 704 451 b 621 434 678 431 650 434 b 342 251 467 434 342 352 b 621 68 342 150 467 68 b 733 83 661 68 699 73 b 1153 14 751 11 946 -118 b 1288 340 1235 94 1288 211 b 662 779 1288 686 943 779 z m 621 251 b 704 395 621 325 657 386 l 704 146 b 714 106 704 131 708 118 b 621 251 663 107 621 172 z "},"A":{"ha":1067,"x_min":0,"x_max":0,"o":"m 801 861 b 656 972 783 922 717 972 l 333 972 b 324 965 329 972 325 969 l 31 7 b 36 0 30 3 32 0 l 49 0 b 58 7 53 0 57 3 l 131 245 l 555 245 l 596 111 b 741 0 614 50 680 0 l 953 0 b 1030 111 1014 0 1049 50 z m 139 272 l 343 939 l 547 272 z "},"B":{"ha":1039,"x_min":0,"x_max":0,"o":"m 1008 729 b 708 972 1008 929 859 972 l 142 972 b 31 861 81 972 31 922 l 31 111 b 142 0 31 50 81 0 l 708 0 b 1008 243 859 0 1008 44 b 766 486 1008 377 899 486 b 1008 729 899 487 1008 596 z m 574 92 b 563 49 574 75 574 60 b 519 27 553 36 537 27 b 465 81 490 27 465 52 l 465 418 b 519 473 465 448 490 473 b 574 409 558 473 574 443 z m 574 575 b 519 500 574 539 568 500 b 465 554 490 500 465 524 l 465 891 b 519 945 465 921 490 945 b 563 924 537 945 553 937 b 574 891 570 914 574 903 z "},"C":{"ha":999,"x_min":0,"x_max":0,"o":"m 510 945 b 557 680 531 945 549 837 b 663 576 560 623 580 576 l 889 576 b 945 703 944 576 998 597 b 510 972 866 862 701 972 b 510 0 -129 972 -129 0 b 945 269 701 0 866 110 b 889 396 998 375 944 396 l 663 396 b 557 292 580 396 560 350 b 510 27 549 136 531 27 b 510 945 442 27 442 945 z "},"D":{"ha":1051,"x_min":0,"x_max":0,"o":"m 574 972 l 142 972 b 31 861 81 972 31 922 l 31 111 b 142 0 31 50 81 0 l 574 0 b 574 972 1170 0 1168 972 z m 574 92 b 563 49 574 75 574 60 b 519 27 553 36 537 27 b 465 81 490 27 465 52 l 465 891 b 519 945 465 921 490 945 b 563 924 537 945 553 937 b 574 891 570 914 574 903 z "},"E":{"ha":856,"x_min":0,"x_max":0,"o":"m 142 972 b 31 861 81 972 31 922 l 31 111 b 142 0 31 50 81 0 l 817 0 b 824 7 821 0 824 3 l 824 20 b 817 27 824 24 821 27 l 465 27 l 465 473 l 670 473 b 677 480 674 473 677 476 l 677 493 b 670 500 677 497 674 500 l 465 500 l 465 945 l 817 945 b 824 952 821 945 824 948 l 824 965 b 817 972 824 969 821 972 z "},"F":{"ha":856,"x_min":0,"x_max":0,"o":"m 817 945 b 824 952 821 945 824 948 l 824 965 b 817 972 824 969 821 972 l 142 972 b 31 861 81 972 31 922 l 31 111 b 142 0 31 50 81 0 l 354 0 b 465 111 415 0 465 50 l 465 473 l 670 473 b 677 480 674 473 677 476 l 677 493 b 670 500 677 497 674 500 l 465 500 l 465 945 z "},"G":{"ha":1010,"x_min":0,"x_max":0,"o":"m 510 0 b 979 375 701 0 979 137 b 876 501 979 493 932 501 l 620 501 b 520 440 598 501 520 498 b 626 143 520 320 676 259 b 471 181 544 -51 485 27 b 510 945 447 443 460 945 b 557 680 531 945 549 837 b 663 576 560 623 580 576 l 889 576 b 945 703 945 576 998 597 b 510 972 866 862 701 972 b 510 0 -129 972 -129 0 z "},"H":{"ha":1039,"x_min":0,"x_max":0,"o":"m 897 972 l 685 972 b 574 861 624 972 574 922 l 574 500 l 465 500 l 465 861 b 354 972 465 922 415 972 l 142 972 b 31 861 81 972 31 922 l 31 111 b 142 0 31 50 81 0 l 354 0 b 465 111 415 0 465 50 l 465 473 l 574 473 l 574 111 b 685 0 574 50 624 0 l 897 0 b 1008 111 958 0 1008 50 l 1008 861 b 897 972 1008 922 958 972 z "},"I":{"ha":496,"x_min":0,"x_max":0,"o":"m 142 0 l 354 0 b 465 111 415 0 465 50 l 465 861 b 354 972 465 922 415 972 l 142 972 b 31 861 81 972 31 922 l 31 111 b 142 0 31 50 81 0 z "},"J":{"ha":999,"x_min":0,"x_max":0,"o":"m 856 972 l 644 972 b 533 861 583 972 533 922 l 533 486 b 488 27 533 257 521 27 b 441 292 467 27 449 136 b 334 396 438 350 417 396 l 109 396 b 52 269 53 396 -1 375 b 487 0 132 110 297 0 b 967 486 807 0 967 243 l 967 861 b 856 972 967 922 917 972 z "},"K":{"ha":1024,"x_min":0,"x_max":0,"o":"m 354 972 l 142 972 b 31 861 81 972 31 922 l 31 111 b 142 0 31 50 81 0 l 354 0 b 465 111 415 0 465 50 l 465 272 l 545 111 b 712 0 575 50 650 0 l 923 0 b 979 111 984 0 1010 51 l 670 723 l 917 965 b 917 972 920 969 921 972 l 903 972 b 889 965 900 972 893 969 l 479 563 l 465 552 l 465 861 b 354 972 465 922 415 972 z "},"L":{"ha":856,"x_min":0,"x_max":0,"o":"m 31 861 l 31 111 b 142 0 31 50 80 0 l 817 0 b 824 7 821 0 824 3 l 824 20 b 817 27 824 24 821 27 l 465 27 l 465 861 b 354 972 465 922 415 972 l 142 972 b 31 861 80 972 31 922 z "},"M":{"ha":1518,"x_min":0,"x_max":0,"o":"m 361 972 l 38 972 b 31 965 34 972 31 969 l 31 7 b 38 0 31 3 34 0 l 51 0 b 58 7 55 0 58 3 l 58 906 l 301 111 b 446 0 319 50 385 0 l 769 0 b 778 7 773 0 777 3 l 1053 905 l 1053 111 b 1164 0 1053 50 1103 0 l 1376 0 b 1487 111 1437 0 1487 50 l 1487 861 b 1376 972 1487 922 1437 972 l 1053 972 b 1044 965 1049 972 1045 969 l 759 33 l 506 861 b 361 972 487 922 422 972 z "},"N":{"ha":885,"x_min":0,"x_max":0,"o":"m 362 972 l 38 972 b 31 965 34 972 31 969 l 31 7 b 38 0 31 3 34 0 l 51 0 b 57 7 54 0 57 3 l 57 925 l 369 111 b 523 0 393 50 462 0 l 846 0 b 853 7 850 0 853 3 l 853 965 b 846 972 853 969 850 972 l 833 972 b 826 965 829 972 826 969 l 826 52 l 517 861 b 362 972 493 922 424 972 z "},"O":{"ha":1033,"x_min":0,"x_max":0,"o":"m 31 486 b 517 0 31 218 248 0 b 1003 486 785 0 1003 218 b 517 972 1003 755 785 972 b 31 486 248 972 31 755 z m 517 945 b 568 486 545 945 568 740 b 517 27 568 233 545 27 b 465 486 488 27 465 233 b 517 945 465 740 488 945 z "},"P":{"ha":1011,"x_min":0,"x_max":0,"o":"m 31 861 l 31 111 b 142 0 31 50 81 0 l 354 0 b 465 111 415 0 465 50 l 465 314 l 574 314 b 574 972 1116 314 1115 972 l 142 972 b 31 861 81 972 31 922 z m 465 891 b 520 945 465 921 490 945 b 562 924 537 945 553 937 b 574 891 569 914 574 903 l 574 406 b 562 363 574 389 573 374 b 520 342 553 350 537 342 b 465 396 490 342 465 366 z "},"Q":{"ha":1033,"x_min":0,"x_max":0,"o":"m 517 0 b 634 14 557 0 596 5 l 715 -140 b 725 -147 717 -144 722 -147 l 739 -147 b 742 -140 742 -147 744 -144 l 657 21 b 1003 486 857 81 1003 266 b 517 972 1003 755 785 972 b 31 486 248 972 31 755 b 517 0 31 218 248 0 z m 516 945 b 568 486 545 945 568 740 b 558 209 568 382 564 286 l 520 280 b 510 287 518 284 513 287 l 496 287 b 493 280 493 287 491 284 l 553 165 b 517 27 544 80 531 27 b 465 486 488 27 465 233 b 516 945 465 740 488 945 z "},"R":{"ha":1074,"x_min":0,"x_max":0,"o":"m 574 972 l 142 972 b 31 861 81 972 31 922 l 31 111 b 142 0 31 50 81 0 l 354 0 b 465 111 415 0 465 50 l 465 372 l 595 111 b 762 0 625 50 700 0 l 973 0 b 1029 111 1034 0 1060 51 l 843 480 b 574 972 1092 625 1002 972 z m 574 510 b 562 466 574 492 573 477 b 519 445 553 453 537 445 b 465 499 490 445 465 469 l 465 891 b 519 945 465 921 490 945 b 562 924 537 945 553 937 b 574 891 569 914 574 903 z "},"S":{"ha":1013,"x_min":0,"x_max":0,"o":"m 345 396 l 120 396 b 42 269 64 396 5 375 b 969 275 197 -165 929 -7 b 806 486 984 382 906 446 b 662 530 764 503 714 517 b 425 739 485 575 429 659 b 513 932 420 834 466 931 b 578 680 551 933 595 870 b 667 576 572 623 584 576 l 893 576 b 970 703 949 576 1005 597 b 497 972 904 900 686 975 b 43 697 269 969 69 852 b 207 486 26 591 106 527 b 350 442 248 469 298 455 b 588 233 528 397 584 314 b 500 40 592 138 547 41 b 434 292 461 40 417 102 b 345 396 440 350 428 396 z "},"T":{"ha":1082,"x_min":0,"x_max":0,"o":"m 38 972 b 31 965 34 972 31 969 l 31 952 b 38 945 31 948 34 945 l 323 945 l 323 111 b 435 0 323 50 373 0 l 646 0 b 758 111 708 0 758 50 l 758 945 l 1044 945 b 1051 952 1047 945 1051 948 l 1051 965 b 1044 972 1051 969 1047 972 z "},"U":{"ha":1035,"x_min":0,"x_max":0,"o":"m 891 972 l 679 972 b 568 861 618 972 568 922 l 568 79 b 517 27 568 51 545 27 b 465 79 488 27 465 51 l 465 861 b 354 972 465 922 415 972 l 142 972 b 31 861 81 972 31 922 l 31 486 b 517 0 31 219 249 0 b 1003 486 784 0 1003 219 l 1003 861 b 891 972 1003 922 953 972 z "},"V":{"ha":1067,"x_min":0,"x_max":0,"o":"m 113 972 b 36 861 52 972 17 922 l 264 111 b 410 0 283 50 349 0 l 733 0 b 742 7 737 0 741 3 l 1035 965 b 1030 972 1036 969 1034 972 l 1017 972 b 1008 965 1013 972 1009 969 l 723 33 l 470 861 b 325 972 451 922 386 972 l 113 972 z "},"W":{"ha":2082,"x_min":0,"x_max":0,"o":"m 1017 972 b 1008 965 1013 972 1009 969 l 723 33 l 470 861 b 324 972 451 922 386 972 l 113 972 b 36 861 52 972 17 922 l 265 111 b 410 0 283 50 349 0 l 733 0 b 742 7 737 0 741 3 l 1027 939 l 1280 111 b 1425 0 1299 50 1364 0 l 1748 0 b 1757 7 1752 0 1756 3 l 2050 965 b 2045 972 2051 969 2049 972 l 2032 972 b 2023 965 2028 972 2024 969 l 1738 33 l 1485 861 b 1340 972 1467 922 1401 972 l 1017 972 z "},"X":{"ha":943,"x_min":0,"x_max":0,"o":"m 145 0 l 158 0 b 169 7 162 0 166 3 l 359 296 l 462 111 b 635 0 495 50 574 0 l 846 0 b 896 111 908 0 930 50 l 596 654 l 800 965 b 798 972 803 969 802 972 l 785 972 b 773 965 781 972 776 969 l 583 676 l 481 861 b 308 972 447 922 369 972 l 96 972 b 46 861 35 972 12 922 l 347 318 l 142 7 b 145 0 140 3 141 0 z "},"Y":{"ha":1024,"x_min":0,"x_max":0,"o":"m 481 861 b 308 972 447 922 369 972 l 96 972 b 46 861 35 972 13 922 l 254 486 l 254 111 b 365 0 254 50 304 0 l 577 0 b 688 111 638 0 688 50 l 688 486 l 683 496 l 992 965 b 989 972 994 969 993 972 l 976 972 b 964 965 972 972 967 969 l 670 519 z "},"Z":{"ha":943,"x_min":0,"x_max":0,"o":"m 846 972 l 38 972 b 31 965 34 972 31 969 l 31 952 b 38 945 31 948 34 945 l 508 945 l 46 111 b 96 0 12 50 35 0 l 905 0 b 912 7 909 0 912 3 l 912 20 b 905 27 912 24 909 27 l 435 27 l 896 861 b 846 972 930 922 908 972 z "},"[":{"ha":738,"x_min":0,"x_max":0,"o":"m 688 1078 b 695 1085 692 1078 695 1081 l 695 1098 b 688 1105 695 1102 692 1105 l 153 1105 b 42 993 92 1105 42 1055 l 42 6 b 153 -105 42 -55 92 -105 l 688 -105 b 695 -98 692 -105 695 -102 l 695 -85 b 688 -78 695 -81 692 -78 l 476 -78 l 476 1078 z "},"\\":{"ha":774,"x_min":0,"x_max":0,"o":"m 726 -34 l 331 1033 b 231 1106 316 1073 271 1106 l 92 1106 b 47 1033 52 1106 32 1073 l 442 -34 b 542 -107 457 -74 502 -107 l 680 -107 b 726 -34 720 -107 741 -74 z "},"]":{"ha":738,"x_min":0,"x_max":0,"o":"m 583 1105 l 49 1105 b 42 1098 45 1105 42 1102 l 42 1085 b 49 1078 42 1081 45 1078 l 260 1078 l 260 -78 l 49 -78 b 42 -85 45 -78 42 -81 l 42 -98 b 49 -105 42 -102 45 -105 l 583 -105 b 695 6 645 -105 695 -55 l 695 993 b 583 1105 695 1055 645 1105 z "},"^":{"ha":449,"x_min":0,"x_max":0,"o":"m 405 763 l 352 938 b 291 986 345 964 317 986 l 159 986 b 96 938 132 986 104 964 l 44 763 b 77 715 36 737 51 715 l 143 715 b 205 763 169 715 197 737 l 224 827 l 244 763 b 306 715 252 737 280 715 l 372 715 b 405 763 398 715 413 737 z "},"_":{"ha":693,"x_min":0,"x_max":0,"o":"m 635 76 l 58 76 b 42 60 49 76 42 69 l 42 30 b 58 14 42 21 49 14 l 635 14 b 651 30 644 14 651 21 l 651 60 b 635 76 651 69 644 76 z "},"a":{"ha":1050,"x_min":0,"x_max":0,"o":"m 556 772 b 78 584 328 779 74 720 b 156 531 79 541 117 531 l 381 531 b 488 635 464 531 481 578 b 580 626 507 793 566 761 b 585 508 584 587 585 544 b 458 520 545 515 503 520 b 31 260 222 520 31 403 b 458 0 31 116 222 0 b 631 21 520 0 578 7 b 696 0 649 8 672 0 l 908 0 b 1019 111 969 0 1019 50 l 1019 481 b 556 772 1019 721 798 764 z m 458 260 b 585 464 458 365 514 451 l 585 111 b 601 54 585 90 591 70 b 458 260 522 55 458 147 z "},"b":{"ha":1058,"x_min":0,"x_max":0,"o":"m 641 772 b 465 729 578 772 518 756 l 465 860 b 354 972 465 922 415 972 l 142 972 b 31 860 81 972 31 922 l 31 111 b 142 0 31 50 81 0 l 354 0 b 448 51 393 0 428 20 b 641 0 505 18 571 0 b 1027 385 854 0 1027 172 b 641 772 1027 599 854 772 z m 465 103 b 465 111 465 106 465 108 l 465 668 b 592 385 540 620 592 511 b 465 103 592 259 540 151 z "},"c":{"ha":965,"x_min":0,"x_max":0,"o":"m 881 312 l 655 312 b 549 205 572 312 552 265 b 507 16 541 44 528 16 b 507 755 440 16 440 755 b 549 566 528 755 541 727 b 655 459 552 506 572 459 l 881 459 b 508 783 1013 459 903 783 b 508 -12 -129 783 -129 -12 b 881 312 903 -12 1013 312 z "},"d":{"ha":1058,"x_min":0,"x_max":0,"o":"m 916 972 l 704 972 b 593 860 643 972 593 922 l 593 729 b 416 772 540 756 480 772 b 31 385 203 772 31 599 b 416 0 31 172 203 0 b 610 51 487 0 553 18 b 704 0 630 20 665 0 l 916 0 b 1027 111 977 0 1027 50 l 1027 860 b 916 972 1027 922 977 972 z m 466 385 b 593 668 466 511 518 620 l 593 111 b 593 103 593 108 593 106 b 466 385 518 151 466 259 z "},"e":{"ha":1050,"x_min":0,"x_max":0,"o":"m 894 240 l 669 240 b 562 137 586 240 569 194 b 470 145 543 -21 484 11 b 465 263 466 184 465 228 b 592 252 505 256 547 252 b 1019 512 828 252 1019 368 b 512 772 1019 655 864 772 b 31 499 159 772 31 657 l 31 290 b 494 0 31 51 252 8 b 973 188 722 -7 976 51 b 894 240 972 230 933 240 z m 465 660 b 498 705 465 697 465 722 b 592 512 553 675 592 600 b 465 308 592 407 536 320 z "},"f":{"ha":974,"x_min":0,"x_max":0,"o":"m 516 783 b 31 385 198 783 31 584 l 31 -82 b 142 -194 31 -143 81 -194 l 354 -194 b 465 -82 415 -194 465 -143 l 465 256 l 625 256 b 632 263 629 256 632 259 l 632 276 b 625 283 632 280 629 283 l 465 283 l 465 385 b 516 755 465 570 482 755 b 557 566 536 755 548 727 b 664 459 560 506 580 459 l 889 459 b 516 783 1021 459 911 783 z "},"g":{"ha":1061,"x_min":0,"x_max":0,"o":"m 918 783 l 707 783 b 607 721 664 783 626 758 b 416 772 551 753 486 772 b 31 385 203 772 31 599 b 416 0 31 172 203 0 b 595 43 481 0 542 15 l 595 4 b 545 -366 595 -181 578 -366 b 504 -177 524 -366 512 -338 b 397 -70 501 -118 480 -70 l 172 -70 b 545 -394 39 -70 149 -394 b 1030 4 863 -394 1030 -195 l 1030 672 b 918 783 1030 733 980 783 z m 595 101 b 466 385 519 149 466 258 b 595 669 466 513 519 622 z "},"h":{"ha":1058,"x_min":0,"x_max":0,"o":"m 641 772 b 465 736 543 772 501 759 l 465 860 b 354 972 465 922 415 972 l 142 972 b 31 860 81 972 31 922 l 31 111 b 142 0 31 50 81 0 l 354 0 b 465 111 415 0 465 50 l 465 667 b 592 385 540 620 592 511 l 592 99 b 691 0 592 44 637 0 l 928 0 b 1026 99 982 0 1026 44 l 1026 385 b 641 772 1026 599 792 772 z "},"i":{"ha":496,"x_min":0,"x_max":0,"o":"m 354 772 l 142 772 b 31 660 81 772 31 721 l 31 111 b 142 0 31 50 81 0 l 354 0 b 465 111 415 0 465 50 l 465 660 b 354 772 465 721 415 772 z m 248 812 b 423 987 345 812 423 891 b 248 1163 423 1084 345 1163 b 72 987 151 1163 72 1084 b 248 812 72 891 151 812 z "},"j":{"ha":974,"x_min":0,"x_max":0,"o":"m 831 783 l 619 783 b 508 672 558 783 508 733 l 508 4 b 457 -366 508 -181 491 -366 b 416 -177 437 -366 424 -338 b 309 -70 413 -118 392 -70 l 84 -70 b 457 -394 -48 -70 61 -394 b 942 4 775 -394 942 -195 l 942 672 b 831 783 942 733 892 783 z m 725 812 b 901 987 822 812 901 891 b 725 1163 901 1084 822 1163 b 549 987 628 1163 549 1084 b 725 812 549 891 628 812 z "},"k":{"ha":1040,"x_min":0,"x_max":0,"o":"m 995 99 l 801 457 b 658 565 776 504 704 571 l 891 765 b 893 772 896 768 896 772 l 879 772 b 864 765 875 772 869 768 l 465 423 l 465 860 b 354 972 465 922 415 972 l 142 972 b 31 860 81 972 31 922 l 31 111 b 142 0 31 50 81 0 l 354 0 b 465 111 415 0 465 50 l 465 273 l 560 99 b 713 0 590 44 659 0 l 950 0 b 995 99 1004 0 1024 44 z "},"l":{"ha":496,"x_min":0,"x_max":0,"o":"m 354 972 l 142 972 b 31 860 81 972 31 922 l 31 111 b 142 0 31 50 81 0 l 354 0 b 465 111 415 0 465 50 l 465 860 b 354 972 465 922 415 972 z "},"m":{"ha":1604,"x_min":0,"x_max":0,"o":"m 1188 772 b 920 660 1037 772 985 721 b 918 656 919 659 919 657 b 634 772 836 739 721 772 b 444 725 543 772 488 753 b 354 772 424 753 391 772 l 142 772 b 31 660 81 772 31 721 l 31 111 b 142 0 31 50 81 0 l 354 0 b 465 111 415 0 465 50 l 465 509 b 523 717 465 641 482 718 b 585 385 584 716 585 465 l 585 99 b 683 0 585 44 629 0 l 920 0 b 1019 99 974 0 1019 44 l 1019 509 b 1077 717 1019 641 1036 718 b 1138 385 1137 716 1138 465 l 1138 99 b 1238 0 1138 44 1183 0 l 1474 0 b 1573 99 1528 0 1573 44 l 1573 385 b 1188 772 1573 676 1338 772 z "},"n":{"ha":1050,"x_min":0,"x_max":0,"o":"m 634 772 b 444 725 543 772 488 753 b 354 772 424 753 391 772 l 142 772 b 31 660 81 772 31 721 l 31 111 b 142 0 31 50 81 0 l 354 0 b 465 111 415 0 465 50 l 465 509 b 523 717 465 641 482 718 b 585 385 584 716 585 465 l 585 99 b 684 0 585 44 629 0 l 920 0 b 1019 99 974 0 1019 44 l 1019 385 b 634 772 1019 676 785 772 z "},"o":{"ha":1033,"x_min":0,"x_max":0,"o":"m 517 786 b 31 385 248 786 31 607 b 517 -16 31 164 248 -16 b 1003 385 785 -16 1003 164 b 517 786 1003 607 785 786 z m 517 13 b 465 385 488 13 465 176 b 516 759 465 595 487 759 b 568 385 544 759 568 595 b 517 13 568 176 545 13 z "},"p":{"ha":1058,"x_min":0,"x_max":0,"o":"m 641 772 b 448 719 571 772 505 752 b 354 772 428 751 393 772 l 142 772 b 31 660 81 772 31 721 l 31 -89 b 142 -201 31 -150 81 -201 l 354 -201 b 465 -89 415 -201 465 -150 l 465 42 b 641 0 518 15 578 0 b 1027 385 854 0 1027 172 b 641 772 1027 599 854 772 z m 465 103 l 465 660 b 465 668 465 662 465 665 b 592 385 540 620 592 511 b 465 103 592 260 540 152 z "},"q":{"ha":1058,"x_min":0,"x_max":0,"o":"m 916 772 l 704 772 b 610 719 665 772 630 751 b 416 772 553 752 487 772 b 31 385 203 772 31 599 b 416 0 31 172 203 0 b 593 42 480 0 540 15 l 593 -89 b 704 -201 593 -150 643 -201 l 916 -201 b 1027 -89 977 -201 1027 -150 l 1027 660 b 916 772 1027 721 977 772 z m 593 660 l 593 103 b 466 385 518 151 466 259 b 593 668 466 512 518 620 b 593 660 593 665 593 662 z "},"r":{"ha":974,"x_min":0,"x_max":0,"o":"m 515 783 b 377 769 465 783 419 778 b 354 772 369 771 361 772 l 142 772 b 31 660 81 772 31 721 l 31 111 b 142 0 31 50 81 0 l 354 0 b 465 111 415 0 465 50 l 465 385 b 516 755 465 570 482 755 b 557 566 536 755 548 727 b 664 459 560 506 580 459 l 889 459 b 515 783 1021 459 911 783 z "},"s":{"ha":843,"x_min":0,"x_max":0,"o":"m 369 653 b 451 620 391 777 474 786 b 518 541 445 576 449 541 l 704 541 b 776 637 750 541 800 557 b 433 771 744 744 592 774 b 31 553 242 769 31 730 b 474 118 31 235 520 373 b 392 151 452 -6 369 -15 b 325 230 398 195 393 230 l 139 230 b 67 134 93 230 43 214 b 409 0 99 27 251 -3 b 812 213 601 3 812 39 b 369 653 812 548 322 398 z "},"t":{"ha":974,"x_min":0,"x_max":0,"o":"m 889 324 l 664 324 b 557 217 581 324 560 276 b 515 27 549 56 536 27 b 465 397 482 27 465 212 l 465 717 l 625 717 b 632 724 629 717 632 720 l 632 737 b 625 744 632 741 629 744 l 465 744 l 465 865 b 354 976 465 926 415 976 l 142 976 b 31 865 81 976 31 926 l 31 397 b 516 0 31 198 198 0 b 889 324 911 0 1021 324 z "},"u":{"ha":1050,"x_min":0,"x_max":0,"o":"m 907 772 l 696 772 b 584 660 635 772 584 721 l 584 262 b 527 54 584 130 567 53 b 465 385 466 55 465 306 l 465 672 b 366 772 465 727 420 772 l 130 772 b 31 672 75 772 31 727 l 31 385 b 416 0 31 95 265 0 b 606 46 507 0 562 18 b 696 0 626 18 659 0 l 907 0 b 1019 111 969 0 1019 50 l 1019 660 b 907 772 1019 721 969 772 z "},"v":{"ha":928,"x_min":0,"x_max":0,"o":"m 891 772 l 878 772 b 869 765 874 772 870 768 l 654 34 l 470 660 b 325 772 452 721 387 772 l 114 772 b 35 660 53 772 17 721 l 197 111 b 341 0 215 50 280 0 l 664 0 b 673 7 668 0 672 3 l 896 765 b 891 772 897 768 895 772 z "},"w":{"ha":1789,"x_min":0,"x_max":0,"o":"m 1753 772 l 1740 772 b 1731 765 1736 772 1732 768 l 1516 33 l 1332 660 b 1187 772 1313 721 1248 772 l 878 772 b 869 765 874 772 870 768 l 654 33 l 470 660 b 325 772 451 721 387 772 l 114 772 b 35 660 53 772 17 721 l 197 111 b 341 0 215 50 280 0 l 664 0 b 673 7 668 0 672 3 l 881 714 l 1058 111 b 1203 0 1077 50 1142 0 l 1526 0 b 1535 7 1530 0 1534 3 l 1758 765 b 1753 772 1759 768 1757 772 z "},"x":{"ha":857,"x_min":0,"x_max":0,"o":"m 808 111 l 559 532 l 743 765 b 742 772 746 768 746 772 l 729 772 b 716 765 725 772 719 768 l 547 552 l 483 660 b 306 772 447 721 367 772 l 94 772 b 49 660 33 772 12 721 l 298 238 l 114 7 b 115 0 110 3 111 0 l 128 0 b 141 7 132 0 138 3 l 310 219 l 374 111 b 551 0 410 50 490 0 l 763 0 b 808 111 824 0 844 50 z "},"y":{"ha":928,"x_min":0,"x_max":0,"o":"m 891 772 l 878 772 b 869 765 874 772 870 768 l 654 33 l 470 660 b 326 772 452 721 387 772 l 114 772 b 35 660 53 772 17 721 l 197 111 b 341 0 215 50 280 0 l 645 0 b 540 -288 612 -109 573 -217 b 500 -177 461 -456 485 -235 b 426 -70 515 -118 509 -70 l 200 -70 b 413 -398 38 -70 147 -383 b 554 -328 469 -401 522 -384 b 671 3 597 -254 633 -126 b 673 7 672 4 673 5 l 896 765 b 891 772 897 768 895 772 z "},"z":{"ha":857,"x_min":0,"x_max":0,"o":"m 819 27 l 433 27 l 808 660 b 763 772 844 721 824 772 l 38 772 b 31 765 34 772 31 768 l 31 751 b 38 744 31 747 34 744 l 424 744 l 49 111 b 94 0 12 50 33 0 l 819 0 b 826 7 823 0 826 3 l 826 20 b 819 27 826 23 823 27 z "},"{":{"ha":847,"x_min":0,"x_max":0,"o":"m 384 538 b 424 578 384 560 402 578 l 514 578 b 587 674 562 578 587 622 l 587 1078 l 798 1078 b 805 1085 802 1078 805 1081 l 805 1098 b 798 1105 805 1102 802 1105 l 264 1105 b 152 993 202 1105 152 1055 l 152 758 l 120 758 b 42 681 77 758 42 723 l 42 319 b 120 241 42 276 77 241 l 152 241 l 152 6 b 264 -105 152 -55 202 -105 l 798 -105 b 805 -98 802 -105 805 -102 l 805 -85 b 798 -78 805 -81 802 -78 l 587 -78 l 587 325 b 514 422 587 378 562 422 l 424 422 b 384 462 402 422 384 440 z "},"|":{"ha":307,"x_min":0,"x_max":0,"o":"m 208 1122 l 99 1122 b 42 1065 68 1122 42 1097 l 42 -65 b 99 -123 42 -97 68 -123 l 208 -123 b 266 -65 240 -123 266 -97 l 266 1065 b 208 1122 266 1097 240 1122 z "},"}":{"ha":847,"x_min":0,"x_max":0,"o":"m 728 758 l 695 758 l 695 993 b 583 1105 695 1055 645 1105 l 49 1105 b 42 1098 45 1105 42 1102 l 42 1085 b 49 1078 42 1081 45 1078 l 260 1078 l 260 674 b 333 578 260 622 285 578 l 423 578 b 463 538 445 578 463 560 l 463 462 b 423 422 463 440 445 422 l 333 422 b 260 325 285 422 260 378 l 260 -78 l 49 -78 b 42 -85 45 -78 42 -81 l 42 -98 b 49 -105 42 -102 45 -105 l 583 -105 b 695 6 645 -105 695 -55 l 695 241 l 728 241 b 805 319 770 241 805 276 l 805 681 b 728 758 805 723 770 758 z "},"~":{"ha":632,"x_min":0,"x_max":0,"o":"m 545 967 b 475 924 514 974 482 955 b 468 910 473 918 471 914 b 447 900 463 905 456 902 b 408 901 434 897 421 898 b 367 922 392 905 378 912 b 298 968 345 942 321 957 b 182 983 258 985 218 990 b 83 927 144 975 110 956 b 47 871 69 911 56 892 b 77 794 34 841 47 807 b 153 824 106 781 140 794 b 169 848 158 833 163 841 b 204 867 179 858 191 865 b 251 861 218 870 234 868 b 288 835 263 855 275 847 b 380 787 314 812 346 796 b 471 785 410 780 442 779 b 555 832 503 792 532 807 b 588 896 570 849 582 870 b 545 967 596 928 577 959 z "}," ":{"ha":558,"x_min":0,"x_max":0,"o":""},"¡":{"ha":518,"x_min":0,"x_max":0,"o":"m 259 794 b 259 986 385 794 385 986 b 259 794 132 986 132 794 z m 365 757 l 153 757 b 42 645 92 757 42 706 l 42 125 b 153 14 42 64 92 14 l 365 14 b 476 125 426 14 476 64 l 476 645 b 365 757 476 706 426 757 z "},"¢":{"ha":1019,"x_min":0,"x_max":0,"o":"m 900 408 l 674 408 b 568 303 591 408 571 361 b 532 45 561 173 548 76 l 509 45 b 509 954 458 140 458 859 l 532 954 b 568 696 548 924 561 827 b 674 591 571 638 591 591 l 900 591 b 956 719 955 591 1009 612 b 579 988 885 864 745 968 b 579 990 579 989 579 989 l 579 1063 b 543 1098 579 1082 563 1098 l 476 1098 b 440 1063 456 1098 440 1082 l 440 990 b 441 987 440 989 441 988 b 441 13 -91 911 -91 88 b 440 10 441 12 440 11 l 440 -63 b 476 -99 440 -83 456 -99 l 543 -99 b 579 -63 563 -99 579 -83 b 579 11 579 -63 579 11 b 956 280 745 31 885 135 b 900 408 1009 387 955 408 z "},"£":{"ha":775,"x_min":0,"x_max":0,"o":"m 709 41 l 490 41 b 485 78 450 41 468 61 b 515 177 508 102 515 124 l 515 296 l 640 296 b 641 322 664 296 663 322 l 515 322 l 515 559 b 579 623 515 594 544 623 l 713 623 b 711 647 740 623 741 647 l 449 647 b 127 473 316 647 127 665 l 127 322 l 61 322 b 64 295 36 322 33 295 l 127 295 l 127 102 b 45 14 89 74 45 58 l 710 14 b 709 41 742 14 742 41 z "},"¥":{"ha":1046,"x_min":0,"x_max":0,"o":"m 1000 972 l 987 972 b 976 965 983 972 978 969 l 682 519 l 492 860 b 319 972 458 922 380 972 l 107 972 b 58 860 46 972 24 922 l 265 486 l 265 352 l 145 352 b 138 345 141 352 138 348 l 138 331 b 145 324 138 328 141 324 l 265 324 l 265 270 l 145 270 b 138 263 141 270 138 267 l 138 250 b 145 243 138 246 141 243 l 265 243 l 265 111 b 377 0 265 50 315 0 l 588 0 b 699 111 649 0 699 50 l 699 243 l 806 243 b 813 250 810 243 813 246 l 813 263 b 806 270 813 267 810 270 l 699 270 l 699 324 l 806 324 b 813 331 810 324 813 328 l 813 345 b 806 352 813 348 810 352 l 699 352 l 699 486 l 694 496 l 1002 965 b 1000 972 1005 969 1004 972 z "},"§":{"ha":649,"x_min":0,"x_max":0,"o":"m 336 402 b 606 563 473 406 606 398 b 286 896 606 817 253 703 b 345 871 302 990 362 997 b 394 811 341 838 344 811 l 528 811 b 580 884 561 811 597 824 b 333 986 557 965 447 988 b 42 821 195 984 42 954 b 314 598 42 648 224 652 b 42 433 173 593 42 602 b 362 103 42 192 396 296 b 303 128 346 10 286 3 b 255 188 307 162 304 188 l 120 188 b 68 115 87 188 51 176 b 315 14 91 35 201 12 b 606 176 453 16 606 44 b 336 402 606 356 428 351 z m 304 493 b 344 494 299 599 339 631 b 304 493 348 402 310 375 z "},"©":{"ha":886,"x_min":0,"x_max":0,"o":"m 450 802 b 450 198 58 802 58 198 b 717 365 567 198 668 266 b 682 444 749 431 717 444 l 544 444 b 479 379 493 444 480 415 b 450 215 474 282 463 215 b 450 785 409 215 409 785 b 479 620 463 785 474 717 b 544 556 480 585 493 556 l 682 556 b 717 634 717 556 749 569 b 450 802 668 734 567 802 z m 752 809 b 531 901 696 866 617 901 l 355 901 b 134 809 269 901 190 866 b 42 588 77 752 42 674 l 42 412 b 134 190 42 325 77 247 b 355 98 190 133 269 98 l 531 98 b 752 190 617 98 696 133 b 845 412 809 247 845 325 l 845 588 b 752 809 845 674 809 752 z m 774 412 b 703 240 774 345 747 284 b 531 169 659 196 598 169 l 355 169 b 183 240 288 169 228 196 b 112 412 139 284 112 345 l 112 588 b 183 759 112 655 139 715 b 355 831 228 804 288 831 l 531 831 b 703 759 598 831 659 804 b 774 588 747 715 774 655 z "},"«":{"ha":1365,"x_min":0,"x_max":0,"o":"m 653 737 l 521 868 b 382 868 483 907 420 907 l 284 770 b 284 229 -39 448 -39 552 l 382 131 b 521 131 420 93 483 93 l 653 263 b 653 402 691 301 691 364 l 554 500 l 653 598 b 653 737 691 636 691 698 z m 1196 500 l 1294 598 b 1294 737 1333 636 1333 698 l 1163 868 b 1024 868 1124 907 1062 907 l 926 770 b 926 229 603 448 603 552 l 1024 131 b 1163 131 1062 93 1124 93 l 1294 263 b 1294 402 1333 301 1333 364 z "},"­":{"ha":0,"x_min":0,"x_max":0,"o":""},"®":{"ha":376,"x_min":0,"x_max":0,"o":"m 292 961 b 188 1003 266 987 229 1003 b 85 961 148 1003 111 987 b 42 857 58 934 42 897 b 85 753 42 816 58 779 b 188 710 111 726 148 710 b 292 753 229 710 266 726 b 335 857 319 779 335 816 b 292 961 335 897 319 934 z m 93 799 b 77 857 83 816 77 836 b 93 914 77 877 83 897 z m 188 745 b 125 765 165 745 143 752 l 154 765 b 175 786 165 765 175 774 l 175 835 l 199 786 b 231 765 205 774 219 765 l 252 765 b 188 745 234 752 212 745 z m 175 859 l 175 933 b 185 944 175 939 179 944 b 193 940 188 944 191 942 b 195 933 195 938 195 936 l 195 861 b 193 853 195 858 195 855 b 185 849 191 850 188 849 b 175 859 179 849 175 853 z m 279 791 l 246 855 b 271 885 260 863 268 874 b 272 887 271 886 271 887 b 272 895 272 890 272 892 l 272 895 b 272 897 273 896 273 896 l 272 897 b 272 903 272 899 272 901 l 272 903 b 272 904 272 903 272 904 l 271 905 b 271 907 271 906 271 906 l 271 907 b 271 909 271 908 271 908 b 270 911 270 909 270 910 b 269 912 270 911 270 911 b 269 913 269 912 269 912 b 268 914 269 913 269 913 b 268 915 268 914 268 914 b 267 916 268 915 268 916 b 267 917 267 916 267 917 b 266 918 267 917 266 918 b 265 920 266 919 266 919 b 265 921 265 920 265 920 l 264 922 l 263 923 b 262 924 263 923 262 923 l 261 925 b 260 926 261 925 261 926 l 260 926 b 258 928 259 927 259 928 l 257 929 b 256 930 257 929 256 930 l 255 931 b 254 932 255 931 254 932 l 253 932 b 251 934 252 933 252 934 l 250 934 b 248 936 250 935 249 935 l 248 936 l 246 937 l 245 938 l 243 939 l 242 939 b 239 940 241 940 240 940 l 239 941 b 236 942 238 941 237 941 l 235 942 l 233 943 l 232 943 b 230 944 231 944 231 944 l 229 944 b 226 945 228 945 227 945 l 225 945 b 222 946 224 946 223 946 l 221 946 b 218 947 220 946 219 947 l 217 947 b 214 948 216 947 215 947 l 213 948 b 210 948 212 948 211 948 l 208 948 l 205 948 l 204 949 l 125 949 b 188 968 143 961 165 968 b 267 936 219 968 247 956 b 300 857 287 915 300 887 b 279 791 300 832 292 810 z "},"°":{"ha":410,"x_min":0,"x_max":0,"o":"m 205 986 b 205 656 -13 986 -13 656 b 205 986 422 656 422 986 z m 145 761 b 264 881 67 840 186 959 b 145 761 343 802 224 683 z "},"±":{"ha":693,"x_min":0,"x_max":0,"o":"m 593 612 l 458 612 l 458 747 b 401 804 458 778 432 804 l 291 804 b 234 747 260 804 234 778 l 234 612 l 99 612 b 42 554 67 612 42 586 l 42 445 b 99 388 42 413 67 388 l 234 388 l 234 253 b 291 195 234 221 260 195 l 401 195 b 458 253 432 195 458 221 l 458 388 l 593 388 b 651 445 625 388 651 413 l 651 554 b 593 612 651 586 625 612 z m 635 76 l 57 76 b 42 60 49 76 42 69 l 42 30 b 57 14 42 21 49 14 l 635 14 b 651 30 643 14 651 21 l 651 60 b 635 76 651 69 643 76 z "},"²":{"ha":322,"x_min":0,"x_max":0,"o":"m 34 883 b 59 842 23 849 41 842 l 112 842 b 141 876 138 842 142 857 b 172 956 135 936 160 957 b 174 875 215 956 191 898 l 39 693 b 48 658 25 674 29 658 l 289 658 b 292 660 291 658 292 659 l 292 664 b 289 666 292 665 291 666 l 158 666 l 274 822 b 177 969 298 854 320 967 b 34 883 117 970 55 946 z "},"³":{"ha":315,"x_min":0,"x_max":0,"o":"m 33 658 l 249 658 b 285 693 269 658 285 674 l 285 934 b 249 969 285 953 269 969 l 33 969 b 31 967 32 969 31 968 l 31 963 b 33 960 31 962 32 960 l 146 960 l 146 818 l 80 818 b 78 816 79 818 78 817 l 78 811 b 80 809 78 810 79 809 l 146 809 l 146 666 l 33 666 b 31 664 32 666 31 665 l 31 660 b 33 658 31 659 32 658 z "},"·":{"ha":274,"x_min":0,"x_max":0,"o":"m 136 596 b 136 404 10 596 10 404 b 136 596 263 404 263 596 z "},"¹":{"ha":276,"x_min":0,"x_max":0,"o":"m 246 693 l 246 934 b 211 969 246 953 230 969 l 33 969 b 31 967 32 969 31 968 l 31 963 b 33 960 31 962 32 960 l 107 960 l 107 693 b 143 658 107 674 123 658 l 211 658 b 246 693 230 658 246 674 z "},"»":{"ha":1367,"x_min":0,"x_max":0,"o":"m 1083 770 l 984 868 b 845 868 946 907 884 907 l 714 737 b 714 598 675 698 675 636 l 812 500 l 714 402 b 714 263 675 364 675 301 l 845 131 b 984 131 884 93 946 93 l 1083 229 b 1083 770 1405 552 1405 448 z m 440 770 l 342 868 b 203 868 304 907 242 907 l 72 737 b 72 598 33 698 33 636 l 170 500 l 72 402 b 72 263 33 364 33 301 l 203 131 b 342 131 242 93 304 93 l 440 229 b 440 770 763 552 763 448 z "},"¿":{"ha":992,"x_min":0,"x_max":0,"o":"m 481 794 b 481 986 607 794 607 986 b 481 794 354 986 354 794 z m 871 409 l 645 409 b 539 306 562 409 542 363 b 492 41 530 149 513 41 b 446 296 468 41 454 151 b 698 614 440 424 698 438 l 698 683 b 624 757 698 724 665 757 l 337 757 b 264 683 297 757 264 724 b 161 567 264 622 217 592 b 90 222 1 498 32 323 b 492 14 162 97 301 14 b 927 283 683 14 848 123 b 871 409 980 389 927 409 z "},"À":{"ha":1065,"x_min":0,"x_max":0,"o":"m 1030 111 l 801 861 b 656 972 783 922 717 972 l 333 972 b 324 965 329 972 325 969 l 31 7 b 36 0 30 3 32 0 l 49 0 b 58 7 53 0 57 3 l 131 245 l 555 245 l 596 111 b 741 0 615 50 680 0 l 953 0 b 1030 111 1014 0 1049 50 z m 139 272 l 343 939 l 547 272 z m 457 1114 b 544 1047 468 1077 507 1047 l 636 1047 b 682 1114 672 1047 693 1077 l 609 1358 b 522 1425 598 1395 559 1425 l 430 1425 b 384 1358 394 1425 373 1395 z "},"Á":{"ha":1065,"x_min":0,"x_max":0,"o":"m 1030 111 l 801 861 b 656 972 783 922 717 972 l 333 972 b 324 965 329 972 325 969 l 31 7 b 36 0 30 3 32 0 l 49 0 b 58 7 53 0 57 3 l 131 245 l 555 245 l 596 111 b 741 0 615 50 680 0 l 953 0 b 1030 111 1014 0 1049 50 z m 139 272 l 343 939 l 547 272 z m 430 1047 l 522 1047 b 609 1114 559 1047 598 1077 l 682 1358 b 636 1425 693 1395 672 1425 l 544 1425 b 457 1358 507 1425 468 1395 l 384 1114 b 430 1047 373 1077 394 1047 z "},"Â":{"ha":1065,"x_min":0,"x_max":0,"o":"m 1030 111 l 801 861 b 656 972 783 922 717 972 l 333 972 b 324 965 329 972 325 969 l 31 7 b 36 0 30 3 32 0 l 49 0 b 58 7 53 0 57 3 l 131 245 l 555 245 l 596 111 b 741 0 614 50 680 0 l 953 0 b 1030 111 1014 0 1049 50 z m 139 272 l 343 939 l 547 272 z m 327 1047 l 419 1047 b 506 1114 456 1047 495 1077 l 533 1204 l 560 1114 b 647 1047 571 1077 610 1047 l 738 1047 b 785 1114 775 1047 796 1077 l 711 1358 b 625 1425 700 1395 662 1425 l 441 1425 b 355 1358 404 1425 366 1395 l 281 1114 b 327 1047 270 1077 291 1047 z "},"Ã":{"ha":1065,"x_min":0,"x_max":0,"o":"m 1030 111 l 801 861 b 656 972 783 922 717 972 l 333 972 b 324 965 329 972 325 969 l 31 7 b 36 0 30 3 32 0 l 49 0 b 58 7 53 0 57 3 l 131 245 l 555 245 l 596 111 b 741 0 615 50 680 0 l 953 0 b 1030 111 1014 0 1049 50 z m 139 272 l 343 939 l 547 272 z m 294 1091 b 370 1121 323 1078 357 1092 b 386 1145 375 1131 380 1139 b 421 1165 395 1156 407 1162 b 467 1159 435 1168 451 1166 b 505 1133 479 1153 492 1145 b 597 1085 531 1109 563 1093 b 687 1083 627 1077 658 1076 b 771 1129 720 1089 749 1105 b 805 1193 787 1147 799 1168 b 762 1264 813 1225 793 1257 b 692 1221 731 1272 699 1252 b 685 1208 690 1215 688 1211 b 664 1197 680 1203 673 1199 b 625 1198 651 1195 638 1195 b 584 1219 609 1202 595 1209 b 514 1265 562 1240 538 1255 b 399 1280 475 1283 435 1287 b 300 1224 361 1273 327 1253 b 264 1168 285 1208 273 1190 b 294 1091 251 1139 264 1104 z "},"Ä":{"ha":1065,"x_min":0,"x_max":0,"o":"m 1030 111 l 801 861 b 656 972 783 922 717 972 l 333 972 b 324 965 329 972 325 969 l 31 7 b 36 0 30 3 32 0 l 49 0 b 58 7 53 0 57 3 l 131 245 l 555 245 l 596 111 b 741 0 614 50 680 0 l 953 0 b 1030 111 1014 0 1049 50 z m 139 272 l 343 939 l 547 272 z m 396 1047 b 505 1156 457 1047 505 1096 b 396 1265 505 1216 457 1265 b 288 1156 337 1265 288 1216 b 396 1047 288 1096 337 1047 z m 669 1047 b 778 1156 729 1047 778 1096 b 669 1265 778 1216 729 1265 b 561 1156 609 1265 561 1216 b 669 1047 561 1096 609 1047 z "},"Å":{"ha":1065,"x_min":0,"x_max":0,"o":"m 1030 111 l 801 861 b 656 972 782 922 717 972 l 333 972 b 324 965 329 972 325 969 l 31 7 b 36 0 30 3 32 0 l 49 0 b 58 7 53 0 57 3 l 131 245 l 555 245 l 596 111 b 741 0 614 50 680 0 l 953 0 b 1030 111 1014 0 1049 50 z m 139 272 l 343 939 l 547 272 z m 533 1047 b 692 1207 621 1047 692 1119 b 533 1366 692 1295 621 1366 b 374 1207 445 1366 374 1295 b 533 1047 374 1119 445 1047 z m 533 1286 b 612 1207 577 1286 612 1251 b 533 1127 612 1162 577 1127 b 453 1207 489 1127 453 1162 b 533 1286 453 1251 489 1286 z "},"Æ":{"ha":1460,"x_min":0,"x_max":0,"o":"m 1421 27 l 1069 27 l 1069 473 l 1274 473 b 1274 500 1284 473 1284 500 l 1069 500 b 1069 945 1070 649 1069 797 l 1421 945 b 1421 972 1431 945 1431 972 l 639 972 l 628 965 l 32 7 b 59 7 25 -4 53 -2 l 207 245 l 631 245 l 630 111 b 740 0 629 50 679 0 l 1421 0 b 1421 27 1431 0 1431 27 z m 634 542 l 631 272 l 224 272 l 639 939 b 634 542 637 807 634 675 z "},"Ç":{"ha":997,"x_min":0,"x_max":0,"o":"m 889 396 l 663 396 b 557 292 580 396 560 350 b 533 76 552 199 544 123 b 533 76 533 76 533 76 b 532 71 533 74 532 73 b 510 27 525 43 518 27 b 510 945 443 27 443 945 b 557 680 531 945 549 837 b 663 576 560 623 580 576 l 889 576 b 945 703 945 576 998 597 b 510 972 865 862 701 972 b 510 0 -129 972 -129 0 b 511 0 511 0 511 0 b 318 -62 479 -58 415 -78 b 329 -137 313 -92 317 -118 b 673 28 518 -191 633 -135 b 945 269 792 70 889 157 b 889 396 998 375 945 396 z "},"È":{"ha":854,"x_min":0,"x_max":0,"o":"m 817 945 b 824 952 821 945 824 948 l 824 965 b 817 972 824 969 821 972 l 142 972 b 31 861 81 972 31 922 l 31 111 b 142 0 31 50 81 0 l 817 0 b 824 7 821 0 824 3 l 824 20 b 817 27 824 24 821 27 l 465 27 l 465 473 l 670 473 b 677 480 674 473 677 476 l 677 493 b 670 500 677 497 674 500 l 465 500 l 465 945 z m 352 1114 b 438 1047 363 1077 401 1047 l 530 1047 b 576 1114 567 1047 588 1077 l 503 1358 b 416 1425 492 1395 453 1425 l 325 1425 b 278 1358 288 1425 267 1395 z "},"É":{"ha":854,"x_min":0,"x_max":0,"o":"m 817 945 b 824 952 821 945 824 948 l 824 965 b 817 972 824 969 821 972 l 142 972 b 31 861 81 972 31 922 l 31 111 b 142 0 31 50 81 0 l 817 0 b 824 7 821 0 824 3 l 824 20 b 817 27 824 24 821 27 l 465 27 l 465 473 l 670 473 b 677 480 674 473 677 476 l 677 493 b 670 500 677 497 674 500 l 465 500 l 465 945 z m 325 1047 l 416 1047 b 503 1114 453 1047 492 1077 l 576 1358 b 530 1425 587 1395 567 1425 l 438 1425 b 352 1358 401 1425 363 1395 l 278 1114 b 325 1047 267 1077 288 1047 z "},"Ê":{"ha":854,"x_min":0,"x_max":0,"o":"m 817 945 b 824 952 821 945 824 948 l 824 965 b 817 972 824 969 821 972 l 142 972 b 31 861 81 972 31 922 l 31 111 b 142 0 31 50 81 0 l 817 0 b 824 7 821 0 824 3 l 824 20 b 817 27 824 24 821 27 l 465 27 l 465 473 l 670 473 b 677 480 674 473 677 476 l 677 493 b 670 500 677 497 674 500 l 465 500 l 465 945 z m 222 1047 l 314 1047 b 400 1114 351 1047 389 1077 l 427 1204 l 454 1114 b 541 1047 466 1077 505 1047 l 633 1047 b 679 1114 669 1047 690 1077 l 606 1358 b 519 1425 595 1395 556 1425 l 336 1425 b 249 1358 299 1425 260 1395 l 176 1114 b 222 1047 164 1077 185 1047 z "},"Ë":{"ha":854,"x_min":0,"x_max":0,"o":"m 817 945 b 824 952 821 945 824 948 l 824 965 b 817 972 824 969 821 972 l 142 972 b 31 861 81 972 31 922 l 31 111 b 142 0 31 50 81 0 l 817 0 b 824 7 821 0 824 3 l 824 20 b 817 27 824 24 821 27 l 465 27 l 465 473 l 670 473 b 677 480 674 473 677 476 l 677 493 b 670 500 677 497 674 500 l 465 500 l 465 945 z m 291 1047 b 400 1156 351 1047 400 1096 b 291 1265 400 1216 351 1265 b 183 1156 231 1265 183 1216 b 291 1047 183 1096 231 1047 z m 564 1047 b 672 1156 624 1047 672 1096 b 564 1265 672 1216 624 1265 b 455 1156 504 1265 455 1216 b 564 1047 455 1096 504 1047 z "},"Ì":{"ha":496,"x_min":0,"x_max":0,"o":"m 354 972 l 142 972 b 31 861 81 972 31 922 l 31 111 b 142 0 31 50 81 0 l 354 0 b 465 111 415 0 465 50 l 465 861 b 354 972 465 922 415 972 z m 172 1114 b 259 1047 183 1077 222 1047 l 351 1047 b 397 1114 387 1047 408 1077 l 324 1358 b 237 1425 313 1395 274 1425 l 145 1425 b 99 1358 109 1425 88 1395 z "},"Í":{"ha":496,"x_min":0,"x_max":0,"o":"m 354 972 l 142 972 b 31 861 81 972 31 922 l 31 111 b 142 0 31 50 81 0 l 354 0 b 465 111 415 0 465 50 l 465 861 b 354 972 465 922 415 972 z m 145 1047 l 237 1047 b 324 1114 274 1047 313 1077 l 397 1358 b 351 1425 408 1395 387 1425 l 259 1425 b 172 1358 222 1425 183 1395 l 98 1114 b 145 1047 87 1077 108 1047 z "},"Î":{"ha":571,"x_min":0,"x_max":0,"o":"m 391 972 l 180 972 b 68 861 118 972 68 922 l 68 111 b 180 0 68 50 118 0 l 391 0 b 502 111 453 0 502 50 l 502 861 b 391 972 502 922 453 972 z m 537 1114 l 464 1358 b 377 1425 453 1395 414 1425 l 193 1425 b 107 1358 157 1425 118 1395 l 34 1114 b 80 1047 23 1077 43 1047 l 172 1047 b 258 1114 208 1047 247 1077 l 285 1204 l 313 1114 b 399 1047 324 1077 362 1047 l 491 1047 b 537 1114 527 1047 548 1077 z "},"Ï":{"ha":551,"x_min":0,"x_max":0,"o":"m 381 972 l 170 972 b 59 861 108 972 59 922 l 59 111 b 170 0 59 50 108 0 l 381 0 b 493 111 443 0 493 50 l 493 861 b 381 972 493 922 443 972 z m 412 1047 b 520 1156 472 1047 520 1096 b 412 1265 520 1216 472 1265 b 303 1156 352 1265 303 1216 b 412 1047 303 1096 352 1047 z m 139 1047 b 248 1156 199 1047 248 1096 b 139 1265 248 1216 199 1265 b 31 1156 79 1265 31 1216 b 139 1047 31 1096 79 1047 z "},"Ð":{"ha":1368,"x_min":0,"x_max":0,"o":"m 891 972 l 460 972 b 348 861 398 972 348 922 l 348 531 b 287 570 328 548 308 561 b 171 585 247 588 207 592 b 72 529 133 578 99 559 b 36 474 57 514 45 495 b 65 396 23 444 36 410 b 142 426 95 384 129 397 b 158 450 147 436 152 444 b 193 470 168 461 180 468 b 239 464 207 473 223 471 b 277 438 251 458 264 450 b 348 396 297 419 322 405 l 348 111 b 460 0 348 50 398 0 l 891 0 b 891 972 1488 0 1486 972 z m 891 92 b 880 49 891 75 891 60 b 837 27 870 36 855 27 b 783 81 807 27 783 52 l 783 891 b 837 945 783 921 807 945 b 880 924 855 945 870 937 b 891 891 887 914 891 903 z "},"Ñ":{"ha":883,"x_min":0,"x_max":0,"o":"m 846 972 l 833 972 b 827 965 830 972 827 969 l 827 52 l 517 861 b 363 972 493 922 424 972 l 38 972 b 31 965 34 972 31 969 l 31 7 b 38 0 31 3 34 0 l 51 0 b 57 7 54 0 57 3 l 57 925 l 369 111 b 523 0 393 50 462 0 l 846 0 b 853 7 850 0 853 3 l 853 965 b 846 972 853 969 850 972 z m 203 1091 b 280 1121 232 1078 267 1092 b 295 1145 284 1131 289 1139 b 330 1165 305 1156 317 1162 b 376 1159 344 1168 360 1166 b 414 1133 389 1153 401 1145 b 506 1085 440 1109 473 1093 b 597 1083 536 1077 568 1076 b 680 1129 629 1089 658 1105 b 714 1193 696 1147 708 1168 b 671 1264 722 1225 703 1257 b 601 1221 640 1272 608 1252 b 594 1208 599 1215 597 1211 b 573 1197 589 1203 582 1199 b 533 1198 561 1195 547 1195 b 493 1219 518 1202 504 1209 b 424 1265 471 1240 447 1255 b 308 1280 384 1283 345 1287 b 209 1224 270 1273 236 1253 b 173 1168 195 1208 182 1190 b 203 1091 160 1139 173 1104 z "},"Ò":{"ha":1033,"x_min":0,"x_max":0,"o":"m 517 972 b 31 486 248 972 31 755 b 517 0 31 218 248 0 b 1003 486 785 0 1003 218 b 517 972 1003 755 785 972 z m 517 27 b 465 486 488 27 465 233 b 517 945 465 740 488 945 b 568 486 545 945 568 740 b 517 27 568 233 545 27 z m 441 1114 b 527 1047 452 1077 491 1047 l 619 1047 b 666 1114 656 1047 677 1077 l 592 1358 b 506 1425 581 1395 542 1425 l 414 1425 b 368 1358 377 1425 356 1395 z "},"Ó":{"ha":1033,"x_min":0,"x_max":0,"o":"m 517 972 b 31 486 248 972 31 755 b 517 0 31 218 248 0 b 1003 486 785 0 1003 218 b 517 972 1003 755 785 972 z m 516 27 b 465 486 488 27 465 233 b 516 945 465 740 488 945 b 568 486 545 945 568 740 b 516 27 568 233 545 27 z m 414 1047 l 506 1047 b 592 1114 542 1047 581 1077 l 666 1358 b 620 1425 677 1395 656 1425 l 527 1425 b 441 1358 491 1425 452 1395 l 367 1114 b 414 1047 357 1077 377 1047 z "},"Ô":{"ha":1033,"x_min":0,"x_max":0,"o":"m 517 972 b 31 486 248 972 31 755 b 517 0 31 218 248 0 b 1003 486 785 0 1003 218 b 517 972 1003 755 785 972 z m 517 27 b 465 486 488 27 465 233 b 517 945 465 740 488 945 b 568 486 545 945 568 740 b 517 27 568 233 545 27 z m 311 1047 l 403 1047 b 490 1114 440 1047 479 1077 l 516 1204 l 544 1114 b 630 1047 555 1077 594 1047 l 722 1047 b 769 1114 759 1047 780 1077 l 695 1358 b 609 1425 684 1395 645 1425 l 425 1425 b 338 1358 388 1425 349 1395 l 265 1114 b 311 1047 254 1077 275 1047 z "},"Õ":{"ha":1033,"x_min":0,"x_max":0,"o":"m 517 972 b 31 486 248 972 31 755 b 517 0 31 218 248 0 b 1003 486 785 0 1003 218 b 517 972 1003 755 785 972 z m 517 27 b 465 486 488 27 465 233 b 517 945 465 740 488 945 b 568 486 545 945 568 740 b 517 27 568 233 545 27 z m 277 1091 b 355 1121 307 1078 341 1092 b 370 1145 359 1131 364 1139 b 404 1165 379 1156 391 1162 b 451 1159 419 1168 435 1166 b 489 1133 464 1153 476 1145 b 581 1085 515 1109 547 1093 b 672 1083 611 1077 643 1076 b 755 1129 703 1089 733 1105 b 789 1193 771 1147 783 1168 b 746 1264 797 1225 778 1257 b 675 1221 715 1272 683 1252 b 669 1208 674 1215 672 1211 b 648 1197 664 1203 657 1199 b 608 1198 636 1195 622 1195 b 568 1219 593 1202 579 1209 b 499 1265 545 1240 522 1255 b 382 1280 459 1283 419 1287 b 284 1224 345 1273 311 1253 b 247 1168 269 1208 257 1190 b 277 1091 234 1139 248 1104 z "},"Ö":{"ha":1033,"x_min":0,"x_max":0,"o":"m 517 972 b 31 486 248 972 31 755 b 517 0 31 218 248 0 b 1002 486 785 0 1002 218 b 517 972 1002 755 785 972 z m 517 27 b 465 486 488 27 465 233 b 517 945 465 740 488 945 b 568 486 545 945 568 740 b 517 27 568 233 545 27 z m 653 1047 b 762 1156 713 1047 762 1096 b 653 1265 762 1216 713 1265 b 544 1156 593 1265 544 1216 b 653 1047 544 1096 593 1047 z m 380 1047 b 489 1156 440 1047 489 1096 b 380 1265 489 1216 440 1265 b 271 1156 320 1265 271 1216 b 380 1047 271 1096 320 1047 z "},"×":{"ha":625,"x_min":0,"x_max":0,"o":"m 471 500 l 566 595 b 566 677 589 618 589 654 l 489 754 b 408 754 467 776 430 776 l 312 658 l 217 754 b 136 754 195 776 158 776 l 59 677 b 59 595 36 654 36 618 l 154 500 l 59 404 b 59 323 36 382 36 345 l 136 246 b 217 246 158 224 195 224 l 312 341 l 408 246 b 489 246 430 224 467 224 l 566 323 b 566 404 589 345 589 382 z "},"Ø":{"ha":1033,"x_min":0,"x_max":0,"o":"m 816 869 l 875 951 b 872 965 881 959 879 965 b 848 951 864 965 854 959 l 798 882 b 517 972 718 939 622 972 b 31 486 248 972 31 755 b 221 100 31 329 106 189 l 158 13 b 161 0 152 6 154 0 b 185 13 169 0 179 6 l 239 87 b 517 0 318 32 413 0 b 1003 486 785 0 1003 218 b 816 869 1003 642 930 781 z m 465 486 b 517 945 465 740 488 945 b 567 569 542 945 563 783 l 466 431 b 465 486 465 449 465 468 z m 568 486 b 517 27 568 233 545 27 b 466 395 492 27 471 185 l 568 533 b 568 486 568 518 568 502 z "},"Ù":{"ha":1033,"x_min":0,"x_max":0,"o":"m 891 972 l 680 972 b 568 861 618 972 568 922 l 568 79 b 517 27 568 51 545 27 b 465 79 488 27 465 51 l 465 861 b 354 972 465 922 415 972 l 142 972 b 31 861 81 972 31 922 l 31 486 b 517 0 31 219 249 0 b 1003 486 784 0 1003 219 l 1003 861 b 891 972 1003 922 953 972 z m 441 1114 b 527 1047 452 1077 491 1047 l 619 1047 b 666 1114 656 1047 677 1077 l 592 1358 b 506 1425 581 1395 542 1425 l 414 1425 b 367 1358 377 1425 357 1395 z "},"Ú":{"ha":1033,"x_min":0,"x_max":0,"o":"m 891 972 l 679 972 b 568 861 618 972 568 922 l 568 79 b 517 27 568 51 545 27 b 465 79 488 27 465 51 l 465 861 b 354 972 465 922 415 972 l 142 972 b 31 861 80 972 31 922 l 31 486 b 517 0 31 219 249 0 b 1002 486 784 0 1002 219 l 1002 861 b 891 972 1002 922 952 972 z m 414 1047 l 506 1047 b 592 1114 542 1047 581 1077 l 666 1358 b 619 1425 677 1395 656 1425 l 527 1425 b 441 1358 491 1425 452 1395 l 367 1114 b 414 1047 356 1077 377 1047 z "},"Û":{"ha":1033,"x_min":0,"x_max":0,"o":"m 891 972 l 680 972 b 568 861 619 972 568 922 l 568 79 b 517 27 568 51 545 27 b 465 79 488 27 465 51 l 465 861 b 354 972 465 922 415 972 l 142 972 b 31 861 81 972 31 922 l 31 486 b 517 0 31 219 249 0 b 1003 486 784 0 1003 219 l 1003 861 b 891 972 1003 922 953 972 z m 311 1047 l 403 1047 b 490 1114 440 1047 479 1077 l 517 1204 l 544 1114 b 630 1047 555 1077 594 1047 l 722 1047 b 769 1114 759 1047 780 1077 l 695 1358 b 609 1425 684 1395 645 1425 l 425 1425 b 338 1358 388 1425 349 1395 l 265 1114 b 311 1047 254 1077 275 1047 z "},"Ü":{"ha":1033,"x_min":0,"x_max":0,"o":"m 891 972 l 679 972 b 568 861 618 972 568 922 l 568 79 b 517 27 568 51 545 27 b 465 79 488 27 465 51 l 465 861 b 354 972 465 922 415 972 l 142 972 b 31 861 81 972 31 922 l 31 486 b 517 0 31 219 249 0 b 1002 486 784 0 1002 219 l 1002 861 b 891 972 1002 922 953 972 z m 380 1047 b 489 1156 440 1047 489 1096 b 380 1265 489 1216 440 1265 b 272 1156 320 1265 272 1216 b 380 1047 272 1096 320 1047 z m 653 1047 b 762 1156 713 1047 762 1096 b 653 1265 762 1216 713 1265 b 544 1156 593 1265 544 1216 b 653 1047 544 1096 593 1047 z "},"Ý":{"ha":1024,"x_min":0,"x_max":0,"o":"m 989 972 l 976 972 b 964 965 972 972 967 969 l 670 519 l 481 861 b 308 972 447 922 369 972 l 96 972 b 46 861 35 972 12 922 l 254 486 l 254 111 b 365 0 254 50 304 0 l 577 0 b 688 111 638 0 688 50 l 688 486 l 683 496 l 992 965 b 989 972 994 969 993 972 z m 409 1047 l 501 1047 b 588 1114 538 1047 577 1077 l 661 1358 b 614 1425 672 1395 651 1425 l 523 1425 b 436 1358 486 1425 447 1395 l 363 1114 b 409 1047 351 1077 372 1047 z "},"ß":{"ha":1161,"x_min":0,"x_max":0,"o":"m 776 500 b 1019 743 910 500 1019 609 b 719 986 1019 943 871 986 l 362 986 b 42 675 141 986 42 834 l 42 125 b 153 14 42 64 92 14 l 476 14 l 477 97 l 477 290 l 476 904 b 530 959 476 934 500 959 b 584 502 689 959 711 641 b 484 -51 822 323 833 52 l 484 -99 b 1119 257 707 -99 1119 -128 b 776 500 1119 390 911 499 z "},"à":{"ha":1050,"x_min":0,"x_max":0,"o":"m 556 772 b 78 584 328 779 74 720 b 156 532 79 542 117 532 l 381 532 b 488 635 464 532 481 578 b 580 627 507 794 566 761 b 585 509 584 587 585 544 b 458 520 545 516 503 520 b 31 260 222 520 31 404 b 458 0 31 116 222 0 b 631 22 520 0 578 8 b 696 0 649 8 672 0 l 908 0 b 1019 111 969 0 1019 50 l 1019 482 b 556 772 1019 721 798 764 z m 458 260 b 585 464 458 365 514 452 l 585 111 b 601 54 585 90 591 71 b 458 260 522 56 458 147 z m 449 914 b 536 847 460 877 499 847 l 628 847 b 674 914 665 847 685 877 l 601 1158 b 514 1224 590 1194 551 1224 l 422 1224 b 376 1158 386 1224 365 1194 z "},"á":{"ha":1050,"x_min":0,"x_max":0,"o":"m 556 772 b 78 584 328 779 74 720 b 156 532 79 542 117 532 l 381 532 b 488 635 464 532 481 578 b 580 627 507 794 566 761 b 585 509 584 587 585 544 b 458 520 545 516 503 520 b 31 260 222 520 31 404 b 458 0 31 116 222 0 b 631 22 520 0 578 8 b 696 0 649 8 672 0 l 908 0 b 1019 111 969 0 1019 50 l 1019 482 b 556 772 1019 721 798 764 z m 458 260 b 585 464 458 365 514 452 l 585 111 b 601 54 585 90 591 71 b 458 260 522 56 458 147 z m 422 847 l 514 847 b 601 914 551 847 590 877 l 674 1158 b 628 1224 685 1194 664 1224 l 536 1224 b 449 1158 499 1224 460 1194 l 376 914 b 422 847 365 877 386 847 z "},"â":{"ha":1050,"x_min":0,"x_max":0,"o":"m 556 772 b 78 584 328 779 74 720 b 156 532 79 542 117 532 l 381 532 b 488 635 464 532 481 578 b 580 627 507 794 566 761 b 585 509 584 587 585 544 b 458 520 545 516 503 520 b 31 260 222 520 31 404 b 458 0 31 116 222 0 b 631 22 520 0 578 8 b 696 0 649 8 672 0 l 908 0 b 1019 111 969 0 1019 50 l 1019 482 b 556 772 1019 721 798 764 z m 458 260 b 585 464 458 365 514 452 l 585 111 b 601 54 585 90 591 71 b 458 260 522 56 458 147 z m 320 847 l 411 847 b 498 914 448 847 487 877 l 525 1003 l 552 914 b 639 847 563 877 602 847 l 730 847 b 777 914 767 847 788 877 l 703 1158 b 617 1224 692 1194 654 1224 l 433 1224 b 347 1158 396 1224 358 1194 l 273 914 b 320 847 262 877 283 847 z "},"ã":{"ha":1050,"x_min":0,"x_max":0,"o":"m 557 772 b 78 584 329 779 74 720 b 156 532 79 542 117 532 l 381 532 b 488 635 464 532 481 578 b 580 627 507 794 566 761 b 585 509 584 587 585 544 b 458 520 545 516 503 520 b 31 260 222 520 31 404 b 458 0 31 116 222 0 b 631 22 520 0 578 8 b 697 0 649 8 672 0 l 908 0 b 1020 111 970 0 1020 50 l 1020 482 b 557 772 1020 721 798 764 z m 458 260 b 585 464 458 365 514 452 l 585 111 b 601 54 585 90 591 71 b 458 260 522 56 458 147 z m 286 891 b 363 921 315 878 350 891 b 378 945 367 930 372 938 b 413 965 388 955 400 962 b 460 958 427 967 443 965 b 497 933 472 953 485 944 b 589 884 523 909 556 892 b 680 882 619 877 651 876 b 764 929 712 889 741 904 b 798 993 780 946 792 968 b 755 1064 805 1024 786 1056 b 684 1021 723 1071 691 1052 b 677 1007 682 1015 680 1011 b 656 997 672 1002 665 999 b 617 998 644 994 630 995 b 576 1019 601 1002 587 1009 b 507 1065 554 1039 530 1054 b 391 1080 467 1082 428 1087 b 292 1024 353 1072 319 1053 b 256 968 278 1008 265 989 b 286 891 243 939 256 904 z "},"ä":{"ha":1050,"x_min":0,"x_max":0,"o":"m 557 772 b 78 584 328 779 74 720 b 156 532 79 542 117 532 l 381 532 b 488 635 464 532 481 578 b 580 627 507 794 566 761 b 585 509 584 587 585 544 b 458 520 545 516 503 520 b 31 260 222 520 31 404 b 458 0 31 116 222 0 b 631 22 520 0 578 8 b 696 0 649 8 672 0 l 908 0 b 1019 111 970 0 1019 50 l 1019 482 b 557 772 1019 721 798 764 z m 458 260 b 585 464 458 365 514 452 l 585 111 b 601 54 585 90 591 71 b 458 260 522 56 458 147 z m 389 847 b 497 956 449 847 497 896 b 389 1064 497 1015 449 1064 b 280 956 329 1064 280 1015 b 389 847 280 896 329 847 z m 662 847 b 770 956 721 847 770 896 b 662 1064 770 1015 721 1064 b 553 956 601 1064 553 1015 b 662 847 553 896 601 847 z "},"å":{"ha":1050,"x_min":0,"x_max":0,"o":"m 557 772 b 78 584 328 779 74 720 b 156 532 79 542 117 532 l 381 532 b 488 635 464 532 481 578 b 580 627 507 794 566 761 b 585 509 584 587 585 544 b 458 520 545 516 503 520 b 31 260 222 520 31 404 b 458 0 31 116 222 0 b 631 22 520 0 578 8 b 696 0 649 8 672 0 l 908 0 b 1019 111 970 0 1019 50 l 1019 482 b 557 772 1019 721 798 764 z m 458 260 b 585 464 458 365 514 452 l 585 111 b 601 54 585 90 591 71 b 458 260 522 56 458 147 z m 525 847 b 684 1006 613 847 684 918 b 525 1165 684 1094 613 1165 b 366 1006 437 1165 366 1094 b 525 847 366 918 437 847 z m 525 1086 b 605 1006 569 1086 605 1050 b 525 926 605 962 569 926 b 445 1006 481 926 445 962 b 525 1086 445 1050 481 1086 z "},"æ":{"ha":1604,"x_min":0,"x_max":0,"o":"m 1448 241 l 1223 241 b 1117 137 1140 241 1124 194 b 1024 146 1097 -21 1038 11 b 1019 244 1021 178 1020 213 l 1019 264 b 1146 252 1059 256 1102 252 b 1574 512 1382 252 1574 369 b 1066 772 1574 656 1419 772 b 802 742 958 772 871 761 b 556 772 729 762 644 769 b 77 584 328 779 74 720 b 156 532 78 542 116 532 l 381 532 b 488 635 464 532 481 578 b 580 627 507 794 566 761 b 585 510 584 588 585 545 l 585 509 b 458 520 545 516 502 520 b 31 260 222 520 31 404 b 458 0 31 116 222 0 b 630 22 519 0 577 8 b 696 0 649 8 671 0 l 908 0 b 946 7 921 0 934 2 b 1048 1 979 4 1013 2 b 1527 188 1276 -7 1530 52 b 1448 241 1526 231 1488 241 z m 1019 661 b 1052 705 1019 697 1019 722 b 1146 512 1107 676 1146 601 b 1019 308 1146 407 1091 321 z m 458 260 b 585 464 458 365 514 452 l 585 111 b 601 54 585 90 591 71 b 458 260 522 56 458 147 z "},"ç":{"ha":965,"x_min":0,"x_max":0,"o":"m 881 313 l 655 313 b 549 206 573 313 552 265 b 536 63 546 136 541 91 b 536 63 536 63 536 63 b 508 16 529 25 520 16 b 508 756 440 16 440 756 b 549 566 528 756 541 727 b 655 459 552 507 573 459 l 881 459 b 508 784 1013 459 903 784 b 508 -12 -129 784 -129 -12 b 515 -12 510 -12 512 -12 b 321 -75 483 -70 419 -91 b 332 -150 316 -105 320 -130 b 674 10 519 -203 633 -149 b 881 313 932 82 992 313 z "},"è":{"ha":1050,"x_min":0,"x_max":0,"o":"m 894 241 l 669 241 b 562 137 586 241 569 194 b 470 146 543 -21 484 11 b 465 264 466 185 465 228 b 592 252 505 256 548 252 b 1019 512 828 252 1019 369 b 512 772 1019 656 864 772 b 31 499 159 772 31 658 l 31 291 b 494 1 31 51 252 8 b 973 188 722 -7 976 52 b 894 241 972 231 934 241 z m 465 661 b 498 705 465 697 465 722 b 592 512 553 676 592 601 b 465 308 592 407 536 321 z m 449 914 b 536 847 460 877 499 847 l 628 847 b 674 914 665 847 685 877 l 601 1158 b 514 1224 590 1194 551 1224 l 422 1224 b 376 1158 386 1224 365 1194 z "},"é":{"ha":1050,"x_min":0,"x_max":0,"o":"m 894 241 l 669 241 b 562 137 586 241 569 194 b 470 146 543 -21 484 11 b 465 264 466 185 465 228 b 592 252 505 256 548 252 b 1019 512 828 252 1019 369 b 512 772 1019 656 864 772 b 31 499 159 772 31 658 l 31 291 b 494 1 31 51 252 8 b 973 188 722 -7 976 52 b 894 241 972 231 933 241 z m 465 661 b 498 705 465 697 465 722 b 592 512 553 676 592 601 b 465 308 592 407 536 321 z m 422 847 l 514 847 b 601 914 551 847 590 877 l 674 1158 b 628 1224 685 1194 665 1224 l 536 1224 b 449 1158 499 1224 460 1194 l 376 914 b 422 847 365 877 386 847 z "},"ê":{"ha":1050,"x_min":0,"x_max":0,"o":"m 894 241 l 669 241 b 562 137 586 241 569 194 b 470 146 543 -21 484 11 b 465 264 466 185 465 228 b 592 252 505 256 548 252 b 1019 512 828 252 1019 369 b 512 772 1019 656 864 772 b 31 499 159 772 31 658 l 31 291 b 494 1 31 51 252 8 b 973 188 722 -7 976 52 b 894 241 972 231 933 241 z m 465 661 b 498 705 465 697 465 722 b 592 512 553 676 592 601 b 465 308 592 407 536 321 z m 320 847 l 411 847 b 498 914 448 847 487 877 l 525 1003 l 552 914 b 639 847 563 877 602 847 l 731 847 b 777 914 767 847 788 877 l 703 1158 b 617 1224 692 1194 654 1224 l 433 1224 b 347 1158 396 1224 358 1194 l 273 914 b 320 847 262 877 283 847 z "},"ë":{"ha":1050,"x_min":0,"x_max":0,"o":"m 894 241 l 669 241 b 562 137 586 241 569 194 b 470 146 543 -21 484 11 b 465 264 466 185 465 228 b 592 252 505 256 548 252 b 1020 512 828 252 1020 369 b 512 772 1020 656 864 772 b 31 499 160 772 31 658 l 31 291 b 494 1 31 51 252 8 b 973 188 722 -7 976 52 b 894 241 972 231 934 241 z m 465 661 b 498 705 465 697 465 722 b 592 512 553 676 592 601 b 465 308 592 407 536 321 z m 662 847 b 770 956 721 847 770 896 b 662 1064 770 1015 721 1064 b 553 956 602 1064 553 1015 b 662 847 553 896 602 847 z m 389 847 b 498 956 449 847 498 896 b 389 1064 498 1015 449 1064 b 280 956 329 1064 280 1015 b 389 847 280 896 329 847 z "},"ì":{"ha":496,"x_min":0,"x_max":0,"o":"m 354 772 l 142 772 b 31 660 81 772 31 722 l 31 111 b 142 0 31 50 81 0 l 354 0 b 465 111 415 0 465 50 l 465 660 b 354 772 465 722 415 772 z m 179 914 b 266 847 190 877 229 847 l 358 847 b 404 914 394 847 415 877 l 331 1158 b 244 1224 320 1194 281 1224 l 152 1224 b 105 1158 115 1224 94 1194 z "},"í":{"ha":496,"x_min":0,"x_max":0,"o":"m 354 772 l 142 772 b 31 660 80 772 31 722 l 31 111 b 142 0 31 50 80 0 l 354 0 b 465 111 415 0 465 50 l 465 660 b 354 772 465 722 415 772 z m 145 847 l 237 847 b 323 914 273 847 312 877 l 397 1158 b 351 1224 408 1194 387 1224 l 258 1224 b 172 1158 222 1224 183 1194 l 98 914 b 145 847 87 877 108 847 z "},"î":{"ha":571,"x_min":0,"x_max":0,"o":"m 384 772 l 173 772 b 61 660 112 772 61 722 l 61 111 b 173 0 61 50 112 0 l 384 0 b 496 111 446 0 496 50 l 496 660 b 384 772 496 722 446 772 z m 538 914 l 464 1158 b 377 1224 453 1194 414 1224 l 194 1224 b 107 1158 157 1224 118 1194 l 33 914 b 80 847 22 877 43 847 l 172 847 b 259 914 208 847 248 877 l 286 1003 l 313 914 b 399 847 324 877 362 847 l 491 847 b 538 914 528 847 549 877 z "},"ï":{"ha":551,"x_min":0,"x_max":0,"o":"m 374 772 l 163 772 b 51 660 101 772 51 722 l 51 111 b 163 0 51 50 101 0 l 374 0 b 486 111 436 0 486 50 l 486 660 b 374 772 486 722 436 772 z m 412 1064 b 303 956 352 1064 303 1015 b 412 847 303 896 352 847 b 520 956 472 847 520 896 b 412 1064 520 1015 472 1064 z m 139 847 b 248 956 199 847 248 896 b 139 1064 248 1015 199 1064 b 31 956 79 1064 31 1015 b 139 847 31 896 79 847 z "},"ð":{"ha":1058,"x_min":0,"x_max":0,"o":"m 997 936 b 1010 972 1003 947 1007 959 b 954 1059 1020 1010 995 1050 b 861 1005 913 1069 871 1045 b 720 1003 849 958 759 969 b 300 940 575 1129 376 1103 b 340 845 283 904 301 861 b 440 882 378 829 423 845 b 603 907 473 951 544 951 b 593 860 596 893 593 877 l 593 729 b 31 386 340 859 31 677 b 610 52 31 86 356 -95 b 704 0 630 21 665 0 l 916 0 b 1027 111 977 0 1027 50 l 1027 861 b 997 936 1027 890 1016 916 z m 593 668 l 593 111 b 593 103 593 109 593 106 b 593 668 424 212 424 559 z "},"ñ":{"ha":1049,"x_min":0,"x_max":0,"o":"m 634 772 b 444 725 542 772 488 753 b 354 772 424 753 391 772 l 142 772 b 31 660 80 772 31 722 l 31 111 b 142 0 31 50 80 0 l 354 0 b 465 111 415 0 465 50 l 465 510 b 522 717 465 642 482 718 b 584 386 583 716 584 465 l 584 99 b 683 0 584 45 629 0 l 920 0 b 1019 99 974 0 1019 45 l 1019 386 b 634 772 1019 677 784 772 z m 292 891 b 369 921 322 878 356 891 b 385 945 373 930 379 938 b 419 965 394 955 406 962 b 466 958 434 967 450 965 b 504 933 478 953 491 944 b 596 884 529 909 562 892 b 686 882 626 877 657 876 b 770 929 718 889 748 904 b 804 993 786 946 798 968 b 761 1064 812 1024 793 1056 b 690 1021 730 1071 698 1052 b 684 1007 689 1015 687 1011 b 663 997 679 1002 671 999 b 623 998 650 994 637 995 b 582 1019 608 1002 593 1009 b 513 1065 560 1039 537 1054 b 397 1080 474 1082 434 1087 b 299 1024 359 1072 326 1053 b 262 968 284 1008 272 989 b 292 891 249 939 263 904 z "},"ò":{"ha":1033,"x_min":0,"x_max":0,"o":"m 517 787 b 31 386 248 787 31 607 b 517 -15 31 164 248 -15 b 1002 386 785 -15 1002 164 b 517 787 1002 607 785 787 z m 517 13 b 465 386 488 13 465 177 b 516 759 465 595 487 759 b 568 386 544 759 568 595 b 517 13 568 177 545 13 z m 448 914 b 534 847 459 877 498 847 l 626 847 b 673 914 663 847 684 877 l 599 1158 b 513 1224 588 1194 549 1224 l 421 1224 b 374 1158 384 1224 363 1194 z "},"ó":{"ha":1033,"x_min":0,"x_max":0,"o":"m 517 787 b 31 386 248 787 31 607 b 517 -15 31 164 248 -15 b 1003 386 785 -15 1003 164 b 517 787 1003 607 785 787 z m 517 13 b 465 386 488 13 465 177 b 516 759 465 595 487 759 b 568 386 544 759 568 595 b 517 13 568 177 545 13 z m 414 847 l 506 847 b 592 914 542 847 581 877 l 666 1158 b 619 1224 677 1194 656 1224 l 527 1224 b 441 1158 491 1224 452 1194 l 367 914 b 414 847 357 877 377 847 z "},"ô":{"ha":1033,"x_min":0,"x_max":0,"o":"m 517 787 b 31 386 248 787 31 607 b 517 -15 31 164 248 -15 b 1003 386 785 -15 1003 164 b 517 787 1003 607 785 787 z m 517 13 b 465 386 488 13 465 177 b 516 759 465 595 487 759 b 568 386 544 759 568 595 b 517 13 568 177 545 13 z m 311 847 l 403 847 b 490 914 440 847 479 877 l 516 1003 l 544 914 b 630 847 555 877 594 847 l 722 847 b 769 914 759 847 780 877 l 695 1158 b 609 1224 684 1194 645 1224 l 425 1224 b 338 1158 388 1224 349 1194 l 265 914 b 311 847 253 877 274 847 z "},"õ":{"ha":1033,"x_min":0,"x_max":0,"o":"m 517 787 b 31 386 248 787 31 607 b 517 -15 31 164 248 -15 b 1003 386 785 -15 1003 164 b 517 787 1003 607 785 787 z m 517 13 b 465 386 488 13 465 177 b 516 759 465 595 487 759 b 568 386 544 759 568 595 b 517 13 568 177 545 13 z m 277 891 b 354 921 307 878 341 891 b 370 945 359 930 364 938 b 404 965 379 955 391 962 b 451 958 419 967 435 965 b 489 933 463 953 476 944 b 581 884 515 909 547 892 b 671 882 611 877 642 876 b 755 929 703 889 733 904 b 789 993 771 946 783 968 b 746 1064 797 1024 777 1056 b 675 1021 715 1071 683 1052 b 669 1007 674 1015 672 1011 b 648 997 664 1002 657 999 b 608 998 635 994 622 995 b 567 1019 593 1002 578 1009 b 498 1065 545 1039 522 1054 b 382 1080 459 1082 419 1087 b 284 1024 345 1072 311 1053 b 247 968 269 1008 257 989 b 277 891 234 939 248 904 z "},"ö":{"ha":1033,"x_min":0,"x_max":0,"o":"m 517 787 b 31 386 248 787 31 607 b 517 -15 31 164 248 -15 b 1003 386 785 -15 1003 164 b 517 787 1003 607 785 787 z m 517 13 b 465 386 488 13 465 177 b 516 759 465 595 487 759 b 568 386 544 759 568 595 b 517 13 568 177 545 13 z m 387 847 b 496 956 447 847 496 896 b 387 1064 496 1015 447 1064 b 279 956 327 1064 279 1015 b 387 847 279 896 327 847 z m 660 847 b 769 956 720 847 769 896 b 660 1064 769 1015 720 1064 b 551 956 600 1064 551 1015 b 660 847 551 896 600 847 z "},"÷":{"ha":693,"x_min":0,"x_max":0,"o":"m 593 612 l 99 612 b 42 554 68 612 42 586 l 42 445 b 99 388 42 413 68 388 l 593 388 b 651 445 625 388 651 413 l 651 554 b 593 612 651 586 625 612 z m 339 621 b 339 813 465 621 465 813 b 339 621 213 813 213 621 z m 339 378 b 339 186 213 378 213 186 b 339 378 465 186 465 378 z "},"ø":{"ha":1033,"x_min":0,"x_max":0,"o":"m 827 694 l 903 773 b 902 787 910 781 910 787 b 876 773 895 787 883 781 l 811 705 b 517 787 729 756 627 787 b 31 386 248 787 31 607 b 206 77 31 262 99 151 l 130 -2 b 131 -15 123 -9 123 -15 b 158 -2 138 -15 150 -9 l 223 66 b 517 -15 305 15 406 -15 b 1002 386 785 -15 1002 164 b 827 694 1002 510 934 621 z m 465 386 b 516 759 465 595 487 759 b 567 452 541 759 563 629 l 465 347 b 465 386 465 359 465 373 z m 568 386 b 517 13 568 177 545 13 b 466 319 491 13 470 143 l 568 425 b 568 386 568 412 568 399 z "},"ù":{"ha":1050,"x_min":0,"x_max":0,"o":"m 908 772 l 696 772 b 585 660 635 772 585 722 l 585 262 b 527 55 585 130 568 54 b 465 386 466 56 465 306 l 465 673 b 366 772 465 727 421 772 l 130 772 b 31 673 75 772 31 727 l 31 386 b 416 0 31 95 265 0 b 606 47 508 0 562 18 b 696 0 626 18 659 0 l 908 0 b 1019 111 969 0 1019 50 l 1019 660 b 908 772 1019 722 969 772 z m 449 914 b 536 847 460 877 499 847 l 628 847 b 674 914 664 847 685 877 l 601 1158 b 514 1224 590 1194 550 1224 l 422 1224 b 375 1158 385 1224 364 1194 z "},"ú":{"ha":1050,"x_min":0,"x_max":0,"o":"m 907 772 l 696 772 b 584 660 635 772 584 722 l 584 262 b 527 55 584 130 568 54 b 465 386 466 56 465 306 l 465 673 b 366 772 465 727 420 772 l 130 772 b 31 673 75 772 31 727 l 31 386 b 416 0 31 95 265 0 b 606 46 507 0 562 18 b 696 0 626 18 659 0 l 907 0 b 1019 111 969 0 1019 50 l 1019 660 b 907 772 1019 722 969 772 z m 422 847 l 514 847 b 600 914 550 847 589 877 l 674 1158 b 628 1224 685 1194 664 1224 l 535 1224 b 449 1158 499 1224 460 1194 l 375 914 b 422 847 364 877 385 847 z "},"û":{"ha":1049,"x_min":0,"x_max":0,"o":"m 907 772 l 696 772 b 584 660 635 772 584 722 l 584 262 b 527 55 584 130 567 54 b 465 386 466 56 465 306 l 465 673 b 366 772 465 727 420 772 l 129 772 b 31 673 75 772 31 727 l 31 386 b 416 0 31 95 265 0 b 606 46 507 0 562 18 b 696 0 626 18 659 0 l 907 0 b 1019 111 969 0 1019 50 l 1019 660 b 907 772 1019 722 968 772 z m 319 847 l 411 847 b 498 914 448 847 487 877 l 524 1003 l 552 914 b 638 847 563 877 602 847 l 730 847 b 777 914 767 847 788 877 l 703 1158 b 617 1224 692 1194 653 1224 l 433 1224 b 346 1158 396 1224 357 1194 l 273 914 b 319 847 262 877 283 847 z "},"ü":{"ha":1050,"x_min":0,"x_max":0,"o":"m 907 772 l 696 772 b 584 660 635 772 584 722 l 584 262 b 527 55 584 130 567 54 b 465 386 466 56 465 306 l 465 673 b 366 772 465 727 420 772 l 130 772 b 31 673 75 772 31 727 l 31 386 b 416 0 31 95 265 0 b 606 46 507 0 562 18 b 696 0 626 18 659 0 l 907 0 b 1019 111 969 0 1019 50 l 1019 660 b 907 772 1019 722 969 772 z m 661 847 b 770 956 721 847 770 896 b 661 1064 770 1015 721 1064 b 552 956 601 1064 552 1015 b 661 847 552 896 601 847 z m 388 847 b 497 956 448 847 497 896 b 388 1064 497 1015 448 1064 b 280 956 328 1064 280 1015 b 388 847 280 896 328 847 z "},"ý":{"ha":928,"x_min":0,"x_max":0,"o":"m 891 772 l 878 772 b 869 765 874 772 870 769 l 654 34 l 470 660 b 325 772 452 722 387 772 l 114 772 b 35 660 53 772 17 722 l 197 111 b 341 0 215 50 280 0 l 645 0 b 540 -287 612 -109 573 -217 b 500 -176 461 -455 485 -235 b 426 -69 515 -117 508 -69 l 200 -69 b 413 -397 38 -69 146 -383 b 554 -328 469 -400 522 -384 b 672 4 597 -253 633 -125 b 673 7 673 5 673 6 l 896 765 b 891 772 897 769 895 772 z m 361 847 l 453 847 b 539 914 489 847 528 877 l 613 1158 b 566 1224 624 1194 603 1224 l 474 1224 b 388 1158 438 1224 399 1194 l 314 914 b 361 847 303 877 324 847 z "},"ÿ":{"ha":928,"x_min":0,"x_max":0,"o":"m 891 772 l 878 772 b 869 765 874 772 870 769 l 654 34 l 470 660 b 326 772 452 722 387 772 l 114 772 b 35 660 53 772 17 722 l 197 111 b 341 0 215 50 280 0 l 645 0 b 540 -287 612 -109 573 -217 b 500 -176 461 -455 485 -235 b 426 -69 515 -117 509 -69 l 200 -69 b 413 -397 38 -69 147 -383 b 554 -328 469 -400 522 -384 b 672 4 597 -253 633 -125 b 673 7 673 5 673 6 l 896 765 b 891 772 897 769 895 772 z m 600 847 b 709 956 660 847 709 896 b 600 1064 709 1015 660 1064 b 492 956 540 1064 492 1015 b 600 847 492 896 540 847 z m 327 847 b 436 956 387 847 436 896 b 327 1064 436 1015 387 1064 b 219 956 267 1064 219 1015 b 327 847 219 896 267 847 z "},"Œ":{"ha":1392,"x_min":0,"x_max":0,"o":"m 1354 945 b 1361 952 1358 945 1361 948 l 1361 965 b 1354 972 1361 969 1358 972 l 679 972 b 628 959 661 972 643 968 b 517 972 592 968 555 972 b 31 486 248 972 31 755 b 517 0 31 218 248 0 b 628 13 555 0 592 5 b 679 0 643 5 661 0 l 1354 0 b 1361 7 1358 0 1361 3 l 1361 20 b 1354 27 1361 24 1358 27 l 1002 27 l 1002 473 l 1207 473 b 1214 480 1211 473 1214 476 l 1214 493 b 1207 500 1214 497 1211 500 l 1002 500 l 1002 945 z m 517 27 b 465 486 488 27 465 233 b 517 945 465 740 488 945 b 568 486 545 945 568 740 b 517 27 568 233 545 27 z "},"œ":{"ha":1588,"x_min":0,"x_max":0,"o":"m 1431 241 l 1206 241 b 1099 137 1123 241 1106 194 b 1007 146 1080 -21 1021 11 b 1002 264 1003 185 1002 228 b 1129 252 1042 256 1085 252 b 1557 512 1365 252 1557 369 b 1049 772 1557 656 1401 772 b 759 734 927 772 831 758 b 517 787 688 768 605 787 b 31 386 248 787 31 607 b 517 -15 31 164 248 -15 b 760 38 605 -15 688 4 b 1031 1 838 13 933 4 b 1509 188 1259 -7 1513 52 b 1431 241 1508 231 1470 241 z m 1002 365 b 1003 386 1002 372 1003 379 b 1002 407 1003 393 1002 400 l 1002 661 b 1035 705 1002 697 1002 722 b 1129 512 1090 676 1129 601 b 1002 308 1129 407 1074 321 z m 568 334 b 517 13 564 150 543 13 b 465 386 488 13 465 177 b 516 759 465 595 488 759 b 568 437 542 759 564 621 z "},"Š":{"ha":1011,"x_min":0,"x_max":0,"o":"m 806 486 b 662 530 764 503 715 517 b 425 739 484 575 429 659 b 513 932 420 834 466 931 b 578 680 551 933 595 870 b 667 576 573 623 584 576 l 893 576 b 970 703 948 576 1005 597 b 497 972 904 900 686 975 b 43 697 269 969 69 852 b 207 486 26 591 107 527 b 350 442 249 469 298 455 b 588 233 528 397 584 314 b 500 40 592 138 547 41 b 435 292 461 40 418 102 b 345 396 440 350 428 396 l 120 396 b 42 269 64 396 5 375 b 969 275 197 -165 929 -7 b 806 486 984 382 906 446 z m 327 1114 b 414 1047 338 1077 377 1047 l 598 1047 b 684 1114 634 1047 673 1077 l 758 1358 b 711 1425 769 1395 748 1425 l 619 1425 b 533 1358 583 1425 544 1395 l 506 1268 l 479 1358 b 392 1425 468 1395 429 1425 l 300 1425 b 254 1358 264 1425 243 1395 z "},"š":{"ha":843,"x_min":0,"x_max":0,"o":"m 369 654 b 451 620 391 777 474 786 b 518 541 445 576 449 541 l 704 541 b 776 637 750 541 800 557 b 434 772 744 744 592 774 b 31 553 242 769 31 730 b 474 118 31 235 521 373 b 392 152 452 -5 369 -15 b 325 230 398 196 394 230 l 139 230 b 67 134 93 230 43 214 b 410 0 99 28 251 -2 b 813 214 601 3 813 40 b 369 654 813 549 322 398 z m 243 914 b 330 847 254 877 293 847 l 513 847 b 600 914 550 847 589 877 l 673 1158 b 627 1224 684 1194 664 1224 l 535 1224 b 449 1158 499 1224 460 1194 l 422 1068 l 394 1158 b 308 1224 383 1194 345 1224 l 216 1224 b 170 1158 180 1224 159 1194 z "},"Ÿ":{"ha":1024,"x_min":0,"x_max":0,"o":"m 989 972 l 976 972 b 964 965 972 972 967 969 l 670 519 l 481 861 b 308 972 447 922 369 972 l 96 972 b 46 861 35 972 13 922 l 254 486 l 254 111 b 365 0 254 50 304 0 l 577 0 b 688 111 638 0 688 50 l 688 486 l 683 496 l 992 965 b 989 972 994 969 993 972 z m 648 1047 b 757 1156 708 1047 757 1096 b 648 1265 757 1216 708 1265 b 539 1156 588 1265 539 1216 b 648 1047 539 1096 588 1047 z m 375 1047 b 484 1156 435 1047 484 1096 b 375 1265 484 1216 435 1265 b 267 1156 315 1265 267 1216 b 375 1047 267 1096 315 1047 z "},"Ž":{"ha":943,"x_min":0,"x_max":0,"o":"m 905 27 l 434 27 l 896 861 b 846 972 930 922 908 972 l 38 972 b 31 965 34 972 31 969 l 31 952 b 38 945 31 948 34 945 l 508 945 l 46 111 b 96 0 12 50 35 0 l 905 0 b 912 7 909 0 912 3 l 912 20 b 905 27 912 24 909 27 z m 293 1114 b 379 1047 304 1077 343 1047 l 563 1047 b 650 1114 600 1047 639 1077 l 723 1358 b 677 1425 734 1395 713 1425 l 585 1425 b 498 1358 548 1425 509 1395 l 471 1268 l 444 1358 b 358 1425 433 1395 394 1425 l 266 1425 b 219 1358 229 1425 208 1395 z "},"ž":{"ha":857,"x_min":0,"x_max":0,"o":"m 819 27 l 433 27 l 808 660 b 763 772 844 722 824 772 l 38 772 b 31 765 34 772 31 769 l 31 752 b 38 745 31 748 34 745 l 424 745 l 49 111 b 94 0 12 50 33 0 l 819 0 b 826 7 823 0 826 3 l 826 20 b 819 27 826 24 823 27 z m 250 914 b 337 847 261 877 300 847 l 520 847 b 607 914 557 847 596 877 l 680 1158 b 634 1224 691 1194 670 1224 l 542 1224 b 455 1158 506 1224 467 1194 l 428 1068 l 401 1158 b 315 1224 390 1194 352 1224 l 223 1224 b 176 1158 186 1224 165 1194 z "},"–":{"ha":711,"x_min":0,"x_max":0,"o":"m 616 596 l 94 596 b 42 544 65 596 42 573 l 42 455 b 94 403 42 427 65 403 l 616 403 b 668 455 645 403 668 427 l 668 544 b 616 596 668 573 645 596 z "},"—":{"ha":993,"x_min":0,"x_max":0,"o":"m 898 596 l 93 596 b 42 544 65 596 42 573 l 42 455 b 93 403 42 427 65 403 l 898 403 b 950 455 927 403 950 427 l 950 544 b 898 596 950 573 927 596 z "},"‘":{"ha":336,"x_min":0,"x_max":0,"o":"m 139 794 b 294 1093 272 794 206 937 b 139 794 -58 1008 27 794 z "},"“":{"ha":588,"x_min":0,"x_max":0,"o":"m 390 794 b 545 1093 523 794 457 937 b 390 794 193 1008 278 794 z m 139 794 b 294 1093 272 794 207 937 b 139 794 -58 1008 27 794 z "},"„":{"ha":588,"x_min":0,"x_max":0,"o":"m 197 206 b 42 -93 64 206 129 62 b 197 206 394 -8 309 206 z m 447 206 b 293 -93 315 206 380 62 b 447 206 645 -8 560 206 z "},"†":{"ha":481,"x_min":0,"x_max":0,"o":"m 411 670 l 293 670 l 293 751 b 266 778 293 766 281 778 l 214 778 b 187 751 199 778 187 766 l 187 670 l 69 670 b 42 643 54 670 42 658 l 42 590 b 69 563 42 575 54 563 l 187 563 l 187 221 b 214 194 187 206 199 194 l 266 194 b 293 221 281 194 293 206 l 293 563 l 411 563 b 438 590 426 563 438 575 l 438 643 b 411 670 438 658 426 670 z "},"…":{"ha":786,"x_min":0,"x_max":0,"o":"m 136 206 b 136 14 10 206 10 14 b 136 206 263 14 263 206 z m 393 206 b 393 14 267 206 267 14 b 393 206 519 14 519 206 z m 650 206 b 650 14 524 206 524 14 b 650 206 776 14 776 206 z "},"‰":{"ha":2206,"x_min":0,"x_max":0,"o":"m 1030 986 l 891 986 b 791 913 851 986 806 953 l 488 86 b 535 14 474 47 494 14 l 673 14 b 772 86 713 14 758 47 l 1075 913 b 1030 986 1090 953 1069 986 z m 620 743 b 331 986 620 877 490 986 b 42 743 171 986 42 877 b 331 500 42 609 171 500 b 620 743 490 500 620 609 z m 331 517 b 300 743 314 517 300 616 b 330 969 300 869 313 969 b 361 743 347 969 361 869 b 331 517 361 616 348 517 z m 1233 500 b 944 257 1073 500 944 391 b 1233 14 944 122 1073 14 b 1522 257 1393 14 1522 122 b 1233 500 1522 391 1393 500 z m 1233 31 b 1202 257 1216 31 1202 130 b 1232 483 1202 384 1215 483 b 1264 257 1249 483 1264 384 b 1233 31 1264 130 1250 31 z m 1875 500 b 1586 257 1715 500 1586 391 b 1875 14 1586 122 1715 14 b 2164 257 2034 14 2164 122 b 1875 500 2164 391 2034 500 z m 1875 31 b 1844 257 1858 31 1844 130 b 1874 483 1844 384 1857 483 b 1905 257 1891 483 1905 384 b 1875 31 1905 130 1892 31 z "},"€":{"ha":1142,"x_min":0,"x_max":0,"o":"m 1022 408 l 797 408 b 690 303 714 408 693 361 b 644 35 682 145 664 35 b 593 445 613 35 596 232 l 710 445 b 717 452 714 445 717 449 l 717 466 b 710 473 717 470 714 473 l 593 473 b 593 527 593 491 593 509 l 710 527 b 717 534 714 527 717 530 l 717 547 b 710 554 717 551 714 554 l 593 554 b 644 965 596 767 613 965 b 690 696 664 965 682 855 b 797 591 693 638 714 591 l 1022 591 b 1079 719 1078 591 1132 612 b 644 992 999 881 834 992 b 167 554 348 992 189 781 l 49 554 b 42 547 45 554 42 551 l 42 534 b 49 527 42 530 45 527 l 165 527 b 165 473 164 509 164 491 l 49 473 b 42 466 45 473 42 470 l 42 452 b 49 445 42 449 45 445 l 167 445 b 644 7 189 219 348 7 b 1079 280 834 7 999 118 b 1022 408 1132 387 1078 408 z "},"™":{"ha":549,"x_min":0,"x_max":0,"o":"m 485 986 l 423 986 b 421 985 422 986 421 985 l 367 806 l 318 965 b 290 986 315 976 302 986 l 43 986 b 42 985 42 986 42 985 l 42 982 b 43 981 42 981 42 981 l 98 981 l 98 821 b 119 800 98 809 108 800 l 160 800 b 181 821 171 800 181 809 l 181 981 l 227 981 l 227 801 b 229 800 227 800 228 800 l 231 800 b 232 801 232 800 232 800 l 232 973 l 279 821 b 307 800 282 809 295 800 l 369 800 b 370 801 369 800 370 800 l 423 973 l 423 821 b 444 800 423 809 432 800 l 485 800 b 506 821 497 800 506 809 l 506 965 b 485 986 506 976 497 986 z "},"":{"ha":2122,"x_min":0,"x_max":0,"o":"m 1530 -84 l 1304 -84 b 1235 -188 1222 -84 1217 -131 b 1281 -453 1281 -345 1302 -453 b 1030 111 1216 -453 1048 52 l 801 861 b 656 972 783 922 717 972 l 333 972 b 323 965 329 972 325 969 l 31 7 b 36 0 30 3 32 0 l 49 0 b 58 7 53 0 57 3 l 131 245 l 555 245 l 596 111 b 1291 -480 652 -74 868 -480 b 1631 -211 1481 -480 1608 -371 b 1530 -84 1646 -105 1586 -84 z m 139 272 l 343 939 l 547 272 l 139 272 z m 1645 972 l 1213 972 b 1102 861 1152 972 1102 922 l 1102 111 b 1213 0 1102 50 1152 0 l 1645 0 b 1645 972 2241 0 2239 972 z m 1645 92 b 1634 49 1645 75 1645 60 b 1590 27 1624 36 1608 27 b 1536 81 1561 27 1536 52 l 1536 891 b 1590 945 1536 921 1561 945 b 1634 924 1608 945 1624 937 b 1645 891 1641 914 1645 903 z "},"":{"ha":1925,"x_min":0,"x_max":0,"o":"m 1530 -84 l 1304 -84 b 1235 -188 1222 -84 1217 -131 b 1281 -453 1281 -345 1302 -453 b 1030 111 1216 -453 1048 52 l 801 861 b 656 972 783 922 717 972 l 333 972 b 324 965 329 972 325 969 l 31 7 b 36 0 30 3 32 0 l 49 0 b 58 7 53 0 57 3 l 131 245 l 555 245 l 596 111 b 1291 -480 652 -74 868 -480 b 1631 -211 1481 -480 1608 -371 b 1530 -84 1647 -105 1586 -84 z m 139 272 l 343 939 l 547 272 z m 1888 27 l 1536 27 l 1536 861 b 1425 972 1536 922 1486 972 l 1213 972 b 1102 861 1152 972 1102 922 l 1102 111 b 1213 0 1102 50 1152 0 l 1888 0 b 1895 7 1892 0 1895 3 l 1895 20 b 1888 27 1895 24 1892 27 z "},"":{"ha":1575,"x_min":0,"x_max":0,"o":"m 1422 -84 l 1197 -84 b 1158 -188 1114 -84 1123 -140 b 1237 -393 1250 -316 1258 -393 b 1030 111 1172 -393 1048 52 l 801 861 b 656 972 783 922 717 972 l 333 972 b 324 965 329 972 325 969 l 31 7 b 36 0 30 3 32 0 l 49 0 b 58 7 53 0 57 3 l 131 245 l 555 245 l 596 111 b 1235 -480 652 -74 812 -480 b 1524 -211 1425 -480 1500 -371 b 1422 -84 1539 -105 1478 -84 z m 139 272 l 343 939 l 547 272 z m 1433 972 l 1222 972 b 1110 861 1160 972 1110 922 l 1110 111 b 1222 0 1110 50 1160 0 l 1433 0 b 1545 111 1494 0 1545 50 l 1545 861 b 1433 972 1545 922 1494 972 z "},"":{"ha":1956,"x_min":0,"x_max":0,"o":"m 1530 -84 l 1305 -84 b 1234 -188 1221 -84 1217 -131 b 1281 -453 1282 -345 1302 -453 b 1030 111 1216 -453 1048 52 l 801 861 b 656 972 783 922 717 972 l 333 972 b 324 965 329 972 325 969 l 31 7 b 36 0 30 3 32 0 l 49 0 b 58 7 53 0 57 3 l 131 245 l 555 245 l 596 111 b 1291 -480 652 -74 868 -480 b 1631 -211 1481 -480 1608 -371 b 1530 -84 1646 -105 1586 -84 z m 139 272 l 343 939 l 547 272 z m 1918 972 l 1905 972 b 1898 965 1901 972 1898 969 l 1898 53 l 1588 861 b 1434 972 1565 922 1495 972 l 1109 972 b 1102 965 1105 972 1102 969 l 1102 7 b 1109 0 1102 3 1105 0 l 1122 0 b 1129 7 1126 0 1129 3 l 1129 925 l 1441 111 b 1595 0 1464 50 1534 0 l 1918 0 b 1925 7 1922 0 1925 3 l 1925 965 b 1918 972 1925 969 1922 972 z "},"":{"ha":2144,"x_min":0,"x_max":0,"o":"m 1530 -84 l 1304 -84 b 1235 -188 1222 -84 1217 -131 b 1281 -453 1281 -345 1302 -453 b 1030 111 1216 -453 1048 52 l 801 861 b 656 972 783 922 717 972 l 333 972 b 324 965 329 972 325 969 l 31 7 b 36 0 30 3 32 0 l 49 0 b 58 7 53 0 57 3 l 131 245 l 555 245 l 596 111 b 1291 -480 652 -74 868 -480 b 1631 -211 1481 -480 1608 -371 b 1530 -84 1646 -105 1586 -84 z m 139 272 l 343 939 l 547 272 z m 2100 111 l 1914 480 b 1645 972 2163 625 2072 972 l 1213 972 b 1102 861 1152 972 1102 922 l 1102 111 b 1213 0 1102 50 1152 0 l 1425 0 b 1536 111 1486 0 1536 50 l 1536 372 l 1666 111 b 1833 0 1697 50 1771 0 l 2044 0 b 2100 111 2106 0 2131 51 z m 1645 510 b 1634 466 1645 492 1645 477 b 1590 445 1624 453 1608 445 b 1536 499 1561 445 1536 469 l 1536 891 b 1590 945 1536 921 1561 945 b 1634 924 1608 945 1624 937 b 1645 891 1641 914 1645 903 z "},"":{"ha":2063,"x_min":0,"x_max":0,"o":"m 1530 -84 l 1305 -84 b 1235 -188 1222 -84 1217 -131 b 1281 -453 1281 -345 1302 -453 b 1030 111 1216 -453 1048 52 l 801 861 b 656 972 783 922 717 972 l 333 972 b 324 965 329 972 325 969 l 31 7 b 36 0 30 3 32 0 l 49 0 b 58 7 53 0 57 3 l 131 245 l 555 245 l 596 111 b 1291 -480 652 -74 869 -480 b 1631 -211 1481 -480 1608 -371 b 1530 -84 1647 -105 1586 -84 z m 139 272 l 343 939 l 547 272 z m 1857 486 b 1713 530 1815 503 1766 517 b 1476 739 1536 575 1480 659 b 1563 932 1471 834 1517 931 b 1629 680 1602 933 1646 870 b 1718 576 1623 623 1635 576 l 1944 576 b 2021 703 2000 576 2056 597 b 1548 972 1955 900 1737 975 b 1094 697 1320 969 1120 852 b 1257 486 1077 591 1157 527 b 1401 442 1299 469 1349 455 b 1639 233 1578 397 1635 314 b 1551 40 1643 138 1598 41 b 1486 292 1512 40 1468 102 b 1396 396 1491 350 1479 396 l 1171 396 b 1093 269 1115 396 1056 375 b 2020 275 1247 -165 1980 -7 b 1857 486 2035 382 1957 446 z "},"":{"ha":1990,"x_min":0,"x_max":0,"o":"m 1530 -84 l 1304 -84 b 1235 -188 1222 -84 1217 -131 b 1281 -453 1281 -345 1302 -453 b 1030 111 1216 -453 1048 52 l 801 861 b 656 972 783 922 717 972 l 333 972 b 324 965 329 972 325 969 l 31 7 b 36 0 30 3 32 0 l 49 0 b 58 7 53 0 57 3 l 131 245 l 555 245 l 596 111 b 1291 -480 652 -74 869 -480 b 1631 -211 1481 -480 1608 -371 b 1530 -84 1647 -105 1586 -84 z m 139 272 l 343 939 l 547 272 z m 1952 972 l 946 972 b 939 965 942 972 939 969 l 939 952 b 946 945 939 948 942 945 l 1232 945 l 1232 111 b 1343 0 1232 50 1282 0 l 1555 0 b 1666 111 1616 0 1666 50 l 1666 945 l 1952 945 b 1959 952 1956 945 1959 948 l 1959 965 b 1952 972 1959 969 1956 972 z "},"":{"ha":1963,"x_min":0,"x_max":0,"o":"m 1530 -84 l 1304 -84 b 1234 -188 1221 -84 1217 -131 b 1281 -453 1281 -345 1302 -453 b 1030 111 1216 -453 1048 52 l 801 861 b 656 972 782 922 717 972 l 333 972 b 324 965 329 972 325 969 l 31 7 b 36 0 30 3 32 0 l 49 0 b 58 7 53 0 57 3 l 131 245 l 555 245 l 596 111 b 1291 -480 652 -74 868 -480 b 1631 -211 1481 -480 1608 -371 b 1530 -84 1646 -105 1586 -84 z m 139 272 l 343 939 l 546 272 z m 1927 972 l 1914 972 b 1903 965 1911 972 1905 969 l 1609 519 l 1419 861 b 1246 972 1385 922 1307 972 l 1034 972 b 985 861 973 972 951 922 l 1192 486 l 1192 111 b 1304 0 1192 50 1242 0 l 1515 0 b 1627 111 1577 0 1627 50 l 1627 486 l 1621 496 l 1930 965 b 1927 972 1932 969 1931 972 z "},"":{"ha":2107,"x_min":0,"x_max":0,"o":"m 1530 -84 l 1304 -84 b 1235 -188 1222 -84 1217 -131 b 1281 -453 1281 -345 1302 -453 b 1030 111 1216 -453 1048 52 l 801 861 b 656 972 783 922 717 972 l 333 972 b 324 965 329 972 325 969 l 31 7 b 36 0 30 3 32 0 l 49 0 b 58 7 53 0 57 3 l 131 245 l 555 245 l 596 111 b 1291 -480 652 -74 869 -480 b 1631 -211 1481 -480 1608 -371 b 1530 -84 1647 -105 1586 -84 z m 139 272 l 343 939 l 547 272 z m 2064 111 l 1754 724 l 2001 965 b 2001 972 2005 969 2005 972 l 1988 972 b 1974 965 1984 972 1978 969 l 1563 563 l 1550 552 l 1550 861 b 1438 972 1550 922 1500 972 l 1227 972 b 1115 861 1165 972 1115 922 l 1115 111 b 1227 0 1115 50 1165 0 l 1438 0 b 1550 111 1500 0 1550 50 l 1550 271 l 1629 111 b 1796 0 1660 50 1735 0 l 2008 0 b 2064 111 2069 0 2095 51 z "},"":{"ha":1597,"x_min":0,"x_max":0,"o":"m 1561 112 l 1332 861 b 1186 972 1314 922 1248 972 l 864 972 b 855 965 860 972 856 969 l 562 7 b 567 0 561 3 563 0 l 580 0 b 589 7 584 0 588 3 l 662 245 l 1086 245 l 1127 112 b 1272 0 1145 50 1211 0 l 1484 0 b 1561 112 1545 0 1580 50 z m 670 272 l 874 939 l 1078 272 z m 990 -65 l 764 -65 b 658 -169 682 -65 661 -111 b 611 -434 650 -325 632 -434 b 611 1425 457 -434 448 1424 b 658 1159 632 1425 650 1316 b 764 1056 661 1102 682 1056 l 990 1056 b 1046 1182 1046 1056 1099 1077 b 611 1452 967 1342 802 1452 b 611 -461 -172 1452 -154 -461 b 1046 -192 802 -461 967 -351 b 990 -65 1099 -86 1046 -65 z "},"":{"ha":1557,"x_min":0,"x_max":0,"o":"m 1448 396 l 1222 396 b 1116 292 1140 396 1119 350 b 1069 27 1108 136 1090 27 b 1069 945 1002 27 1002 945 b 1116 680 1090 945 1108 837 b 1222 576 1119 623 1140 576 l 1448 576 b 1504 703 1504 576 1557 597 b 1069 972 1425 862 1260 972 b 1069 0 430 972 430 0 b 1504 269 1260 0 1425 110 b 1448 396 1557 375 1504 396 z m 990 -65 l 764 -65 b 658 -169 681 -65 661 -111 b 611 -434 649 -325 632 -434 b 611 1425 457 -434 448 1424 b 658 1159 632 1425 649 1316 b 764 1056 661 1102 681 1056 l 990 1056 b 1046 1182 1045 1056 1099 1077 b 611 1452 966 1342 802 1452 b 611 -461 -172 1452 -154 -461 b 1046 -192 802 -461 966 -351 b 990 -65 1099 -86 1045 -65 z "},"":{"ha":1599,"x_min":0,"x_max":0,"o":"m 990 -65 l 764 -65 b 658 -169 682 -65 661 -111 b 611 -434 650 -325 632 -434 b 611 1425 457 -434 448 1424 b 658 1159 632 1425 650 1316 b 764 1056 661 1102 682 1056 l 990 1056 b 1046 1182 1046 1056 1099 1077 b 611 1452 967 1342 802 1452 b 611 -461 -172 1452 -154 -461 b 1046 -192 802 -461 967 -351 b 990 -65 1099 -86 1046 -65 z m 1457 972 l 1245 972 b 1134 861 1184 972 1134 922 l 1134 500 l 1026 500 l 1026 861 b 914 972 1026 922 975 972 l 702 972 b 591 861 641 972 591 922 l 591 112 b 702 0 591 50 641 0 l 914 0 b 1026 112 975 0 1026 50 l 1026 473 l 1134 473 l 1134 112 b 1245 0 1134 50 1184 0 l 1457 0 b 1568 112 1518 0 1568 50 l 1568 861 b 1457 972 1568 922 1518 972 z "},"":{"ha":1554,"x_min":0,"x_max":0,"o":"m 1511 112 l 1201 724 l 1201 723 l 1201 724 l 1201 724 l 1448 965 b 1448 972 1452 969 1452 972 l 1435 972 b 1421 965 1431 972 1425 969 l 1010 563 l 996 552 l 996 861 b 885 972 996 922 946 972 l 673 972 b 562 861 612 972 562 922 l 562 112 b 673 0 562 50 612 0 l 885 0 b 996 112 946 0 996 50 l 996 272 l 1076 112 b 1243 0 1106 50 1182 0 l 1455 0 b 1511 112 1516 0 1542 51 z m 990 -65 l 764 -65 b 658 -169 681 -65 661 -111 b 611 -434 649 -325 631 -434 b 611 1425 457 -434 448 1424 b 658 1159 631 1425 649 1316 b 764 1056 661 1102 681 1056 l 990 1056 b 1046 1182 1046 1056 1099 1077 b 611 1452 966 1342 801 1452 b 611 -461 -172 1452 -154 -461 b 1046 -192 802 -461 966 -351 b 990 -65 1099 -86 1046 -65 z "},"":{"ha":1564,"x_min":0,"x_max":0,"o":"m 1047 972 b 561 486 779 972 561 755 b 1047 0 561 218 779 0 b 1533 486 1316 0 1533 218 b 1047 972 1533 755 1316 972 z m 1047 27 b 995 486 1019 27 995 233 b 1047 945 995 740 1019 945 b 1098 486 1075 945 1098 740 b 1047 27 1098 233 1075 27 z m 990 -65 l 764 -65 b 658 -169 681 -65 661 -111 b 611 -434 649 -325 632 -434 b 611 1425 457 -434 448 1424 b 658 1159 632 1425 649 1316 b 764 1056 661 1102 681 1056 l 990 1056 b 1046 1182 1045 1056 1099 1077 b 611 1452 966 1342 802 1452 b 611 -461 -172 1452 -154 -461 b 1046 -192 802 -461 966 -351 b 990 -65 1099 -86 1045 -65 z "},"":{"ha":1682,"x_min":0,"x_max":0,"o":"m 1126 11 l 465 11 l 465 456 l 670 456 b 677 463 674 456 677 460 l 677 477 b 670 484 677 481 674 484 l 465 484 l 465 929 l 817 929 b 824 936 821 929 824 932 l 824 949 b 817 956 824 953 821 956 l 142 956 b 31 844 81 956 31 906 l 31 95 b 142 -16 31 34 81 -16 l 1126 -16 b 1133 -9 1130 -16 1133 -13 l 1133 4 b 1126 11 1133 8 1130 11 z m 1646 95 l 1418 844 b 1272 956 1399 906 1333 956 l 949 956 b 940 949 945 956 941 953 l 667 57 b 672 50 666 53 668 50 l 685 50 b 694 57 689 50 693 53 l 747 229 l 1171 229 l 1212 95 b 1357 -16 1231 34 1296 -16 l 1569 -16 b 1646 95 1630 -16 1665 34 z m 755 256 l 959 923 l 1163 256 z "},"":{"ha":1910,"x_min":0,"x_max":0,"o":"m 1433 956 l 1001 956 b 890 845 940 956 890 906 l 890 169 b 1001 58 890 108 940 58 l 1433 58 b 1433 956 2030 58 2028 956 z m 1433 150 b 1422 106 1433 132 1433 117 b 1379 85 1412 93 1396 85 b 1324 139 1349 85 1324 109 l 1324 875 b 1379 929 1324 904 1349 929 b 1422 907 1396 929 1412 921 b 1433 875 1429 898 1433 887 z m 1629 12 l 465 12 l 465 457 l 670 457 b 677 464 674 457 677 461 l 677 478 b 670 485 677 482 674 485 l 465 485 l 465 930 l 817 930 b 824 937 821 930 824 933 l 824 950 b 817 957 824 954 821 957 l 142 957 b 31 846 81 957 31 907 l 31 97 b 142 -15 31 35 81 -15 l 1629 -15 b 1636 -8 1632 -15 1636 -12 l 1636 5 b 1629 12 1636 9 1632 12 z "},"":{"ha":1714,"x_min":0,"x_max":0,"o":"m 1677 929 b 1684 936 1681 929 1684 932 l 1684 949 b 1677 956 1684 953 1681 956 l 1002 956 b 891 845 941 956 891 906 l 891 484 l 465 484 l 465 929 l 817 929 b 824 936 821 929 824 932 l 824 949 b 817 956 824 953 821 956 l 142 956 b 31 845 81 956 31 906 l 31 95 b 142 -16 31 34 81 -16 l 817 -16 b 824 -9 821 -16 824 -13 l 824 4 b 817 11 824 8 821 11 l 465 11 l 465 456 l 891 456 l 891 95 b 1002 -16 891 34 941 -16 l 1677 -16 b 1684 -9 1681 -16 1684 -13 l 1684 4 b 1677 11 1684 8 1681 11 l 1325 11 l 1325 456 l 1530 456 b 1537 463 1534 456 1537 460 l 1537 477 b 1530 484 1537 481 1534 484 l 1325 484 l 1325 929 z "},"":{"ha":1744,"x_min":0,"x_max":0,"o":"m 1161 11 l 465 11 l 465 456 l 670 456 b 677 463 674 456 677 460 l 677 477 b 670 484 677 481 674 484 l 465 484 l 465 929 l 817 929 b 824 936 821 929 824 932 l 824 949 b 817 956 824 953 821 956 l 142 956 b 31 845 81 956 31 906 l 31 95 b 142 -16 31 34 81 -16 l 1161 -16 b 1168 -9 1165 -16 1168 -13 l 1168 4 b 1161 11 1168 8 1165 11 z m 1707 956 l 1694 956 b 1687 949 1690 956 1687 953 l 1687 37 l 1377 844 b 1223 956 1353 906 1284 956 l 898 956 b 891 949 894 956 891 953 l 891 67 b 898 60 891 63 894 60 l 911 60 b 918 67 915 60 918 63 l 918 908 l 1230 95 b 1384 -16 1253 34 1322 -16 l 1707 -16 b 1714 -9 1711 -16 1714 -13 l 1714 949 b 1707 956 1714 953 1711 956 z "},"":{"ha":1932,"x_min":0,"x_max":0,"o":"m 1318 11 l 465 11 l 465 456 l 670 456 b 677 463 673 456 677 460 l 677 477 b 670 484 677 481 673 484 l 465 484 l 465 929 l 817 929 b 824 936 821 929 824 932 l 824 949 b 817 956 824 953 821 956 l 142 956 b 31 845 80 956 31 906 l 31 95 b 142 -16 31 34 80 -16 l 1318 -16 b 1325 -9 1322 -16 1325 -13 l 1325 4 b 1318 11 1325 8 1322 11 z m 1889 95 l 1703 464 b 1434 956 1952 609 1861 956 l 1002 956 b 890 845 941 956 890 906 l 890 169 b 1002 58 890 108 941 58 l 1213 58 b 1325 169 1275 58 1325 108 l 1325 356 l 1454 95 b 1621 -16 1485 34 1560 -16 l 1833 -16 b 1889 95 1895 -16 1920 34 z m 1434 493 b 1423 450 1434 476 1433 461 b 1379 429 1413 437 1397 429 b 1325 483 1349 429 1325 453 l 1325 875 b 1379 929 1325 904 1349 929 b 1423 907 1397 929 1413 921 b 1434 875 1430 898 1434 887 z "},"":{"ha":1756,"x_min":0,"x_max":0,"o":"m 1629 11 l 465 11 l 465 456 l 670 456 b 677 463 674 456 677 460 l 677 477 b 670 484 677 481 674 484 l 465 484 l 465 929 l 817 929 b 824 936 821 929 824 932 l 824 949 b 817 956 824 953 821 956 l 142 956 b 31 845 81 956 31 906 l 31 95 b 142 -16 31 34 81 -16 l 1629 -16 b 1636 -9 1632 -16 1636 -13 l 1636 4 b 1629 11 1636 8 1632 11 z m 1545 507 b 1401 547 1503 523 1453 535 b 1164 740 1224 589 1168 667 b 1252 919 1159 829 1205 918 b 1317 686 1290 919 1334 861 b 1406 590 1311 633 1323 590 l 1632 590 b 1709 707 1688 590 1745 609 b 1236 956 1643 890 1425 959 b 782 702 1008 953 808 845 b 946 507 765 604 845 544 b 1089 466 987 491 1037 479 b 1327 273 1267 424 1323 348 b 1239 95 1331 185 1286 96 b 1173 328 1200 94 1156 152 b 1084 423 1179 381 1167 423 l 859 423 b 781 307 803 423 744 404 b 1708 312 936 -95 1668 51 b 1545 507 1723 410 1645 469 z "},"":{"ha":1631,"x_min":0,"x_max":0,"o":"m 1593 956 l 142 956 b 31 845 81 956 31 906 l 31 95 b 142 -16 31 34 81 -16 l 817 -16 b 824 -9 821 -16 824 -13 l 824 4 b 817 11 824 8 821 11 l 465 11 l 465 456 l 670 456 b 677 463 674 456 677 460 l 677 477 b 670 484 677 481 674 484 l 465 484 l 465 929 l 873 929 l 873 95 b 984 -16 873 34 923 -16 l 1196 -16 b 1307 95 1257 -16 1307 34 l 1307 929 l 1593 929 b 1600 936 1597 929 1600 932 l 1600 949 b 1593 956 1600 953 1597 956 z "},"":{"ha":1871,"x_min":0,"x_max":0,"o":"m 1318 11 l 465 11 l 465 456 l 670 456 b 677 463 674 456 677 460 l 677 477 b 670 484 677 481 674 484 l 465 484 l 465 929 l 817 929 b 824 936 821 929 824 932 l 824 949 b 817 956 824 953 821 956 l 142 956 b 31 845 81 956 31 906 l 31 95 b 142 -16 31 34 81 -16 l 1318 -16 b 1325 -9 1322 -16 1325 -13 l 1325 4 b 1318 11 1325 8 1322 11 z m 1434 956 l 1002 956 b 891 845 941 956 891 906 l 891 169 b 1002 58 891 108 941 58 l 1214 58 b 1325 169 1275 58 1325 108 l 1325 298 l 1434 298 b 1434 956 1976 298 1975 956 z m 1434 390 b 1423 347 1434 373 1434 358 b 1379 325 1413 334 1397 325 b 1325 380 1349 325 1325 350 l 1325 875 b 1379 929 1325 904 1349 929 b 1423 907 1397 929 1413 921 b 1434 875 1430 898 1434 887 z "},"":{"ha":2110,"x_min":0,"x_max":0,"o":"m 1506 -63 l 1280 -63 b 1174 -167 1197 -63 1177 -109 b 1127 -431 1165 -323 1147 -431 b 1008 498 1050 -431 1009 34 l 1008 864 b 897 976 1008 926 958 976 l 685 976 b 574 864 624 976 574 926 l 574 503 l 465 503 l 465 864 b 354 976 465 926 415 976 l 142 976 b 31 864 81 976 31 926 l 31 115 b 142 4 31 54 81 4 l 354 4 b 465 115 415 4 465 54 l 465 476 l 574 476 l 574 115 b 576 91 574 107 575 99 b 1127 -459 600 -259 843 -459 b 1562 -189 1317 -459 1482 -349 b 1506 -63 1615 -84 1562 -63 z m 2074 115 l 1845 864 b 1700 976 1827 926 1761 976 l 1377 976 b 1368 969 1373 976 1369 973 l 1075 11 b 1080 4 1074 7 1076 4 l 1093 4 b 1102 11 1097 4 1101 7 l 1175 248 l 1599 248 l 1640 115 b 1785 4 1658 54 1724 4 l 1997 4 b 2074 115 2058 4 2093 54 z m 1183 276 l 1387 943 l 1591 276 z "},"":{"ha":1899,"x_min":0,"x_max":0,"o":"m 1505 -63 l 1280 -63 b 1173 -167 1197 -63 1176 -109 b 1127 -431 1165 -323 1147 -431 b 1008 498 1050 -431 1009 34 l 1008 864 b 896 976 1008 926 958 976 l 685 976 b 573 864 624 976 573 926 l 573 503 l 465 503 l 465 864 b 354 976 465 926 415 976 l 142 976 b 31 864 80 976 31 926 l 31 115 b 142 4 31 54 80 4 l 354 4 b 465 115 415 4 465 54 l 465 476 l 573 476 l 573 115 b 576 91 573 107 574 99 b 1127 -459 599 -259 843 -459 b 1562 -189 1317 -459 1482 -349 b 1505 -63 1615 -84 1561 -63 z m 1861 949 b 1868 956 1865 949 1868 952 l 1868 969 b 1861 976 1868 973 1865 976 l 1186 976 b 1075 864 1125 976 1075 926 l 1075 115 b 1186 4 1075 54 1125 4 l 1861 4 b 1868 11 1865 4 1868 7 l 1868 24 b 1861 31 1868 28 1865 31 l 1509 31 l 1509 476 l 1714 476 b 1721 483 1718 476 1721 479 l 1721 497 b 1714 503 1721 500 1718 503 l 1509 503 l 1509 949 z "},"":{"ha":1544,"x_min":0,"x_max":0,"o":"m 1186 4 l 1398 4 b 1509 115 1459 4 1509 54 l 1509 864 b 1398 976 1509 926 1459 976 l 1186 976 b 1075 864 1125 976 1075 926 l 1075 115 b 1186 4 1075 54 1125 4 z m 1436 -63 l 1211 -63 b 1104 -167 1127 -63 1107 -109 b 1127 -431 1096 -323 1147 -431 b 1008 498 1050 -431 1009 34 l 1008 864 b 897 976 1008 926 958 976 l 685 976 b 574 864 624 976 574 926 l 574 503 l 465 503 l 465 864 b 354 976 465 926 415 976 l 142 976 b 31 864 81 976 31 926 l 31 115 b 142 4 31 54 81 4 l 354 4 b 465 115 415 4 465 54 l 465 476 l 574 476 b 574 428 574 461 574 445 l 574 115 b 576 93 574 107 575 100 b 1127 -459 598 -258 843 -459 b 1492 -189 1317 -459 1413 -349 b 1436 -63 1545 -84 1492 -63 z "},"":{"ha":2076,"x_min":0,"x_max":0,"o":"m 1561 976 b 1075 490 1292 976 1075 758 b 1561 4 1075 221 1292 4 b 2047 490 1829 4 2047 221 b 1561 976 2047 758 1829 976 z m 1561 31 b 1509 490 1532 31 1509 236 b 1561 949 1509 743 1532 949 b 1612 490 1589 949 1612 743 b 1561 31 1612 236 1589 31 z m 1505 -63 l 1280 -63 b 1173 -167 1197 -63 1176 -109 b 1127 -431 1165 -323 1147 -431 b 1008 498 1050 -431 1009 34 l 1008 864 b 896 976 1008 926 958 976 l 685 976 b 573 864 624 976 573 926 l 573 503 l 465 503 l 465 864 b 354 976 465 926 415 976 l 142 976 b 31 864 80 976 31 926 l 31 115 b 142 4 31 54 80 4 l 354 4 b 465 115 415 4 465 54 l 465 476 l 573 476 l 573 115 b 576 91 573 107 574 99 b 1127 -459 599 -259 843 -459 b 1562 -189 1317 -459 1482 -349 b 1505 -63 1615 -84 1561 -63 z "},"":{"ha":2094,"x_min":0,"x_max":0,"o":"m 2058 104 l 1830 853 b 1684 965 1811 914 1745 965 l 1361 965 b 1352 958 1357 965 1353 962 l 1059 -1 b 1064 -8 1058 -4 1060 -8 l 1077 -8 b 1086 -1 1081 -8 1085 -4 l 1159 237 l 1584 237 l 1624 104 b 1769 -8 1643 43 1708 -8 l 1981 -8 b 2058 104 2042 -8 2077 43 z m 1167 264 l 1371 932 l 1575 264 z m 1503 -74 l 1278 -74 b 1225 -178 1195 -74 1198 -120 b 1314 -443 1297 -334 1335 -443 b 1057 -47 1271 -443 1143 -215 b 984 94 1033 -1 1008 47 b 979 104 982 97 981 101 l 670 716 l 917 958 b 917 965 920 962 921 965 l 903 965 b 889 958 900 965 893 962 l 479 556 l 465 544 l 465 853 b 354 965 465 914 415 965 l 142 965 b 31 853 81 965 31 914 l 31 104 b 142 -8 31 43 81 -8 l 354 -8 b 465 104 415 -8 465 43 l 465 264 l 545 104 b 556 85 548 98 552 91 b 1328 -470 659 -112 932 -470 b 1625 -201 1519 -470 1627 -360 b 1503 -74 1623 -95 1559 -74 z "},"":{"ha":1913,"x_min":0,"x_max":0,"o":"m 1503 -74 l 1278 -74 b 1225 -178 1195 -74 1198 -120 b 1314 -443 1297 -334 1335 -443 b 1057 -47 1270 -443 1143 -215 b 984 94 1033 -1 1008 47 b 979 104 982 97 981 101 l 670 716 l 669 715 l 669 716 l 670 716 l 916 958 b 917 965 920 962 920 965 l 903 965 b 889 958 900 965 893 962 l 479 556 l 465 544 l 465 853 b 354 965 465 914 415 965 l 142 965 b 31 853 81 965 31 914 l 31 104 b 142 -8 31 43 81 -8 l 354 -8 b 465 104 415 -8 465 43 l 465 264 l 545 104 b 556 85 548 97 552 91 b 1328 -470 660 -112 932 -470 b 1625 -201 1519 -470 1627 -360 b 1503 -74 1623 -95 1559 -74 z m 1875 965 l 1862 965 b 1855 958 1858 965 1855 962 l 1855 45 l 1683 494 l 1683 494 l 1545 853 b 807 1445 1475 1039 1229 1445 b 486 1176 616 1445 498 1335 b 597 1049 479 1070 541 1049 l 822 1049 b 885 1153 905 1049 906 1096 b 819 1418 826 1309 798 1418 b 1066 965 868 1418 996 1131 l 1066 965 b 1059 958 1062 965 1059 962 l 1059 -1 b 1066 -8 1059 -4 1062 -8 l 1079 -8 b 1086 -1 1083 -8 1086 -4 l 1086 915 b 1099 884 1091 904 1095 893 l 1248 494 l 1249 494 l 1398 104 b 1552 -8 1421 43 1491 -8 l 1875 -8 b 1882 -1 1879 -8 1882 -4 l 1882 958 b 1875 965 1882 962 1879 965 z "},"":{"ha":2061,"x_min":0,"x_max":0,"o":"m 1503 -74 l 1278 -74 b 1225 -178 1195 -74 1198 -120 b 1314 -443 1297 -334 1335 -443 b 1057 -47 1271 -443 1143 -215 b 984 94 1033 -1 1008 47 b 979 104 982 97 981 101 l 670 716 l 917 958 b 917 965 920 962 921 965 l 903 965 b 889 958 900 965 893 962 l 479 556 l 465 544 l 465 853 b 354 965 465 914 415 965 l 142 965 b 31 853 81 965 31 914 l 31 104 b 142 -8 31 43 81 -8 l 354 -8 b 465 104 415 -8 465 43 l 465 264 l 545 104 b 556 85 548 98 552 91 b 1328 -470 659 -112 932 -470 b 1625 -201 1519 -470 1627 -360 b 1503 -74 1623 -95 1559 -74 z m 1545 965 b 1059 479 1277 965 1059 747 b 1545 -8 1059 210 1277 -8 b 2031 479 1813 -8 2031 210 b 1545 965 2031 747 1813 965 z m 1545 20 b 1493 479 1516 20 1493 225 b 1545 938 1493 732 1516 938 b 1596 479 1573 938 1596 732 b 1545 20 1596 225 1573 20 z "},"":{"ha":1589,"x_min":0,"x_max":0,"o":"m 1034 27 l 465 27 l 465 860 b 354 972 465 922 415 972 l 142 972 b 31 860 81 972 31 922 l 31 111 b 142 0 31 50 81 0 l 1034 0 b 1041 7 1038 0 1041 3 l 1041 20 b 1034 27 1041 24 1038 27 z m 1553 111 l 1324 860 b 1179 972 1305 922 1240 972 l 856 972 b 846 965 852 972 848 969 l 575 78 b 580 71 574 74 576 71 l 593 71 b 603 78 597 71 601 74 l 654 244 l 1078 244 l 1119 111 b 1264 0 1137 50 1203 0 l 1476 0 b 1553 111 1537 0 1572 50 z m 662 272 l 866 939 l 1070 272 z "},"":{"ha":1546,"x_min":0,"x_max":0,"o":"m 1509 27 l 465 27 l 465 860 b 354 972 465 922 415 972 l 142 972 b 31 860 81 972 31 922 l 31 111 b 142 0 31 50 81 0 l 1509 0 b 1516 7 1513 0 1516 3 l 1516 20 b 1509 27 1516 24 1513 27 z m 638 85 l 1069 85 b 1069 972 1666 85 1664 972 l 638 972 b 526 860 576 972 526 922 l 526 197 b 638 85 526 135 576 85 z m 961 890 b 1015 945 961 920 985 945 b 1058 923 1033 945 1048 936 b 1069 890 1065 914 1069 903 l 1069 177 b 1058 134 1069 160 1069 145 b 1015 112 1048 121 1033 112 b 961 167 985 112 961 137 z "},"":{"ha":1350,"x_min":0,"x_max":0,"o":"m 1306 27 l 465 27 l 465 860 b 354 972 465 922 415 972 l 142 972 b 31 860 81 972 31 922 l 31 111 b 142 0 31 50 81 0 l 1306 0 b 1313 7 1310 0 1313 3 l 1313 20 b 1306 27 1313 24 1310 27 z m 1313 945 b 1320 952 1317 945 1320 948 l 1320 965 b 1313 972 1320 969 1317 972 l 638 972 b 526 860 576 972 526 922 l 526 188 b 638 76 526 126 576 76 l 1313 76 b 1320 82 1317 76 1320 79 l 1320 96 b 1313 103 1320 100 1317 103 l 961 103 l 961 472 l 1166 472 b 1173 479 1169 472 1173 476 l 1173 493 b 1166 500 1173 496 1169 500 l 961 500 l 961 945 z "},"":{"ha":1524,"x_min":0,"x_max":0,"o":"m 1486 27 l 465 27 l 465 860 b 354 972 465 922 415 972 l 142 972 b 31 860 81 972 31 922 l 31 111 b 142 0 31 50 81 0 l 1486 0 b 1493 7 1490 0 1493 3 l 1493 20 b 1486 27 1493 24 1490 27 z m 1007 71 b 1493 522 1275 71 1493 273 b 1007 972 1493 770 1275 972 b 521 522 738 972 521 770 b 1007 71 521 273 738 71 z m 1007 947 b 1058 522 1035 947 1058 756 b 1007 96 1058 287 1035 96 b 955 522 978 96 955 287 b 1007 947 955 756 978 947 z "},"":{"ha":1535,"x_min":0,"x_max":0,"o":"m 1392 972 l 1181 972 b 1069 860 1120 972 1069 922 l 1069 140 b 1018 92 1069 113 1046 92 b 966 140 989 92 966 113 l 966 860 b 855 972 966 922 916 972 l 643 972 b 532 860 582 972 532 922 l 532 519 b 1018 67 532 270 750 67 b 1504 519 1285 67 1504 270 l 1504 860 b 1392 972 1504 922 1453 972 z m 1486 27 l 465 27 l 465 860 b 354 972 465 922 415 972 l 142 972 b 31 860 81 972 31 922 l 31 111 b 142 0 31 50 81 0 l 1486 0 b 1493 7 1490 0 1493 3 l 1493 20 b 1486 27 1493 24 1490 27 z "},"":{"ha":1531,"x_min":0,"x_max":0,"o":"m 1487 111 l 1178 723 l 1425 965 b 1425 972 1429 969 1429 972 l 1411 972 b 1397 965 1408 972 1401 969 l 990 567 l 973 552 l 973 860 b 861 972 973 922 923 972 l 650 972 b 538 860 589 972 538 922 l 538 185 b 650 74 538 124 589 74 l 861 74 b 973 185 923 74 973 124 l 973 271 l 1053 111 b 1220 0 1083 50 1158 0 l 1431 0 b 1487 111 1492 0 1518 50 z m 966 27 l 465 27 l 465 860 b 354 972 465 922 415 972 l 142 972 b 31 860 81 972 31 922 l 31 111 b 142 0 31 50 81 0 l 966 0 b 973 7 970 0 973 3 l 973 20 b 966 27 973 24 970 27 z "},"":{"ha":1363,"x_min":0,"x_max":0,"o":"m 1325 27 l 465 27 l 465 860 b 354 972 465 922 415 972 l 142 972 b 31 860 81 972 31 922 l 31 111 b 142 0 31 50 81 0 l 1325 0 b 1332 7 1329 0 1332 3 l 1332 20 b 1325 27 1332 24 1329 27 z m 1325 99 l 973 99 l 973 860 b 861 972 973 922 923 972 l 650 972 b 538 860 589 972 538 922 l 538 184 b 650 73 538 122 589 73 l 1325 73 b 1332 80 1329 73 1332 76 l 1332 92 b 1325 99 1332 96 1329 99 z "},"":{"ha":1940,"x_min":0,"x_max":0,"o":"m 1311 -67 l 1086 -67 b 1023 -170 1002 -67 1001 -113 b 1089 -435 1082 -327 1110 -435 b 849 0 1042 -435 921 -168 b 854 7 852 1 854 4 l 854 965 b 847 972 854 969 850 972 l 833 972 b 827 965 830 972 827 969 l 827 55 b 809 98 820 72 814 86 l 779 178 l 517 861 b 363 972 494 922 424 972 l 38 972 b 31 965 34 972 31 969 l 31 7 b 38 0 31 3 34 0 l 51 0 b 58 7 55 0 58 3 l 58 925 l 225 488 l 225 488 l 362 129 b 1101 -462 433 -56 678 -462 b 1421 -193 1291 -462 1410 -353 b 1311 -67 1429 -87 1367 -67 z m 1463 972 l 1032 972 b 920 861 971 972 920 922 l 920 111 b 1032 0 920 50 971 0 l 1463 0 b 1463 972 2060 0 2058 972 z m 1463 92 b 1452 49 1463 74 1463 60 b 1409 27 1442 36 1427 27 b 1355 81 1379 27 1355 52 l 1355 891 b 1409 945 1355 921 1379 945 b 1452 923 1427 945 1442 937 b 1463 891 1459 914 1463 903 z "},"":{"ha":1899,"x_min":0,"x_max":0,"o":"m 1311 -67 l 1086 -67 b 1023 -170 1002 -67 1002 -113 b 1089 -435 1082 -327 1110 -435 b 849 0 1042 -435 921 -168 b 854 7 852 1 854 4 l 854 965 b 847 972 854 969 851 972 l 833 972 b 826 965 830 972 826 969 l 826 55 b 809 98 820 72 814 86 l 779 178 l 517 861 b 363 972 494 922 424 972 l 38 972 b 31 965 34 972 31 969 l 31 7 b 38 0 31 3 34 0 l 51 0 b 58 7 55 0 58 3 l 58 925 l 225 488 l 225 488 l 362 129 b 366 119 364 126 365 123 l 369 111 b 372 105 370 109 371 107 b 1101 -462 453 -89 696 -462 b 1421 -193 1291 -462 1410 -353 b 1311 -67 1429 -87 1367 -67 z m 1766 501 l 1510 501 b 1409 440 1488 501 1409 498 b 1516 143 1409 320 1565 259 b 1361 181 1434 -51 1375 27 b 1400 945 1337 443 1350 945 b 1446 680 1421 945 1438 837 b 1553 576 1449 623 1470 576 l 1778 576 b 1835 703 1834 576 1888 597 b 1400 972 1755 862 1591 972 b 1400 0 760 972 760 0 b 1869 374 1591 0 1869 137 b 1766 501 1869 493 1822 501 z "},"":{"ha":1774,"x_min":0,"x_max":0,"o":"m 1737 972 l 1723 972 b 1716 965 1719 972 1716 969 l 1716 53 l 1551 484 l 1414 843 b 675 1435 1343 1028 1098 1435 b 355 1165 485 1435 366 1325 b 465 1039 347 1059 409 1039 l 691 1039 b 753 1143 774 1039 775 1085 b 687 1407 694 1299 666 1407 b 927 972 735 1407 855 1141 b 920 965 923 972 920 969 l 920 7 b 927 0 920 3 923 0 l 940 0 b 947 7 944 0 947 3 l 947 922 b 967 874 955 904 962 887 l 997 794 l 1259 111 b 1413 0 1283 50 1352 0 l 1737 0 b 1743 7 1740 0 1743 3 l 1743 965 b 1737 972 1743 969 1740 972 z m 1311 -67 l 1085 -67 b 1023 -170 1002 -67 1001 -113 b 1089 -435 1082 -327 1110 -435 b 849 0 1042 -435 921 -168 b 854 7 852 1 854 4 l 854 965 b 847 972 854 969 850 972 l 833 972 b 827 965 830 972 827 969 l 827 55 b 809 98 820 72 814 86 l 780 176 l 517 861 b 363 972 493 922 424 972 l 38 972 b 31 965 34 972 31 969 l 31 7 b 38 0 31 3 34 0 l 51 0 b 58 7 55 0 58 3 l 58 924 l 225 488 l 225 488 l 362 129 b 1101 -462 433 -56 678 -462 b 1421 -193 1291 -462 1410 -353 b 1311 -67 1429 -87 1367 -67 z "},"":{"ha":1739,"x_min":0,"x_max":0,"o":"m 1314 -67 l 1089 -67 b 1026 -170 1006 -67 1005 -113 b 1092 -435 1085 -327 1113 -435 b 852 2 1045 -435 923 -167 b 854 7 853 3 854 5 l 854 880 b 847 887 854 884 851 887 l 833 887 b 827 880 830 887 827 884 l 827 62 b 812 98 821 76 817 88 l 663 488 l 660 488 l 517 861 b 363 972 494 922 424 972 l 38 972 b 31 965 34 972 31 969 l 31 7 b 38 0 31 3 34 0 l 51 0 b 58 7 55 0 58 3 l 58 925 l 370 111 b 386 81 374 101 379 90 b 1104 -462 476 -118 715 -462 b 1425 -193 1294 -462 1413 -353 b 1314 -67 1432 -87 1370 -67 z m 1702 972 l 695 972 b 688 965 692 972 688 969 l 688 952 b 695 945 688 948 692 945 l 981 945 l 981 111 b 1093 0 981 50 1032 0 l 1304 0 b 1416 111 1366 0 1416 50 l 1416 945 l 1702 945 b 1709 952 1706 945 1709 948 l 1709 965 b 1702 972 1709 969 1706 972 z "},"":{"ha":1924,"x_min":0,"x_max":0,"o":"m 1406 972 b 920 486 1138 972 920 754 b 1406 0 920 218 1138 0 b 1893 486 1675 0 1893 218 b 1406 972 1893 754 1675 972 z m 1406 27 b 1355 486 1378 27 1355 232 b 1406 945 1355 739 1378 945 b 1458 486 1435 945 1458 739 b 1406 27 1458 233 1435 27 z m 1311 -67 l 1086 -67 b 1023 -170 1002 -67 1002 -113 b 1089 -435 1082 -327 1110 -435 b 849 0 1042 -435 921 -168 b 854 7 852 1 854 4 l 854 965 b 847 972 854 969 850 972 l 833 972 b 826 965 830 972 826 969 l 826 55 b 809 98 820 72 814 86 l 779 178 l 517 861 b 363 972 494 922 424 972 l 38 972 b 31 965 34 972 31 969 l 31 7 b 38 0 31 3 34 0 l 51 0 b 58 7 55 0 58 3 l 58 925 l 225 488 l 225 488 l 362 129 b 1101 -462 433 -56 678 -462 b 1421 -193 1291 -462 1410 -353 b 1311 -67 1429 -87 1367 -67 z "},"":{"ha":1392,"x_min":0,"x_max":0,"o":"m 1031 0 l 1243 0 b 1354 111 1304 0 1354 50 l 1354 861 b 1243 972 1354 922 1304 972 l 1031 972 b 920 861 970 972 920 922 l 920 111 b 1031 0 920 50 970 0 z m 1251 -67 l 1025 -67 b 963 -170 942 -67 942 -113 b 1089 -435 1021 -327 1110 -435 b 849 0 1042 -435 920 -168 b 853 7 852 1 853 4 l 853 965 b 846 972 853 969 850 972 l 833 972 b 826 965 829 972 826 969 l 826 55 b 809 97 820 71 814 85 l 776 183 l 660 488 l 517 861 b 362 972 493 922 424 972 l 38 972 b 31 965 34 972 31 969 l 31 7 b 38 0 31 3 34 0 l 51 0 b 57 7 54 0 57 3 l 57 925 l 225 488 l 225 488 l 362 129 b 1101 -462 432 -56 678 -462 b 1361 -193 1291 -462 1349 -353 b 1251 -67 1369 -87 1306 -67 z "},"":{"ha":1540,"x_min":0,"x_max":0,"o":"m 1432 396 l 1207 396 b 1100 292 1124 396 1103 349 b 1053 27 1092 135 1074 27 b 1003 483 1020 27 1003 254 b 1003 486 1003 484 1003 485 b 1003 489 1003 487 1003 488 b 1053 945 1003 717 1020 945 b 1100 680 1074 945 1092 837 b 1207 576 1103 623 1124 576 l 1432 576 b 1488 703 1488 576 1541 597 b 1053 972 1409 862 1244 972 b 779 895 943 972 852 943 b 517 972 703 944 614 972 b 31 486 248 972 31 754 b 517 0 31 218 248 0 b 779 77 614 0 704 28 b 1053 0 852 29 943 0 b 1488 269 1244 0 1409 110 b 1432 396 1541 375 1488 396 z m 517 27 b 465 486 488 27 465 232 b 517 945 465 739 488 945 b 568 486 545 945 568 739 b 517 27 568 232 545 27 z "},"":{"ha":1924,"x_min":0,"x_max":0,"o":"m 517 972 b 31 486 248 972 31 754 b 517 0 31 218 248 0 b 1003 486 785 0 1003 218 b 517 972 1003 754 785 972 z m 517 27 b 465 486 488 27 465 232 b 517 945 465 739 488 945 b 568 486 545 945 568 739 b 517 27 568 232 545 27 z m 1886 972 l 1872 972 b 1865 965 1868 972 1865 969 l 1865 53 l 1700 484 l 1563 843 b 825 1435 1493 1028 1247 1435 b 504 1165 634 1435 516 1325 b 614 1039 496 1059 558 1039 l 840 1039 b 902 1143 923 1039 924 1085 b 836 1407 844 1299 815 1407 b 1076 972 884 1407 1004 1141 b 1069 965 1072 972 1069 969 l 1069 7 b 1076 0 1069 3 1072 0 l 1090 0 b 1097 7 1093 0 1097 3 l 1097 922 b 1111 888 1102 910 1107 898 l 1408 111 b 1563 0 1432 50 1501 0 l 1886 0 b 1893 7 1889 0 1893 3 l 1893 965 b 1886 972 1893 969 1889 972 z "},"":{"ha":1571,"x_min":0,"x_max":0,"o":"m 1054 972 b 786 891 955 972 862 942 b 517 972 708 942 616 972 b 31 486 248 972 31 754 b 517 0 31 218 248 0 b 786 81 616 0 708 30 b 1054 0 862 30 955 0 b 1540 486 1323 0 1540 218 b 1054 972 1540 754 1323 972 z m 517 27 b 465 486 488 27 465 232 b 517 945 465 739 488 945 b 568 486 545 945 568 739 b 517 27 568 232 545 27 z m 1054 27 b 1002 486 1026 27 1002 232 b 1054 945 1002 739 1026 945 b 1106 486 1083 945 1106 739 b 1054 27 1106 232 1083 27 z "},"":{"ha":2072,"x_min":0,"x_max":0,"o":"m 517 972 b 31 486 248 972 31 754 b 517 0 31 218 248 0 b 1003 486 785 0 1003 218 b 517 972 1003 754 785 972 z m 517 27 b 465 486 488 27 465 232 b 517 945 465 739 488 945 b 568 486 545 945 568 739 b 517 27 568 232 545 27 z m 1930 972 l 1718 972 b 1607 861 1657 972 1607 922 l 1607 79 b 1555 27 1607 50 1584 27 b 1504 79 1527 27 1504 50 l 1504 533 b 1507 830 1504 630 1507 745 b 954 1435 1507 1213 1252 1435 b 518 1165 763 1435 598 1325 b 575 1039 466 1059 519 1039 l 801 1039 b 907 1143 883 1039 904 1085 b 954 1407 915 1299 933 1407 b 1069 692 1019 1407 1058 1075 l 1069 486 b 1555 0 1069 219 1288 0 b 2041 486 1823 0 2041 219 l 2041 860 b 1930 972 2041 922 1991 972 z "},"":{"ha":2111,"x_min":0,"x_max":0,"o":"m 1003 486 b 517 972 1003 754 785 972 b 31 486 248 972 31 754 b 517 0 31 218 248 0 b 1003 486 785 0 1003 218 z m 465 486 b 517 945 465 739 488 945 b 568 486 545 945 568 739 b 517 27 568 232 545 27 b 465 486 488 27 465 232 z m 2068 111 l 1882 480 b 1612 972 2131 625 2040 972 l 1181 972 b 1069 861 1120 972 1069 922 l 1069 202 b 957 -435 1056 -147 1017 -435 b 910 -170 936 -435 918 -327 b 803 -67 907 -113 886 -67 l 578 -67 b 521 -193 522 -67 469 -87 b 957 -462 601 -353 766 -462 b 1509 143 1255 -462 1509 -241 b 1507 365 1509 207 1508 287 l 1633 111 b 1800 0 1664 50 1739 0 l 2012 0 b 2068 111 2073 0 2099 50 z m 1612 509 b 1601 466 1612 492 1612 477 b 1558 445 1592 453 1576 445 b 1506 483 1534 445 1513 461 b 1506 495 1506 487 1506 491 l 1504 495 b 1504 499 1504 496 1504 497 l 1504 891 b 1558 945 1504 921 1528 945 b 1601 923 1576 945 1592 937 b 1612 891 1608 914 1612 903 z "},"":{"ha":2054,"x_min":0,"x_max":0,"o":"m 1912 972 l 1701 972 b 1590 861 1640 972 1590 922 l 1590 500 l 1481 500 l 1481 861 b 1369 972 1481 922 1431 972 l 1158 972 b 1046 861 1097 972 1046 922 l 1046 402 b 928 -440 1041 -32 1001 -440 b 881 -175 908 -440 890 -331 b 775 -71 878 -117 858 -71 l 549 -71 b 493 -198 494 -71 440 -92 b 928 -467 573 -357 738 -467 b 1480 96 1215 -467 1462 -261 b 1481 111 1481 101 1481 106 l 1481 473 l 1590 473 l 1590 111 b 1701 0 1590 50 1640 0 l 1912 0 b 2024 111 1974 0 2024 50 l 2024 861 b 1912 972 2024 922 1974 972 z m 574 972 l 142 972 b 31 861 81 972 31 922 l 31 111 b 142 0 31 50 81 0 l 354 0 b 465 111 415 0 465 50 l 465 314 l 574 314 b 574 972 1116 314 1115 972 z m 519 342 b 465 396 490 342 465 366 l 465 891 b 519 945 465 921 490 945 b 563 923 537 945 553 937 b 574 891 569 914 574 903 l 574 406 b 563 363 574 389 573 374 b 519 342 553 350 537 342 z "},"":{"ha":2144,"x_min":0,"x_max":0,"o":"m 1559 -91 l 1333 -91 b 1280 -195 1250 -91 1254 -137 b 1370 -460 1352 -351 1390 -460 b 1112 -64 1326 -460 1199 -232 b 843 480 1020 114 934 300 b 574 972 1092 625 1001 972 l 142 972 b 31 860 81 972 31 922 l 31 111 b 142 0 31 50 81 0 l 354 0 b 465 111 415 0 465 50 l 465 372 l 529 243 l 528 243 l 593 105 b 1384 -487 679 -80 962 -487 b 1680 -218 1574 -487 1683 -377 b 1559 -91 1679 -112 1614 -91 z m 574 509 b 563 466 574 492 573 477 b 520 445 553 453 537 445 b 465 499 490 445 465 469 l 465 890 b 520 945 465 920 490 945 b 563 923 537 945 553 936 b 574 890 569 914 574 903 z m 2108 111 l 1880 860 b 1734 972 1861 922 1795 972 l 1411 972 b 1402 965 1407 972 1403 969 l 1109 7 b 1114 0 1108 3 1110 0 l 1127 0 b 1137 7 1131 0 1135 3 l 1209 244 l 1633 244 l 1674 111 b 1820 0 1693 50 1758 0 l 2031 0 b 2108 111 2092 0 2127 50 z m 1218 272 l 1421 939 l 1625 272 z "},"":{"ha":1933,"x_min":0,"x_max":0,"o":"m 1559 -91 l 1333 -91 b 1280 -195 1251 -91 1254 -137 b 1370 -460 1353 -351 1391 -460 b 1112 -64 1326 -460 1199 -232 b 843 480 1020 114 934 300 b 574 972 1092 625 1001 972 l 142 972 b 31 860 81 972 31 922 l 31 111 b 142 0 31 50 81 0 l 354 0 b 465 111 415 0 465 50 l 465 372 l 529 243 l 528 243 l 593 105 b 1384 -487 680 -80 962 -487 b 1681 -218 1575 -487 1683 -377 b 1559 -91 1679 -112 1615 -91 z m 574 509 b 563 466 574 492 574 477 b 519 445 553 453 537 445 b 465 499 490 445 465 469 l 465 890 b 519 945 465 920 490 945 b 563 923 537 945 553 936 b 574 890 570 914 574 903 z m 1896 945 b 1902 952 1899 945 1902 948 l 1902 965 b 1896 972 1902 969 1899 972 l 1220 972 b 1109 860 1159 972 1109 922 l 1109 111 b 1220 0 1109 50 1159 0 l 1896 0 b 1902 7 1899 0 1902 3 l 1902 20 b 1896 27 1902 24 1899 27 l 1544 27 l 1544 472 l 1748 472 b 1755 479 1752 472 1755 476 l 1755 493 b 1748 500 1755 496 1752 500 l 1544 500 l 1544 945 z "},"":{"ha":2111,"x_min":0,"x_max":0,"o":"m 1559 -91 l 1333 -91 b 1280 -195 1250 -91 1254 -137 b 1370 -460 1352 -351 1390 -460 b 1112 -64 1326 -460 1199 -232 b 842 480 1020 114 934 300 b 574 972 1092 625 1001 972 l 142 972 b 31 860 81 972 31 922 l 31 111 b 142 0 31 50 81 0 l 354 0 b 465 111 415 0 465 50 l 465 372 l 529 243 l 528 243 l 593 105 b 1384 -487 679 -80 962 -487 b 1680 -218 1574 -487 1683 -377 b 1559 -91 1679 -112 1614 -91 z m 574 509 b 562 466 574 492 573 477 b 519 445 552 453 537 445 b 465 499 490 445 465 469 l 465 890 b 519 945 465 920 490 945 b 562 923 537 945 552 936 b 574 890 569 914 574 903 z m 1595 972 b 1109 486 1326 972 1109 754 b 1595 0 1109 218 1326 0 b 2081 486 1863 0 2081 218 b 1595 972 2081 754 1863 972 z m 1595 27 b 1543 486 1566 27 1543 233 b 1595 945 1543 739 1566 945 b 1646 486 1623 945 1646 739 b 1595 27 1646 233 1623 27 z "},"":{"ha":2111,"x_min":0,"x_max":0,"o":"m 1559 -91 l 1333 -91 b 1280 -195 1251 -91 1254 -137 b 1370 -460 1353 -351 1391 -460 b 1112 -64 1326 -460 1199 -232 b 843 480 1020 114 934 300 b 574 972 1092 625 1001 972 l 142 972 b 31 860 81 972 31 922 l 31 111 b 142 0 31 50 81 0 l 354 0 b 465 111 415 0 465 50 l 465 372 l 529 243 l 528 243 l 593 105 b 1384 -487 680 -80 962 -487 b 1681 -218 1575 -487 1683 -377 b 1559 -91 1679 -112 1615 -91 z m 574 509 b 563 466 574 492 574 477 b 519 445 553 453 537 445 b 465 499 490 445 465 469 l 465 890 b 519 945 465 920 490 945 b 563 923 537 945 553 936 b 574 890 570 914 574 903 z m 1970 972 l 1758 972 b 1647 860 1697 972 1647 922 l 1647 78 b 1595 27 1647 50 1623 27 b 1543 78 1567 27 1543 50 l 1543 860 b 1432 972 1543 922 1493 972 l 1220 972 b 1109 860 1159 972 1109 922 l 1109 486 b 1595 0 1109 219 1328 0 b 2081 486 1862 0 2081 219 l 2081 860 b 1970 972 2081 922 2031 972 z "},"":{"ha":1999,"x_min":0,"x_max":0,"o":"m 1559 -91 l 1333 -91 b 1280 -195 1250 -91 1254 -137 b 1370 -460 1352 -351 1390 -460 b 1112 -64 1326 -460 1199 -232 b 842 480 1020 114 934 300 b 574 972 1092 625 1001 972 l 142 972 b 31 860 81 972 31 922 l 31 111 b 142 0 31 50 81 0 l 354 0 b 465 111 415 0 465 50 l 465 372 l 529 243 l 528 243 l 593 105 b 1384 -487 679 -80 962 -487 b 1680 -218 1574 -487 1683 -377 b 1559 -91 1679 -112 1614 -91 z m 574 509 b 562 466 574 492 573 477 b 519 445 553 453 537 445 b 465 499 490 445 465 469 l 465 890 b 519 945 465 920 490 945 b 562 923 537 945 553 936 b 574 890 569 914 574 903 z m 1961 972 l 955 972 b 948 965 951 972 948 969 l 948 952 b 955 945 948 948 951 945 l 1241 945 l 1241 111 b 1352 0 1241 50 1291 0 l 1564 0 b 1675 111 1625 0 1675 50 l 1675 945 l 1961 945 b 1968 952 1965 945 1968 948 l 1968 965 b 1961 972 1968 969 1965 972 z "},"":{"ha":2090,"x_min":0,"x_max":0,"o":"m 1559 -91 l 1333 -91 b 1280 -195 1251 -91 1254 -137 b 1370 -460 1352 -351 1390 -460 b 1112 -64 1326 -460 1199 -232 b 843 480 1020 114 934 300 b 574 972 1092 625 1001 972 l 142 972 b 31 860 81 972 31 922 l 31 111 b 142 0 31 50 81 0 l 354 0 b 465 111 415 0 465 50 l 465 372 l 529 243 l 528 243 l 593 105 b 1384 -487 680 -80 962 -487 b 1680 -218 1574 -487 1683 -377 b 1559 -91 1679 -112 1615 -91 z m 574 509 b 563 466 574 492 573 477 b 519 445 553 453 537 445 b 465 499 490 445 465 469 l 465 890 b 519 945 465 920 490 945 b 563 923 537 945 553 936 b 574 890 570 914 574 903 z m 1884 486 b 1741 530 1842 503 1793 517 b 1503 739 1563 575 1507 659 b 1591 932 1498 834 1544 931 b 1656 680 1629 932 1673 870 b 1745 576 1651 622 1663 576 l 1971 576 b 2048 703 2027 576 2084 597 b 1576 972 1982 900 1764 975 b 1122 697 1347 969 1147 852 b 1285 486 1104 591 1185 527 b 1429 442 1327 469 1376 455 b 1666 233 1606 397 1662 313 b 1578 40 1671 138 1625 41 b 1513 292 1540 40 1496 102 b 1423 396 1518 349 1506 396 l 1198 396 b 1120 269 1142 396 1083 374 b 2047 275 1275 -165 2008 -7 b 1884 486 2062 382 1984 445 z "},"":{"ha":1847,"x_min":0,"x_max":0,"o":"m 323 111 b 435 0 323 50 373 0 l 646 0 b 758 111 708 0 758 50 l 758 945 l 1267 945 b 1274 952 1271 945 1274 948 l 1274 965 b 1267 972 1274 969 1271 972 l 38 972 b 31 965 34 972 31 969 l 31 952 b 38 945 31 948 34 945 l 323 945 z m 1705 972 l 1494 972 b 1382 860 1433 972 1382 922 l 1382 500 l 1274 500 l 1274 791 b 1162 903 1274 853 1224 903 l 951 903 b 839 791 889 903 839 853 l 839 494 b 720 -435 838 30 798 -435 b 674 -171 700 -435 682 -327 b 567 -67 671 -113 650 -67 l 342 -67 b 285 -193 286 -67 232 -87 b 720 -463 365 -353 530 -463 b 1272 88 1004 -462 1248 -262 b 1274 111 1273 95 1274 103 l 1274 472 l 1382 472 l 1382 111 b 1494 0 1382 50 1433 0 l 1705 0 b 1817 111 1767 0 1817 50 l 1817 860 b 1705 972 1817 922 1767 972 z "},"":{"ha":1286,"x_min":0,"x_max":0,"o":"m 1249 972 l 38 972 b 31 965 34 972 31 969 l 31 952 b 38 945 31 948 34 945 l 324 945 l 324 111 b 435 0 324 50 374 0 l 647 0 b 758 111 708 0 758 50 l 758 945 l 1249 945 b 1256 952 1253 945 1256 948 l 1256 965 b 1249 972 1256 969 1253 972 z m 1145 896 l 933 896 b 822 784 872 896 822 846 l 822 111 b 933 0 822 50 872 0 l 1145 0 b 1256 111 1206 0 1256 50 l 1256 784 b 1145 896 1256 846 1206 896 z "},"":{"ha":1807,"x_min":0,"x_max":0,"o":"m 1769 972 l 38 972 b 31 965 34 972 31 969 l 31 952 b 38 945 31 948 34 945 l 323 945 l 323 111 b 435 0 323 50 373 0 l 646 0 b 758 111 708 0 758 50 l 758 945 l 1048 945 l 1048 111 b 1160 0 1048 50 1099 0 l 1371 0 b 1483 111 1433 0 1483 50 l 1483 945 l 1769 945 b 1776 952 1772 945 1776 948 l 1776 965 b 1769 972 1776 969 1772 972 z "},"":{"ha":1885,"x_min":0,"x_max":0,"o":"m 1842 111 l 1655 480 b 1386 972 1904 625 1814 972 l 38 972 b 31 965 34 972 31 969 l 31 952 b 38 945 31 948 34 945 l 323 945 l 323 111 b 435 0 323 50 373 0 l 646 0 b 758 111 707 0 758 50 l 758 945 l 882 945 b 843 860 858 925 843 894 l 843 494 b 724 -435 842 30 802 -435 b 677 -171 704 -435 686 -327 b 571 -67 674 -113 654 -67 l 346 -67 b 289 -193 290 -67 236 -87 b 724 -463 369 -353 534 -463 b 1276 90 1008 -462 1253 -261 b 1277 111 1277 97 1277 104 l 1277 372 l 1407 111 b 1574 0 1438 50 1513 0 l 1786 0 b 1842 111 1847 0 1873 50 z m 1386 509 b 1375 466 1386 492 1386 477 b 1332 444 1365 453 1349 444 b 1278 499 1302 444 1278 469 l 1278 890 b 1332 945 1278 920 1302 945 b 1375 923 1349 945 1365 936 b 1386 890 1382 914 1386 903 l 1386 509 z "},"":{"ha":1893,"x_min":0,"x_max":0,"o":"m 1121 1408 b 1168 1143 1142 1408 1159 1299 b 1275 1039 1171 1085 1191 1039 l 1500 1039 b 1556 1165 1556 1039 1609 1060 b 1121 1435 1477 1325 1312 1435 b 570 879 836 1435 591 1232 b 568 861 569 873 568 867 l 568 810 b 568 478 568 710 568 577 l 568 478 l 568 79 b 517 27 568 51 545 27 b 465 79 488 27 465 51 l 465 861 b 354 972 465 922 415 972 l 142 972 b 31 861 81 972 31 922 l 31 486 b 517 0 31 219 249 0 b 1003 486 784 0 1003 219 l 1003 561 b 1121 1408 1008 997 1049 1408 z m 1856 945 b 1863 952 1860 945 1863 948 l 1863 965 b 1856 972 1863 969 1860 972 l 1181 972 b 1069 861 1120 972 1069 922 l 1069 112 b 1181 0 1069 50 1120 0 l 1856 0 b 1863 7 1860 0 1863 3 l 1863 20 b 1856 27 1863 24 1860 27 l 1504 27 l 1504 473 l 1709 473 b 1716 480 1713 473 1716 476 l 1716 493 b 1709 500 1716 497 1713 500 l 1504 500 l 1504 945 z "},"":{"ha":1535,"x_min":0,"x_max":0,"o":"m 1122 1408 b 1083 1143 1142 1408 1074 1299 b 1189 1039 1086 1085 1106 1039 l 1415 1039 b 1122 1435 1616 1039 1446 1435 b 571 885 838 1435 594 1234 b 568 861 569 877 568 869 l 568 79 b 517 27 568 51 545 27 b 465 79 488 27 465 51 l 465 861 b 354 972 465 922 415 972 l 142 972 b 31 861 81 972 31 922 l 31 486 b 517 0 31 219 249 0 b 1003 478 781 0 998 214 b 1122 1408 1004 943 1044 1408 z m 1392 972 l 1181 972 b 1069 861 1120 972 1069 922 l 1069 112 b 1181 0 1069 50 1120 0 l 1392 0 b 1504 112 1453 0 1504 50 l 1504 861 b 1392 972 1504 922 1453 972 z "},"":{"ha":2111,"x_min":0,"x_max":0,"o":"m 1003 478 b 1122 1408 1004 943 1044 1408 b 1168 1143 1142 1408 1160 1299 b 1275 1039 1171 1085 1192 1039 l 1500 1039 b 1557 1165 1556 1039 1609 1060 b 1122 1435 1477 1325 1312 1435 b 571 883 838 1435 593 1233 b 568 861 569 876 568 868 l 568 79 b 517 27 568 51 545 27 b 465 79 488 27 465 51 l 465 861 b 354 972 465 922 415 972 l 142 972 b 31 861 81 972 31 922 l 31 486 b 517 0 31 219 249 0 b 1003 478 781 0 998 214 z m 2068 112 l 1882 481 b 1612 972 2131 626 2041 972 l 1181 972 b 1069 861 1120 972 1069 922 l 1069 495 b 951 -435 1068 30 1028 -435 b 904 -170 930 -435 912 -327 b 797 -67 901 -113 880 -67 l 572 -67 b 515 -193 516 -67 462 -87 b 950 -462 595 -353 760 -462 b 1502 90 1235 -462 1479 -260 b 1504 112 1503 97 1504 104 l 1504 372 l 1633 112 b 1800 0 1664 50 1739 0 l 2012 0 b 2068 112 2073 0 2099 51 z m 1612 510 b 1601 466 1612 492 1612 477 b 1558 445 1591 453 1576 445 b 1504 499 1528 445 1504 469 l 1504 891 b 1558 945 1504 921 1528 945 b 1601 924 1576 945 1591 937 b 1612 891 1608 914 1612 903 z "},"":{"ha":2113,"x_min":0,"x_max":0,"o":"m 1510 -67 l 1285 -67 b 1178 -170 1202 -67 1181 -113 b 1132 -435 1170 -327 1152 -435 b 1019 194 1072 -435 1034 -152 l 1019 482 b 556 772 1019 721 798 764 b 78 584 328 779 74 721 b 156 532 79 542 117 532 l 381 532 b 488 636 464 532 481 578 b 580 627 507 794 566 761 b 585 509 584 587 585 544 b 458 520 545 516 503 520 b 31 260 222 520 31 404 b 458 0 31 116 222 0 b 590 12 504 0 548 4 b 1132 -462 641 -290 869 -462 b 1567 -193 1322 -462 1487 -353 b 1510 -67 1620 -87 1566 -67 z m 458 260 b 579 463 458 362 511 446 b 579 143 579 361 579 235 b 584 57 579 113 581 84 b 458 260 513 70 458 156 z m 1971 972 l 1759 972 b 1648 861 1698 972 1648 922 l 1648 729 b 1472 772 1595 756 1536 772 b 1086 386 1259 772 1086 599 b 1472 0 1086 173 1259 0 b 1666 52 1543 0 1609 19 b 1759 0 1685 21 1720 0 l 1971 0 b 2082 112 2033 0 2082 50 l 2082 861 b 1971 972 2082 922 2033 972 z m 1521 386 b 1648 668 1521 512 1574 620 l 1648 112 b 1649 104 1648 109 1648 106 b 1521 386 1574 152 1521 260 z "},"":{"ha":1551,"x_min":0,"x_max":0,"o":"m 1436 -67 l 1211 -67 b 1104 -170 1128 -67 1107 -113 b 1130 -435 1096 -327 1151 -435 b 1020 156 1073 -435 1035 -172 l 1020 482 b 557 772 1020 721 798 764 b 78 584 329 779 74 721 b 156 532 79 542 117 532 l 381 532 b 488 636 464 532 481 578 b 580 627 507 794 566 761 b 585 509 584 587 585 544 b 458 520 545 516 503 520 b 31 260 222 520 31 404 b 458 0 31 116 222 0 b 588 12 504 0 547 4 b 1130 -462 640 -291 868 -462 b 1493 -193 1321 -462 1413 -353 b 1436 -67 1546 -87 1492 -67 z m 458 260 b 578 462 458 361 510 445 b 578 143 578 361 578 234 b 582 57 578 113 580 84 b 458 260 512 71 458 157 z m 1409 772 l 1198 772 b 1086 661 1136 772 1086 722 l 1086 112 b 1198 0 1086 50 1136 0 l 1409 0 b 1521 112 1470 0 1521 50 l 1521 661 b 1409 772 1521 722 1470 772 z m 1303 813 b 1479 988 1400 813 1479 891 b 1303 1163 1479 1085 1400 1163 b 1128 988 1207 1163 1128 1085 b 1303 813 1128 891 1207 813 z "},"":{"ha":1551,"x_min":0,"x_max":0,"o":"m 1436 -67 l 1211 -67 b 1104 -170 1128 -67 1107 -113 b 1131 -435 1096 -327 1151 -435 b 1019 164 1072 -435 1035 -168 l 1019 482 b 556 772 1019 721 798 764 b 77 584 328 779 74 721 b 156 532 78 542 117 532 l 381 532 b 488 636 464 532 481 578 b 580 627 507 794 566 761 b 585 509 584 587 585 544 b 458 520 545 516 503 520 b 31 260 222 520 31 404 b 458 0 31 116 222 0 b 589 12 504 0 548 4 b 1131 -462 640 -291 868 -462 b 1493 -193 1321 -462 1413 -353 b 1436 -67 1546 -87 1492 -67 z m 458 260 b 578 463 458 362 510 445 b 578 143 578 361 578 235 b 583 57 578 113 580 84 b 458 260 513 71 458 156 z m 1409 972 l 1197 972 b 1086 861 1136 972 1086 922 l 1086 112 b 1197 0 1086 50 1136 0 l 1409 0 b 1520 112 1470 0 1520 50 l 1520 861 b 1409 972 1520 922 1470 972 z "},"":{"ha":2106,"x_min":0,"x_max":0,"o":"m 1511 -67 l 1286 -67 b 1179 -170 1203 -67 1182 -113 b 1133 -435 1171 -327 1153 -435 b 1019 211 1071 -435 1033 -142 l 1019 482 b 556 772 1019 721 798 764 b 78 584 328 779 74 721 b 156 532 79 542 117 532 l 381 532 b 488 636 464 532 481 578 b 580 627 507 794 566 761 b 585 509 584 587 585 544 b 458 520 545 516 503 520 b 31 260 222 520 31 404 b 458 0 31 116 222 0 b 590 13 505 0 549 4 b 1133 -462 641 -290 870 -462 b 1568 -193 1323 -462 1488 -353 b 1511 -67 1620 -87 1567 -67 z m 458 260 b 580 463 458 362 511 447 b 580 143 580 362 580 234 b 585 56 580 113 582 84 b 458 260 514 70 458 156 z m 1689 772 b 1499 725 1598 772 1543 753 b 1409 772 1479 753 1446 772 l 1197 772 b 1086 661 1136 772 1086 722 l 1086 112 b 1197 0 1086 50 1136 0 l 1409 0 b 1520 112 1470 0 1520 50 l 1520 510 b 1578 717 1520 642 1537 718 b 1640 386 1639 716 1640 466 l 1640 99 b 1739 0 1640 45 1685 0 l 1975 0 b 2074 99 2030 0 2074 45 l 2074 386 b 1689 772 2074 677 1840 772 z "},"":{"ha":2028,"x_min":0,"x_max":0,"o":"m 1513 -67 l 1288 -67 b 1181 -170 1205 -67 1184 -113 b 1134 -435 1173 -327 1155 -435 b 1019 259 1071 -435 1032 -115 l 1019 482 b 556 772 1019 721 798 764 b 77 584 328 779 74 721 b 156 532 78 542 117 532 l 381 532 b 488 636 464 532 481 578 b 580 627 507 794 566 761 b 585 509 584 587 585 544 b 458 520 545 516 503 520 b 31 260 222 520 31 404 b 458 0 31 116 222 0 b 592 13 505 0 550 5 b 1134 -462 643 -290 872 -462 b 1570 -193 1325 -462 1490 -353 b 1513 -67 1622 -87 1569 -67 z m 458 260 b 581 463 458 363 512 448 b 582 143 582 362 582 235 b 587 56 582 113 584 84 b 458 260 514 68 458 155 z m 1571 784 b 1432 769 1521 784 1474 779 b 1409 772 1425 771 1417 772 l 1197 772 b 1086 661 1136 772 1086 722 l 1086 112 b 1197 0 1086 50 1136 0 l 1409 0 b 1520 112 1470 0 1520 50 l 1520 386 b 1571 756 1520 571 1537 756 b 1612 566 1592 756 1604 727 b 1719 459 1615 507 1636 459 l 1944 459 b 1571 784 2076 459 1967 784 z "},"":{"ha":1899,"x_min":0,"x_max":0,"o":"m 1514 -67 l 1289 -67 b 1182 -170 1206 -67 1185 -113 b 1135 -435 1174 -327 1156 -435 b 1019 304 1069 -435 1030 -89 l 1019 482 b 557 772 1019 721 798 764 b 78 584 328 779 74 721 b 156 532 79 542 117 532 l 381 532 b 488 636 464 532 481 578 b 580 627 507 794 566 761 b 585 509 584 587 585 544 b 458 520 545 516 503 520 b 31 260 222 520 31 404 b 458 0 31 116 222 0 b 593 13 506 0 551 5 b 1135 -462 644 -290 873 -462 b 1571 -193 1326 -462 1491 -353 b 1514 -67 1623 -87 1570 -67 z m 458 260 b 582 464 458 364 513 449 b 583 143 583 362 583 235 b 588 56 583 112 585 84 b 458 260 515 67 458 154 z m 1425 654 b 1506 620 1447 777 1530 786 b 1574 541 1500 576 1505 541 l 1759 541 b 1832 638 1805 541 1856 558 b 1489 772 1799 744 1647 774 b 1086 554 1298 769 1086 730 b 1530 118 1086 235 1576 374 b 1448 152 1507 -5 1425 -14 b 1381 230 1454 196 1449 230 l 1195 230 b 1123 134 1148 230 1099 214 b 1465 0 1155 28 1307 -2 b 1868 214 1656 3 1868 40 b 1425 654 1868 549 1378 398 z "},"":{"ha":2028,"x_min":0,"x_max":0,"o":"m 1944 325 l 1719 325 b 1612 218 1636 325 1615 277 b 1571 28 1604 57 1592 28 b 1521 398 1537 28 1521 213 l 1521 718 l 1681 718 b 1688 725 1685 718 1688 721 l 1688 738 b 1681 745 1688 742 1685 745 l 1521 745 l 1521 865 b 1409 977 1521 927 1470 977 l 1198 977 b 1086 865 1136 977 1086 927 l 1086 398 b 1571 0 1086 199 1253 0 b 1944 325 1967 0 2076 325 z m 1513 -67 l 1288 -67 b 1181 -170 1205 -67 1184 -113 b 1135 -435 1173 -327 1155 -435 b 1020 258 1071 -435 1032 -115 l 1020 482 b 557 772 1020 721 798 764 b 78 584 329 779 74 721 b 156 532 79 542 117 532 l 381 532 b 488 636 464 532 481 578 b 580 627 507 794 566 761 b 585 509 584 587 585 544 b 458 520 545 516 503 520 b 31 260 222 520 31 404 b 458 0 31 116 222 0 b 593 13 505 0 550 5 b 1135 -462 643 -290 872 -462 b 1570 -193 1325 -462 1490 -353 b 1513 -67 1623 -87 1569 -67 z m 458 260 b 582 463 458 363 512 449 b 582 143 582 362 582 235 b 587 56 582 113 584 84 b 458 260 515 67 458 154 z "},"":{"ha":2094,"x_min":0,"x_max":0,"o":"m 2050 99 l 1856 458 b 1713 565 1831 505 1759 571 l 1947 765 b 1948 772 1951 769 1952 772 l 1935 772 b 1920 765 1931 772 1924 769 l 1520 424 l 1520 861 b 1409 972 1520 922 1470 972 l 1197 972 b 1086 861 1136 972 1086 922 l 1086 112 b 1197 0 1086 50 1136 0 l 1409 0 b 1520 112 1470 0 1520 50 l 1520 273 l 1616 99 b 1769 0 1646 45 1715 0 l 2005 0 b 2050 99 2060 0 2080 45 z m 1513 -67 l 1288 -67 b 1181 -170 1205 -67 1184 -113 b 1135 -435 1173 -327 1155 -435 b 1019 280 1070 -435 1031 -103 l 1019 482 b 556 772 1019 721 798 764 b 78 584 328 779 74 721 b 156 532 79 542 117 532 l 381 532 b 488 636 464 532 481 578 b 580 627 507 794 566 761 b 585 509 584 587 585 544 b 458 520 545 516 503 520 b 31 260 222 520 31 404 b 458 0 31 116 222 0 b 593 13 505 0 550 5 b 1135 -462 643 -290 872 -462 b 1570 -193 1325 -462 1490 -353 b 1513 -67 1623 -87 1569 -67 z m 458 260 b 582 463 458 364 512 449 b 582 143 582 362 582 235 b 587 56 582 113 584 84 b 458 260 515 67 458 154 z "},"":{"ha":1554,"x_min":0,"x_max":0,"o":"m 982 -67 l 756 -67 b 650 -174 673 -67 653 -114 b 609 -363 641 -335 629 -363 b 609 1135 416 -363 419 1135 b 650 946 629 1135 641 1107 b 756 839 653 886 673 839 l 982 839 b 609 1163 1114 839 1004 1163 b 609 -391 -160 1163 -164 -391 b 982 -67 1004 -391 1114 -67 z m 1060 772 b 582 584 832 779 578 721 b 660 532 583 542 621 532 l 885 532 b 992 636 968 532 985 578 b 1084 627 1011 794 1070 761 b 1089 509 1088 587 1089 544 b 962 520 1049 516 1006 520 b 534 260 726 520 534 404 b 962 0 534 117 726 0 b 1134 22 1024 0 1082 8 b 1200 0 1153 8 1176 0 l 1412 0 b 1523 112 1473 0 1523 50 l 1523 482 b 1060 772 1523 721 1301 764 z m 962 260 b 1089 464 962 365 1018 451 l 1089 112 b 1105 55 1089 91 1095 71 b 962 260 1026 56 962 148 z "},"":{"ha":1468,"x_min":0,"x_max":0,"o":"m 1385 313 l 1159 313 b 1053 206 1076 313 1056 265 b 1011 16 1044 45 1032 16 b 1011 756 944 16 944 756 b 1053 566 1032 756 1044 727 b 1159 459 1056 507 1076 459 l 1385 459 b 1011 784 1517 459 1407 784 b 1011 -12 375 784 375 -12 b 1385 313 1407 -12 1517 313 z m 982 -67 l 756 -67 b 650 -174 673 -67 653 -114 b 609 -363 641 -335 629 -363 b 609 1135 416 -363 419 1135 b 650 946 629 1135 641 1107 b 756 839 653 886 673 839 l 982 839 b 609 1163 1114 839 1004 1163 b 609 -391 -160 1163 -164 -391 b 982 -67 1004 -391 1114 -67 z "},"":{"ha":2010,"x_min":0,"x_max":0,"o":"m 881 313 l 655 313 b 549 206 572 313 552 265 b 507 16 541 45 528 16 b 507 756 440 16 440 756 b 549 566 528 756 541 727 b 655 459 552 507 572 459 l 881 459 b 508 784 1013 459 903 784 b 508 -12 -129 784 -129 -12 b 881 313 903 -12 1013 313 z m 1965 99 l 1771 458 b 1628 565 1746 505 1674 571 l 1862 765 b 1863 772 1866 769 1866 772 l 1850 772 b 1835 765 1846 772 1839 769 l 1435 424 l 1435 861 b 1324 972 1435 922 1385 972 l 1112 972 b 1001 861 1051 972 1001 922 l 1001 495 b 882 -435 1000 30 959 -435 b 835 -170 861 -435 843 -327 b 729 -67 832 -113 811 -67 l 503 -67 b 447 -193 447 -67 394 -87 b 882 -462 526 -353 691 -462 b 1432 88 1166 -462 1409 -261 b 1435 112 1434 95 1435 103 l 1435 274 l 1531 99 b 1684 0 1560 45 1629 0 l 1920 0 b 1965 99 1975 0 1995 45 z "},"":{"ha":1543,"x_min":0,"x_max":0,"o":"m 1026 787 b 540 386 757 787 540 608 b 1026 -15 540 165 757 -15 b 1512 386 1294 -15 1512 165 b 1026 787 1512 608 1294 787 z m 1026 13 b 974 386 997 13 974 177 b 1025 759 974 595 996 759 b 1077 386 1053 759 1077 595 b 1026 13 1077 177 1054 13 z m 982 -67 l 756 -67 b 650 -174 673 -67 653 -114 b 609 -363 641 -335 629 -363 b 609 1135 416 -363 419 1135 b 650 946 629 1135 641 1107 b 756 839 653 886 673 839 l 982 839 b 609 1163 1114 839 1004 1163 b 609 -391 -160 1163 -164 -391 b 982 -67 1004 -391 1114 -67 z "},"":{"ha":2113,"x_min":0,"x_max":0,"o":"m 1525 -67 l 1299 -67 b 1193 -171 1216 -67 1196 -114 b 1146 -436 1184 -328 1167 -436 b 1027 494 1069 -436 1028 29 l 1027 860 b 916 971 1027 921 977 971 l 704 971 b 593 860 643 971 593 921 l 593 728 b 416 771 540 756 480 771 b 31 385 204 771 31 598 b 416 -1 31 172 204 -1 b 599 45 483 -1 545 16 b 1146 -463 639 -279 874 -463 b 1581 -194 1337 -463 1502 -354 b 1525 -67 1634 -88 1581 -67 z m 466 385 b 593 667 466 511 518 619 l 593 111 b 593 103 593 108 593 105 b 466 385 518 151 466 259 z m 1957 240 l 1732 240 b 1625 136 1649 240 1632 193 b 1533 145 1606 -22 1547 11 b 1528 263 1529 184 1528 227 b 1655 251 1568 255 1611 251 b 2082 512 1891 251 2082 368 b 1575 771 2082 655 1927 771 b 1094 498 1222 771 1094 657 l 1094 290 b 1557 0 1094 51 1315 7 b 2036 187 1785 -7 2039 51 b 1957 240 2035 230 1997 240 z m 1528 660 b 1561 704 1528 696 1528 722 b 1655 512 1616 675 1655 600 b 1528 307 1655 406 1599 320 z "},"":{"ha":2096,"x_min":0,"x_max":0,"o":"m 1580 786 b 1094 385 1311 786 1094 607 b 1580 -16 1094 164 1311 -16 b 2066 385 1848 -16 2066 164 b 1580 786 2066 607 1848 786 z m 1580 12 b 1528 385 1551 12 1528 176 b 1579 758 1528 594 1551 758 b 1631 385 1607 758 1631 594 b 1580 12 1631 176 1608 12 z m 1525 -67 l 1299 -67 b 1193 -171 1216 -67 1196 -114 b 1146 -436 1185 -328 1167 -436 b 1027 494 1069 -436 1028 29 l 1027 860 b 916 971 1027 921 977 971 l 704 971 b 593 860 643 971 593 921 l 593 728 b 417 771 540 756 480 771 b 31 385 204 771 31 598 b 417 -1 31 172 204 -1 b 599 45 483 -1 545 16 b 1146 -463 639 -279 874 -463 b 1581 -194 1337 -463 1502 -354 b 1525 -67 1634 -88 1581 -67 z m 466 385 b 593 667 466 511 518 619 l 593 111 b 593 103 593 108 593 105 b 466 385 518 151 466 259 z "},"":{"ha":2106,"x_min":0,"x_max":0,"o":"m 973 191 b 894 244 972 234 933 244 l 669 244 b 562 141 586 244 569 197 b 470 149 543 -18 484 15 b 465 267 466 189 465 231 b 592 256 505 260 548 256 b 1019 516 828 256 1019 372 b 512 775 1019 659 864 775 b 31 502 159 775 31 661 l 31 294 b 494 4 31 55 252 12 b 973 191 722 -3 976 55 z m 465 664 b 498 709 465 701 465 726 b 592 516 553 679 592 604 b 465 312 592 411 536 324 z m 1689 775 b 1499 729 1598 775 1543 757 b 1409 775 1479 757 1446 775 l 1197 775 b 1086 664 1136 775 1086 725 l 1086 498 b 967 -432 1085 33 1044 -432 b 921 -167 947 -432 929 -323 b 814 -63 918 -110 897 -63 l 589 -63 b 532 -190 533 -63 479 -84 b 967 -459 612 -349 777 -459 b 1518 91 1251 -459 1495 -259 b 1521 115 1520 99 1521 107 l 1521 513 b 1578 721 1521 646 1537 721 b 1640 389 1639 719 1640 469 l 1640 102 b 1739 4 1640 48 1685 4 l 1975 4 b 2074 102 2030 4 2074 48 l 2074 389 b 1689 775 2074 680 1840 775 z "},"":{"ha":2028,"x_min":0,"x_max":0,"o":"m 972 191 b 894 244 971 234 933 244 l 669 244 b 562 141 586 244 569 197 b 470 149 543 -18 484 15 b 465 267 466 189 465 231 b 592 256 505 260 547 256 b 1019 516 828 256 1019 372 b 512 775 1019 659 864 775 b 31 502 159 775 31 661 l 31 294 b 494 4 31 55 252 12 b 972 191 722 -3 976 55 z m 465 664 b 498 709 465 701 465 726 b 592 516 553 679 592 604 b 465 312 592 411 536 324 z m 1571 787 b 1432 773 1521 787 1474 782 b 1409 775 1424 774 1417 775 l 1197 775 b 1086 664 1136 775 1086 725 l 1086 498 b 967 -432 1085 33 1044 -432 b 920 -167 947 -432 929 -323 b 814 -63 917 -110 897 -63 l 588 -63 b 532 -190 532 -63 479 -84 b 967 -459 612 -349 777 -459 b 1518 93 1251 -459 1496 -258 b 1520 115 1520 100 1520 107 l 1520 389 b 1571 759 1520 574 1537 759 b 1612 570 1592 759 1604 731 b 1719 463 1615 510 1636 463 l 1944 463 b 1571 787 2076 463 1967 787 z "},"":{"ha":2113,"x_min":0,"x_max":0,"o":"m 972 191 b 894 244 971 234 933 244 l 669 244 b 562 141 586 244 569 197 b 470 149 543 -18 484 15 b 465 267 466 189 465 231 b 592 256 505 260 547 256 b 1019 516 828 256 1019 372 b 512 775 1019 659 864 775 b 31 502 159 775 31 661 l 31 294 b 493 4 31 55 252 12 b 972 191 722 -3 976 55 z m 465 664 b 498 709 465 701 465 726 b 592 516 552 679 592 604 b 465 312 592 411 536 324 z m 1697 775 b 1503 723 1626 775 1560 756 b 1409 775 1483 754 1448 775 l 1197 775 b 1086 664 1136 775 1086 725 l 1086 440 b 968 -432 1082 -4 1042 -432 b 921 -167 947 -432 929 -323 b 814 -63 918 -110 897 -63 l 589 -63 b 532 -190 533 -63 479 -84 b 967 -459 612 -349 777 -459 b 1515 49 1240 -459 1475 -274 b 1697 4 1569 20 1631 4 b 2082 389 1909 4 2082 176 b 1697 775 2082 603 1909 775 z m 1519 107 b 1520 146 1520 120 1520 133 b 1521 498 1520 248 1520 392 l 1520 498 l 1520 664 b 1520 671 1520 666 1520 669 b 1647 389 1595 624 1647 515 b 1519 107 1647 263 1595 154 z "},"":{"ha":2113,"x_min":0,"x_max":0,"o":"m 1524 -74 l 1298 -74 b 1192 -178 1215 -74 1195 -120 b 1145 -443 1184 -334 1166 -443 b 1031 215 1083 -443 1045 -143 b 1027 381 1028 303 1027 289 b 641 764 1025 593 792 764 b 465 729 543 764 501 752 l 465 853 b 353 965 465 914 415 965 l 142 965 b 31 853 81 965 31 914 l 31 104 b 142 -8 31 43 81 -8 l 354 -8 b 465 104 415 -8 465 43 l 465 660 b 592 378 540 612 592 504 l 592 91 b 595 67 592 83 593 75 b 1145 -470 624 -274 865 -470 b 1580 -201 1336 -470 1501 -360 b 1524 -74 1633 -95 1580 -74 z m 1619 764 b 1140 577 1391 772 1137 713 b 1218 524 1141 534 1179 524 l 1444 524 b 1550 628 1527 524 1543 571 b 1642 619 1570 786 1629 754 b 1648 501 1647 580 1648 537 b 1521 513 1608 508 1565 513 b 1093 252 1285 513 1093 396 b 1521 -8 1093 109 1285 -8 b 1693 14 1582 -8 1640 0 b 1759 -8 1712 0 1735 -8 l 1970 -8 b 2082 104 2032 -8 2082 43 l 2082 474 b 1619 764 2082 713 1860 757 z m 1521 252 b 1647 456 1521 357 1576 444 l 1647 104 b 1663 47 1647 83 1653 64 b 1521 252 1585 49 1521 140 z "},"":{"ha":2113,"x_min":0,"x_max":0,"o":"m 1524 -74 l 1298 -74 b 1192 -178 1215 -74 1195 -120 b 1145 -443 1183 -334 1165 -443 b 1031 215 1083 -443 1045 -143 b 1026 381 1028 303 1027 289 b 641 764 1025 593 792 764 b 465 729 543 764 501 752 l 465 853 b 354 965 465 914 415 965 l 142 965 b 31 853 80 965 31 914 l 31 104 b 142 -8 31 43 80 -8 l 354 -8 b 465 104 415 -8 465 43 l 465 660 b 592 378 540 612 592 504 l 592 91 b 595 69 592 83 593 76 b 1145 -470 622 -274 864 -470 b 1580 -201 1335 -470 1500 -360 b 1524 -74 1633 -95 1580 -74 z m 1956 233 l 1731 233 b 1624 129 1648 233 1631 187 b 1533 138 1605 -29 1546 4 b 1527 256 1529 178 1527 221 b 1654 245 1567 249 1610 245 b 2082 505 1890 245 2082 361 b 1574 764 2082 649 1926 764 b 1093 492 1222 764 1093 650 l 1093 283 b 1556 -7 1093 44 1315 1 b 2035 181 1784 -14 2038 45 b 1956 233 2034 223 1996 233 z m 1527 654 b 1560 698 1527 690 1527 715 b 1654 505 1615 669 1654 593 b 1527 301 1654 400 1599 313 z "},"":{"ha":1558,"x_min":0,"x_max":0,"o":"m 1448 -74 l 1223 -74 b 1116 -178 1140 -74 1120 -120 b 1145 -443 1108 -334 1166 -443 b 1031 215 1083 -443 1045 -143 b 1026 381 1028 303 1027 289 b 641 764 1025 593 792 764 b 465 729 543 764 501 752 l 465 853 b 354 965 465 914 415 965 l 142 965 b 31 853 81 965 31 914 l 31 104 b 142 -8 31 43 81 -8 l 354 -8 b 465 104 415 -8 465 43 l 465 660 b 592 378 540 612 592 504 l 592 91 b 595 67 592 83 593 75 b 1145 -470 624 -274 865 -470 b 1505 -201 1336 -470 1425 -360 b 1448 -74 1558 -95 1504 -74 z m 1416 764 l 1205 764 b 1093 653 1143 764 1093 714 l 1093 104 b 1205 -8 1093 43 1143 -8 l 1416 -8 b 1528 104 1477 -8 1528 43 l 1528 653 b 1416 764 1528 714 1477 764 z m 1310 805 b 1486 981 1407 805 1486 884 b 1310 1156 1486 1077 1407 1156 b 1135 981 1214 1156 1135 1077 b 1310 805 1135 884 1214 805 z "},"":{"ha":2096,"x_min":0,"x_max":0,"o":"m 1524 -74 l 1298 -74 b 1192 -178 1215 -74 1195 -120 b 1145 -443 1183 -334 1165 -443 b 1031 215 1083 -443 1045 -143 b 1026 381 1028 303 1027 289 b 641 764 1025 593 792 764 b 465 729 543 764 501 752 l 465 853 b 354 965 465 914 415 965 l 142 965 b 31 853 80 965 31 914 l 31 104 b 142 -8 31 43 80 -8 l 354 -8 b 465 104 415 -8 465 43 l 465 660 b 592 378 540 612 592 504 l 592 91 b 595 69 592 83 593 76 b 1145 -470 623 -274 864 -470 b 1580 -201 1335 -470 1500 -360 b 1524 -74 1633 -95 1580 -74 z m 1579 780 b 1093 378 1310 780 1093 600 b 1579 -23 1093 157 1310 -23 b 2065 378 1847 -23 2065 157 b 1579 780 2065 600 1847 780 z m 1579 6 b 1527 378 1550 6 1527 169 b 1578 751 1527 588 1550 751 b 1630 378 1606 751 1630 588 b 1579 6 1630 169 1607 6 z "},"":{"ha":2043,"x_min":0,"x_max":0,"o":"m 1520 -67 l 1294 -67 b 1245 -171 1212 -67 1217 -113 b 1345 -435 1323 -327 1366 -435 b 946 191 1281 -435 1031 35 l 845 376 l 801 458 b 658 565 775 505 704 571 l 891 765 b 864 765 905 776 874 773 l 465 424 l 465 860 b 354 972 465 922 415 972 l 142 972 b 31 860 81 972 31 922 l 31 111 b 142 0 31 50 81 0 l 354 0 b 465 111 415 0 465 50 l 465 273 l 560 99 b 579 72 566 89 572 80 l 611 20 b 1360 -463 778 -233 1046 -463 b 1646 -193 1551 -463 1655 -353 b 1520 -67 1641 -87 1576 -67 z m 1547 772 b 1068 584 1318 779 1064 720 b 1146 532 1069 542 1107 532 l 1371 532 b 1478 635 1454 532 1471 578 b 1570 627 1497 793 1556 761 b 1575 508 1574 587 1575 544 b 1448 520 1535 516 1492 520 b 1021 260 1212 520 1021 403 b 1448 0 1021 116 1212 0 b 1620 22 1510 0 1568 8 b 1687 0 1639 8 1662 0 l 1898 0 b 2010 111 1959 0 2010 50 l 2010 482 b 1547 772 2010 721 1788 764 z m 1448 260 b 1575 464 1448 365 1504 451 l 1575 111 b 1591 54 1575 90 1581 71 b 1448 260 1512 56 1448 147 z "},"":{"ha":2092,"x_min":0,"x_max":0,"o":"m 1520 -67 l 1294 -67 b 1245 -171 1211 -67 1216 -113 b 1345 -435 1323 -327 1365 -435 b 946 191 1281 -435 1030 35 l 845 376 l 801 458 b 658 565 775 505 704 571 l 891 765 b 864 765 905 776 874 773 l 465 424 l 465 860 b 354 972 465 922 415 972 l 142 972 b 31 860 80 972 31 922 l 31 111 b 142 0 31 50 80 0 l 354 0 b 465 111 415 0 465 50 l 465 273 l 560 99 b 579 71 565 89 572 80 l 611 20 b 1360 -463 778 -233 1046 -463 b 1646 -193 1550 -463 1655 -353 b 1520 -67 1641 -87 1576 -67 z m 1676 772 b 1486 725 1585 772 1530 753 b 1396 772 1466 753 1433 772 l 1184 772 b 1073 660 1123 772 1073 721 l 1073 111 b 1184 0 1073 50 1123 0 l 1396 0 b 1507 111 1457 0 1507 50 l 1507 509 b 1565 717 1507 642 1524 717 b 1626 386 1625 716 1626 465 l 1626 99 b 1726 0 1626 45 1671 0 l 1962 0 b 2061 99 2016 0 2061 45 l 2061 386 b 1676 772 2061 676 1826 772 z "},"":{"ha":1975,"x_min":0,"x_max":0,"o":"m 1520 -67 l 1295 -67 b 1246 -171 1212 -67 1217 -113 b 1345 -435 1324 -327 1366 -435 b 946 191 1281 -435 1031 35 l 845 376 l 801 458 b 658 565 776 505 704 571 l 892 765 b 864 765 905 776 875 773 l 465 424 l 465 860 b 354 972 465 922 415 972 l 142 972 b 31 860 81 972 31 922 l 31 111 b 142 0 31 50 81 0 l 354 0 b 465 111 415 0 465 50 l 465 273 l 560 99 b 579 72 566 89 572 80 l 611 20 b 1360 -463 779 -233 1046 -463 b 1646 -193 1551 -463 1655 -353 b 1520 -67 1641 -87 1576 -67 z m 1458 787 b 973 386 1190 787 973 607 b 1458 -15 973 164 1190 -15 b 1945 386 1727 -15 1945 164 b 1458 787 1945 607 1727 787 z m 1458 13 b 1407 386 1430 13 1407 177 b 1458 759 1407 595 1429 759 b 1510 386 1486 759 1510 595 b 1458 13 1510 177 1487 13 z "},"":{"ha":1551,"x_min":0,"x_max":0,"o":"m 962 -67 l 737 -67 b 630 -170 654 -67 633 -113 b 584 -435 622 -327 604 -435 b 470 223 522 -435 483 -136 b 465 388 467 311 465 297 l 465 861 b 354 972 465 922 415 972 l 142 972 b 31 861 81 972 31 922 l 31 111 b 33 89 31 104 32 96 b 584 -462 55 -261 300 -462 b 1019 -193 774 -462 939 -353 b 962 -67 1072 -87 1018 -67 z m 1058 772 b 579 584 829 779 575 720 b 657 532 580 542 618 532 l 882 532 b 989 636 965 532 982 578 b 1081 627 1008 794 1067 761 b 1086 509 1085 587 1086 544 b 959 520 1046 516 1003 520 b 531 260 723 520 531 404 b 959 0 531 116 723 0 b 1132 22 1021 0 1079 8 b 1197 0 1150 8 1173 0 l 1409 0 b 1521 111 1470 0 1521 50 l 1521 482 b 1058 772 1521 721 1299 764 z m 959 260 b 1086 464 959 365 1015 451 l 1086 111 b 1102 54 1086 90 1092 71 b 959 260 1023 56 959 147 z "},"":{"ha":1558,"x_min":0,"x_max":0,"o":"m 962 -67 l 737 -67 b 630 -170 654 -67 633 -113 b 583 -435 622 -327 604 -435 b 470 223 521 -435 483 -136 b 465 388 467 311 465 297 l 465 861 b 354 972 465 922 415 972 l 142 972 b 31 861 80 972 31 922 l 31 111 b 32 93 31 105 31 99 b 583 -462 54 -260 299 -462 b 1018 -193 774 -462 939 -353 b 962 -67 1071 -87 1018 -67 z m 1417 972 l 1205 972 b 1094 861 1144 972 1094 922 l 1094 729 b 917 772 1041 756 981 772 b 531 386 704 772 531 599 b 917 0 531 173 704 0 b 1111 52 988 0 1054 19 b 1205 0 1131 21 1166 0 l 1417 0 b 1528 111 1478 0 1528 50 l 1528 861 b 1417 972 1528 922 1478 972 z m 967 386 b 1094 668 967 512 1019 620 l 1094 111 b 1094 103 1094 109 1094 106 b 967 386 1019 151 967 259 z "},"":{"ha":1551,"x_min":0,"x_max":0,"o":"m 1395 240 l 1170 240 b 1063 137 1087 240 1070 194 b 971 146 1044 -21 985 11 b 966 264 967 185 966 228 b 1093 252 1006 256 1048 252 b 1520 512 1329 252 1520 369 b 1013 772 1520 656 1365 772 b 531 499 660 772 531 658 l 531 290 b 994 1 531 51 753 8 b 1473 188 1223 -7 1476 52 b 1395 240 1472 231 1434 240 z m 966 661 b 999 705 966 697 966 723 b 1093 512 1054 676 1093 601 b 966 308 1093 407 1037 321 z m 962 -67 l 737 -67 b 630 -170 654 -67 633 -113 b 583 -435 622 -327 604 -435 b 470 223 521 -435 483 -136 b 465 388 467 311 465 297 l 465 861 b 354 972 465 922 415 972 l 142 972 b 31 861 81 972 31 922 l 31 111 b 33 89 31 104 32 96 b 584 -462 55 -261 300 -462 b 1019 -193 774 -462 939 -353 b 962 -67 1072 -87 1018 -67 z "},"":{"ha":1088,"x_min":0,"x_max":0,"o":"m 1037 -67 l 811 -67 b 705 -170 728 -67 708 -113 b 658 -435 696 -327 678 -435 b 544 223 596 -435 558 -136 b 539 388 541 311 540 297 l 539 861 b 428 972 539 922 489 972 l 216 972 b 105 861 155 972 105 922 l 105 111 b 107 89 105 104 106 96 b 658 -462 130 -261 374 -462 b 1093 -193 848 -462 1013 -353 b 1037 -67 1146 -87 1093 -67 z m 334 1039 b 441 1143 417 1039 438 1085 b 487 1407 449 1299 467 1407 b 601 749 549 1407 588 1108 b 606 584 604 661 606 676 l 606 111 b 717 0 606 50 656 0 l 929 0 b 1040 111 990 0 1040 50 l 1040 861 b 1039 879 1040 867 1040 873 b 487 1435 1018 1232 773 1435 b 52 1165 297 1435 132 1325 b 109 1039 0 1059 53 1039 z "},"":{"ha":1535,"x_min":0,"x_max":0,"o":"m 1017 787 b 531 386 749 787 531 608 b 1017 -15 531 164 749 -15 b 1504 386 1286 -15 1504 164 b 1017 787 1504 608 1286 787 z m 1017 13 b 966 386 989 13 966 177 b 1017 759 966 595 988 759 b 1069 386 1045 759 1069 595 b 1017 13 1069 177 1046 13 z m 962 -67 l 737 -67 b 630 -170 654 -67 633 -113 b 583 -435 622 -327 604 -435 b 470 223 521 -435 483 -136 b 465 388 467 311 465 297 l 465 861 b 354 972 465 922 415 972 l 142 972 b 31 861 81 972 31 922 l 31 111 b 33 89 31 104 32 96 b 584 -462 55 -261 300 -462 b 1019 -193 774 -462 939 -353 b 962 -67 1072 -87 1018 -67 z "},"":{"ha":1550,"x_min":0,"x_max":0,"o":"m 1409 772 l 1197 772 b 1085 660 1135 772 1085 722 l 1085 262 b 1028 54 1085 130 1069 54 b 966 386 967 56 966 306 l 966 673 b 867 772 966 727 921 772 l 631 772 b 531 673 576 772 531 727 l 531 386 b 917 0 531 95 766 0 b 1107 46 1008 0 1063 18 b 1197 0 1127 18 1160 0 l 1409 0 b 1520 111 1470 0 1520 50 l 1520 661 b 1409 772 1520 722 1470 772 z m 962 -67 l 737 -67 b 630 -170 654 -67 633 -113 b 583 -435 622 -327 604 -435 b 470 223 521 -435 483 -136 b 465 388 467 311 465 297 l 465 861 b 354 972 465 922 415 972 l 142 972 b 31 861 81 972 31 922 l 31 111 b 33 89 31 104 32 96 b 584 -462 55 -261 300 -462 b 1019 -193 774 -462 939 -353 b 962 -67 1072 -87 1018 -67 z "},"":{"ha":1540,"x_min":0,"x_max":0,"o":"m 1496 99 l 1302 458 b 1159 565 1276 505 1205 571 l 1392 765 b 1394 772 1397 769 1397 772 l 1380 772 b 1365 765 1376 772 1370 769 l 966 424 l 966 861 b 854 972 966 922 916 972 l 643 972 b 531 861 582 972 531 922 l 531 111 b 643 0 531 50 582 0 l 854 0 b 966 111 916 0 966 50 l 966 273 l 1061 99 b 1214 0 1091 45 1160 0 l 1451 0 b 1496 99 1505 0 1525 45 z m 962 -67 l 737 -67 b 630 -170 654 -67 633 -113 b 583 -435 622 -327 604 -435 b 470 223 521 -435 483 -136 b 465 388 467 311 465 297 l 465 861 b 354 972 465 922 415 972 l 142 972 b 31 861 80 972 31 922 l 31 111 b 32 93 31 105 31 99 b 583 -462 54 -260 299 -462 b 1019 -193 774 -462 939 -353 b 962 -67 1071 -87 1018 -67 z "},"":{"ha":2113,"x_min":0,"x_max":0,"o":"m 1516 -67 l 1291 -67 b 1184 -170 1208 -67 1187 -113 b 1137 -435 1176 -327 1158 -435 b 1024 223 1076 -435 1037 -136 b 1019 388 1021 311 1019 297 b 634 772 1018 677 784 772 b 444 725 542 772 488 753 b 354 772 424 753 391 772 l 142 772 b 31 660 81 772 31 722 l 31 111 b 142 0 31 50 81 0 l 354 0 b 465 111 415 0 465 50 l 465 510 b 523 717 465 642 482 718 b 585 386 584 716 585 465 l 585 99 b 588 76 585 91 586 84 b 1137 -462 615 -266 857 -462 b 1573 -193 1328 -462 1493 -353 b 1516 -67 1625 -87 1572 -67 z m 1971 972 l 1759 972 b 1648 860 1698 972 1648 922 l 1648 729 b 1471 772 1595 756 1535 772 b 1086 386 1258 772 1086 599 b 1471 0 1086 173 1258 0 b 1665 52 1542 0 1608 19 b 1759 0 1685 21 1720 0 l 1971 0 b 2082 111 2032 0 2082 50 l 2082 861 b 1971 972 2082 922 2032 972 z m 1521 386 b 1648 668 1521 512 1573 620 l 1648 111 b 1648 103 1648 108 1648 106 b 1521 386 1573 151 1521 259 z "},"":{"ha":2115,"x_min":0,"x_max":0,"o":"m 683 0 l 920 0 b 1019 99 975 0 1019 45 l 1019 386 b 634 772 1019 677 784 772 b 444 725 543 772 488 753 b 354 772 424 753 391 772 l 142 772 b 31 660 81 772 31 722 l 31 111 b 142 0 31 50 81 0 l 354 0 b 465 111 415 0 465 50 l 465 510 b 522 717 465 642 482 718 b 584 386 584 716 584 465 l 584 99 b 683 0 584 45 629 0 z m 1973 784 l 1758 784 l 1756 783 l 1753 783 l 1751 783 l 1750 783 l 1748 783 l 1748 783 b 1745 782 1747 783 1746 783 l 1745 782 l 1743 782 l 1742 782 l 1740 781 l 1739 781 l 1737 781 l 1737 781 l 1734 780 l 1734 780 l 1732 779 l 1731 779 l 1730 779 l 1729 779 l 1727 778 l 1726 777 l 1724 777 l 1723 777 l 1721 776 l 1720 775 l 1719 775 l 1718 775 l 1717 774 b 1715 773 1717 774 1716 774 l 1714 773 l 1713 772 l 1712 772 l 1711 771 l 1709 770 l 1708 770 l 1707 769 l 1706 768 l 1705 768 l 1704 767 l 1702 766 l 1701 765 l 1700 765 b 1696 762 1699 764 1698 763 l 1696 762 l 1695 761 b 1686 754 1692 759 1689 756 l 1686 753 b 1662 721 1676 744 1668 733 b 1471 772 1606 754 1541 772 b 1086 386 1258 772 1086 599 b 1471 0 1086 173 1258 0 b 1650 44 1536 0 1597 16 l 1650 4 b 1355 -422 1650 -266 1553 -422 b 1038 -176 1165 -422 1038 -275 b 932 -69 1038 -117 1014 -69 l 650 -69 b 683 -288 548 -69 612 -233 b 1372 -469 818 -393 1097 -467 b 2085 4 1733 -470 2085 -345 l 2085 672 b 1973 784 2085 733 2035 784 z m 1650 102 b 1521 386 1574 149 1521 258 b 1650 670 1521 513 1574 623 z "},"":{"ha":2104,"x_min":0,"x_max":0,"o":"m 1689 772 b 1513 734 1607 772 1555 757 b 967 1234 1471 1052 1237 1234 b 532 965 776 1234 611 1125 b 588 838 479 859 532 838 l 814 838 b 920 942 897 838 917 885 b 967 1207 929 1099 946 1207 b 1081 549 1029 1207 1067 908 b 1086 383 1084 461 1085 475 l 1086 111 b 1197 0 1086 50 1135 0 l 1409 0 b 1520 111 1470 0 1520 50 l 1520 510 b 1578 717 1520 642 1537 718 b 1639 386 1638 716 1639 465 l 1639 99 b 1738 0 1639 45 1684 0 l 1975 0 b 2074 99 2029 0 2074 45 l 2074 386 b 1689 772 2074 677 1839 772 z m 1516 -67 l 1291 -67 b 1184 -170 1208 -67 1187 -113 b 1137 -435 1176 -327 1158 -435 b 1024 223 1076 -435 1037 -136 b 1019 388 1020 311 1019 297 b 634 771 1018 677 784 771 b 444 725 543 771 488 753 b 354 771 424 753 391 771 l 142 771 b 31 660 81 771 31 721 l 31 111 b 142 0 31 50 81 0 l 354 0 b 465 111 415 0 465 50 l 465 510 b 522 717 465 642 482 718 b 584 386 584 716 584 465 l 584 99 b 588 75 584 90 586 82 b 1137 -462 616 -267 857 -462 b 1573 -193 1328 -462 1493 -353 b 1516 -67 1625 -87 1572 -67 z "},"":{"ha":2028,"x_min":0,"x_max":0,"o":"m 1944 325 l 1718 325 b 1612 218 1635 325 1615 277 b 1571 28 1603 56 1591 28 b 1520 384 1538 28 1521 204 l 1520 384 b 1520 629 1520 489 1520 527 l 1520 717 l 1680 717 b 1687 724 1684 717 1687 721 l 1687 738 b 1680 745 1687 741 1684 745 l 1520 745 b 967 1234 1520 1035 1246 1234 b 532 965 777 1234 612 1125 b 589 838 479 859 533 838 l 814 838 b 921 942 897 838 918 885 b 967 1207 929 1099 947 1207 b 1081 549 1029 1207 1068 908 b 1086 429 1084 479 1085 474 l 1086 398 b 1086 384 1086 393 1086 389 l 1086 384 b 1571 0 1094 189 1260 0 b 1944 325 1966 0 2076 325 z m 1516 -67 l 1291 -67 b 1184 -170 1208 -67 1187 -113 b 1137 -435 1176 -327 1158 -435 b 1024 223 1076 -435 1037 -136 b 1019 388 1021 311 1019 297 b 634 771 1018 677 784 771 b 444 725 542 771 488 753 b 354 771 424 753 391 771 l 142 771 b 31 660 81 771 31 721 l 31 111 b 142 0 31 50 81 0 l 354 0 b 465 111 415 0 465 50 l 465 510 b 523 717 465 642 482 718 b 585 386 584 716 585 465 l 585 99 b 588 76 585 91 586 84 b 1137 -462 615 -266 857 -462 b 1573 -193 1328 -462 1493 -353 b 1516 -67 1625 -87 1572 -67 z "},"":{"ha":2089,"x_min":0,"x_max":0,"o":"m 1516 -67 l 1291 -67 b 1184 -170 1208 -67 1187 -113 b 1137 -435 1176 -327 1158 -435 b 1024 223 1076 -435 1037 -136 b 1019 388 1021 311 1019 297 b 634 771 1018 677 784 771 b 444 725 542 771 488 753 b 354 771 424 753 391 771 l 142 771 b 31 660 81 771 31 721 l 31 111 b 142 0 31 50 81 0 l 354 0 b 465 111 415 0 465 50 l 465 509 b 523 717 465 642 482 718 b 585 386 584 716 585 465 l 585 99 b 588 76 585 91 586 84 b 1137 -462 615 -266 857 -462 b 1573 -193 1328 -462 1493 -353 b 1516 -67 1625 -87 1572 -67 z m 1572 787 b 1086 386 1303 787 1086 607 b 1572 -15 1086 164 1303 -15 b 2058 386 1840 -15 2058 164 b 1572 787 2058 607 1840 787 z m 1572 13 b 1520 386 1543 13 1520 177 b 1571 759 1520 595 1542 759 b 1623 386 1599 759 1623 595 b 1572 13 1623 177 1600 13 z "},"":{"ha":1550,"x_min":0,"x_max":0,"o":"m 1439 -67 l 1213 -67 b 1106 -170 1130 -67 1110 -113 b 1138 -435 1098 -327 1158 -435 b 1024 223 1075 -435 1037 -136 b 1019 388 1020 311 1019 297 b 634 771 1017 677 784 771 b 444 725 543 771 488 753 b 354 771 424 753 391 771 l 142 771 b 31 660 80 771 31 722 l 31 111 b 142 0 31 50 80 0 l 354 0 b 465 111 415 0 465 50 l 465 510 b 522 717 465 642 482 718 b 584 386 583 716 584 465 l 584 99 b 588 75 584 90 586 82 b 1137 -462 616 -267 857 -462 b 1439 -67 1407 -462 1641 -67 z m 1408 772 l 1197 772 b 1085 660 1136 772 1085 722 l 1085 111 b 1197 0 1085 50 1136 0 l 1408 0 b 1520 111 1470 0 1520 50 l 1520 660 b 1408 772 1520 722 1470 772 z m 1302 813 b 1478 988 1399 813 1478 891 b 1302 1163 1478 1085 1399 1163 b 1127 988 1206 1163 1127 1085 b 1302 813 1127 891 1206 813 z "},"":{"ha":1511,"x_min":0,"x_max":0,"o":"m 1427 313 l 1201 313 b 1095 206 1118 313 1098 265 b 1053 16 1086 45 1074 16 b 1003 384 1020 16 1003 200 b 1003 386 1003 384 1003 385 b 1003 388 1003 387 1003 388 b 1053 756 1003 572 1020 756 b 1095 566 1074 756 1086 727 b 1201 459 1098 507 1118 459 l 1427 459 b 1053 784 1559 459 1449 784 b 783 722 945 784 854 760 b 517 787 706 763 615 787 b 31 386 248 787 31 607 b 517 -15 31 164 248 -15 b 783 50 615 -15 706 9 b 1053 -12 854 12 945 -12 b 1427 313 1449 -12 1559 313 z m 517 13 b 465 386 488 13 465 177 b 516 759 465 595 487 759 b 568 386 544 759 568 595 b 517 13 568 177 545 13 z "},"":{"ha":1588,"x_min":0,"x_max":0,"o":"m 1432 241 l 1206 241 b 1100 137 1124 241 1107 194 b 1008 146 1081 -21 1021 11 b 1002 264 1004 185 1002 228 b 1130 252 1042 256 1085 252 b 1557 512 1366 252 1557 369 b 1049 772 1557 656 1402 772 b 759 734 927 772 831 758 b 517 787 688 768 605 787 b 31 386 248 787 31 607 b 517 -15 31 164 248 -15 b 760 39 606 -15 688 4 b 1031 1 838 13 933 4 b 1510 188 1259 -7 1513 52 b 1432 241 1509 231 1471 241 z m 1002 375 b 1003 386 1003 379 1003 383 b 1002 397 1003 389 1003 393 l 1002 661 b 1035 705 1002 697 1002 722 b 1129 512 1090 676 1129 601 b 1002 308 1129 407 1074 321 z m 517 13 b 465 386 488 13 465 177 b 516 759 465 595 487 759 b 568 386 544 759 568 595 b 517 13 568 177 545 13 z "},"":{"ha":2011,"x_min":0,"x_max":0,"o":"m 1003 386 b 517 787 1003 607 785 787 b 31 386 248 787 31 607 b 517 -15 31 164 248 -15 b 1003 386 785 -15 1003 164 z m 465 386 b 516 759 465 595 487 759 b 568 386 544 759 568 595 b 517 13 568 177 545 13 b 465 386 488 13 465 177 z m 1554 784 b 1070 388 1238 784 1071 587 l 1069 388 b 1064 223 1069 297 1068 311 b 951 -435 1051 -136 1013 -435 b 904 -170 930 -435 912 -327 b 798 -67 901 -113 880 -67 l 572 -67 b 516 -193 516 -67 463 -87 b 951 -462 595 -353 760 -462 b 1504 143 1249 -462 1504 -241 b 1504 171 1504 153 1504 162 l 1504 256 l 1664 256 b 1671 263 1668 256 1671 259 l 1671 276 b 1664 283 1671 280 1668 283 l 1504 283 l 1504 386 b 1554 756 1504 571 1521 756 b 1596 566 1575 756 1587 727 b 1702 459 1599 507 1619 459 l 1927 459 b 1554 784 2060 459 1950 784 z "},"":{"ha":2099,"x_min":0,"x_max":0,"o":"m 1002 386 b 517 787 1002 607 785 787 b 31 386 248 787 31 607 b 517 -15 31 164 248 -15 b 1002 386 785 -15 1002 164 z m 517 13 b 465 386 488 13 465 177 b 516 759 465 595 487 759 b 568 386 544 759 568 595 b 517 13 568 177 545 13 z m 1957 787 l 1740 787 b 1737 787 1739 787 1738 787 l 1734 787 l 1731 786 b 1729 786 1730 786 1730 786 l 1728 786 l 1726 785 l 1726 785 l 1723 785 l 1723 785 l 1721 784 l 1720 784 l 1718 784 l 1717 784 l 1715 783 l 1715 783 l 1713 782 l 1712 782 l 1710 781 l 1710 781 l 1708 781 l 1707 780 l 1705 779 l 1703 779 l 1701 778 l 1701 778 b 1699 777 1700 777 1699 777 l 1698 776 l 1696 776 l 1696 775 l 1694 775 l 1693 774 l 1691 773 l 1691 773 l 1689 772 l 1689 772 l 1688 771 l 1686 770 l 1686 770 l 1685 769 l 1684 769 b 1680 766 1683 768 1681 767 l 1680 765 l 1678 764 b 1669 757 1675 762 1672 760 b 1645 725 1660 748 1651 737 b 1455 775 1589 757 1524 775 b 1069 389 1242 775 1069 603 b 1455 3 1069 176 1242 3 b 1634 47 1520 3 1581 19 l 1634 7 b 1339 -418 1634 -263 1536 -418 b 1022 -173 1149 -418 1022 -271 b 915 -66 1022 -113 998 -66 l 633 -66 b 667 -285 531 -66 596 -229 b 1355 -465 802 -390 1081 -464 b 2068 7 1716 -467 2068 -342 l 2068 676 b 1957 787 2068 737 2018 787 z m 1634 105 b 1504 389 1558 153 1504 262 b 1634 673 1504 517 1558 626 z "},"":{"ha":2088,"x_min":0,"x_max":0,"o":"m 1002 386 b 517 787 1002 607 785 787 b 31 386 248 787 31 607 b 517 -15 31 164 248 -15 b 1002 386 785 -15 1002 164 z m 465 386 b 516 759 465 595 487 759 b 568 386 544 759 568 595 b 517 13 568 177 545 13 b 465 386 488 13 465 177 z m 1672 772 b 1482 725 1581 772 1526 754 b 1392 772 1462 754 1429 772 l 1180 772 b 1069 660 1119 772 1069 722 l 1069 388 b 1064 223 1069 297 1067 311 b 951 -435 1051 -136 1012 -435 b 904 -170 930 -435 912 -327 b 797 -67 901 -113 880 -67 l 572 -67 b 515 -193 516 -67 463 -87 b 951 -462 595 -353 760 -462 b 1502 93 1236 -462 1481 -259 b 1503 111 1503 99 1503 105 l 1503 510 b 1561 717 1503 642 1520 718 b 1623 386 1622 716 1623 465 l 1623 99 b 1722 0 1623 45 1668 0 l 1958 0 b 2057 99 2013 0 2057 45 l 2057 386 b 1672 772 2057 677 1823 772 z "},"":{"ha":1571,"x_min":0,"x_max":0,"o":"m 1054 787 b 786 720 955 787 863 762 b 517 787 708 762 616 787 b 31 386 248 787 31 607 b 517 -15 31 164 248 -15 b 786 52 616 -15 708 10 b 1054 -15 863 10 955 -15 b 1540 386 1323 -15 1540 164 b 1054 787 1540 607 1323 787 z m 517 13 b 465 386 488 13 465 177 b 516 759 465 595 487 759 b 568 386 544 759 568 595 b 517 13 568 177 545 13 z m 1054 13 b 1003 386 1026 13 1003 177 b 1053 759 1003 595 1025 759 b 1106 386 1082 759 1106 595 b 1054 13 1106 177 1083 13 z "},"":{"ha":2011,"x_min":0,"x_max":0,"o":"m 1003 386 b 517 787 1003 607 785 787 b 31 386 248 787 31 607 b 517 -15 31 164 248 -15 b 1003 386 785 -15 1003 164 z m 465 386 b 516 759 465 595 487 759 b 568 386 544 759 568 595 b 516 13 568 177 545 13 b 465 386 488 13 465 177 z m 1554 784 b 1416 770 1504 784 1458 779 b 1392 772 1408 771 1400 772 l 1181 772 b 1069 660 1120 772 1069 722 l 1069 388 b 1064 223 1069 297 1068 311 b 951 -435 1051 -136 1013 -435 b 904 -170 930 -435 912 -327 b 798 -67 901 -113 880 -67 l 572 -67 b 516 -193 516 -67 463 -87 b 951 -462 595 -353 760 -462 b 1502 90 1235 -462 1479 -261 b 1504 111 1503 97 1504 104 l 1504 386 b 1554 756 1504 571 1521 756 b 1595 566 1575 756 1587 727 b 1702 459 1598 507 1619 459 l 1927 459 b 1554 784 2060 459 1950 784 z "},"":{"ha":2125,"x_min":0,"x_max":0,"o":"m 1027 386 b 641 772 1027 599 854 772 b 448 720 571 772 505 753 b 354 772 428 751 393 772 l 142 772 b 31 660 81 772 31 721 l 31 -89 b 142 -201 31 -150 81 -201 l 354 -201 b 465 -89 415 -201 465 -150 l 465 43 b 641 0 518 16 578 0 b 1027 386 854 0 1027 173 z m 465 104 l 465 660 b 465 668 465 663 465 666 b 592 386 540 620 592 512 b 465 104 592 260 540 152 z m 1704 772 b 1528 737 1606 772 1564 759 l 1528 860 b 1417 972 1528 922 1478 972 l 1205 972 b 1094 860 1144 972 1094 922 l 1094 388 b 1089 223 1094 297 1092 311 b 975 -435 1076 -136 1037 -435 b 929 -171 955 -435 937 -327 b 822 -67 926 -113 905 -67 l 597 -67 b 540 -193 541 -67 487 -87 b 975 -462 620 -353 785 -463 b 1526 89 1259 -462 1504 -261 b 1528 111 1528 97 1528 104 l 1528 668 b 1655 386 1603 620 1655 512 l 1655 99 b 1754 0 1655 45 1700 0 l 1991 0 b 2090 99 2045 0 2090 45 l 2090 386 b 1704 772 2090 599 1855 772 z "},"":{"ha":1551,"x_min":0,"x_max":0,"o":"m 889 -67 l 664 -67 b 557 -174 580 -67 560 -114 b 516 -363 549 -335 536 -363 b 465 6 482 -363 465 -178 l 465 717 l 625 717 b 632 724 629 717 632 720 l 632 737 b 625 744 632 741 629 744 l 465 744 l 465 865 b 354 977 465 926 415 977 l 142 977 b 31 865 81 977 31 926 l 31 6 b 516 -391 31 -193 198 -391 b 889 -67 911 -391 1021 -67 z m 1395 241 l 1170 241 b 1063 137 1087 241 1070 194 b 972 146 1044 -21 985 11 b 966 264 968 185 966 228 b 1093 252 1006 256 1049 252 b 1521 512 1329 252 1521 369 b 1013 772 1521 656 1365 772 b 532 499 661 772 532 658 l 532 291 b 995 0 532 51 754 8 b 1474 188 1223 -7 1477 52 b 1395 241 1473 230 1435 241 z m 966 661 b 999 705 966 697 966 722 b 1093 512 1054 676 1093 600 b 966 308 1093 407 1038 321 z "},"":{"ha":1561,"x_min":0,"x_max":0,"o":"m 1146 772 b 970 737 1048 772 1005 759 l 970 860 b 858 972 970 922 919 972 l 647 972 b 535 860 585 972 535 922 l 535 744 l 465 744 l 465 865 b 354 977 465 926 415 977 l 142 977 b 31 865 81 977 31 926 l 31 6 b 516 -391 31 -193 198 -391 b 889 -67 911 -391 1021 -67 l 664 -67 b 557 -174 580 -67 560 -114 b 516 -363 548 -335 536 -363 b 465 6 482 -363 465 -178 l 465 717 l 535 717 l 535 111 b 647 0 535 50 585 0 l 858 0 b 970 111 919 0 970 50 l 970 668 b 1097 386 1045 620 1097 512 l 1097 99 b 1196 0 1097 44 1141 0 l 1432 0 b 1531 99 1486 0 1531 44 l 1531 386 b 1146 772 1531 599 1296 772 z "},"":{"ha":1001,"x_min":0,"x_max":0,"o":"m 753 812 b 929 988 850 812 929 891 b 753 1163 929 1084 850 1163 b 578 988 657 1163 578 1084 b 753 812 578 891 657 812 z m 536 111 b 647 0 536 50 586 0 l 859 0 b 970 111 920 0 970 50 l 970 660 b 859 772 970 721 920 772 l 647 772 b 575 744 620 772 594 761 l 465 744 l 465 865 b 354 977 465 926 415 977 l 142 977 b 31 865 81 977 31 926 l 31 6 b 516 -391 31 -193 198 -391 b 889 -67 911 -391 1021 -67 l 664 -67 b 557 -174 580 -67 560 -114 b 516 -363 549 -335 536 -363 b 465 6 482 -363 465 -178 l 465 717 l 552 717 b 536 660 542 701 536 681 l 536 111 z "},"":{"ha":1540,"x_min":0,"x_max":0,"o":"m 1024 787 b 538 386 755 787 538 607 b 1024 -15 538 164 755 -15 b 1510 386 1292 -15 1510 164 b 1024 787 1510 607 1292 787 z m 1024 13 b 972 386 995 13 972 177 b 1023 759 972 595 994 759 b 1075 386 1051 759 1075 595 b 1024 13 1075 177 1052 13 z m 889 -67 l 664 -67 b 557 -174 580 -67 560 -114 b 515 -363 549 -335 536 -363 b 465 6 482 -363 465 -178 l 465 717 l 625 717 b 632 724 629 717 632 720 l 632 737 b 625 744 632 741 629 744 l 465 744 l 465 865 b 354 977 465 926 415 977 l 142 977 b 31 865 81 977 31 926 l 31 6 b 516 -391 31 -193 198 -391 b 889 -67 911 -391 1021 -67 z "},"":{"ha":1474,"x_min":0,"x_max":0,"o":"m 1390 324 l 1165 324 b 1058 217 1082 324 1061 277 b 1017 28 1050 56 1038 28 b 967 397 983 28 967 213 l 967 717 l 1127 717 b 1134 724 1131 717 1134 720 l 1134 737 b 1127 744 1134 741 1131 744 l 967 744 l 967 865 b 855 977 967 926 917 977 l 644 977 b 532 865 582 977 532 926 l 532 744 l 465 744 l 465 865 b 354 977 465 926 415 977 l 142 977 b 31 865 81 977 31 926 l 31 6 b 516 -391 31 -193 198 -391 b 889 -67 911 -391 1021 -67 l 664 -67 b 557 -174 580 -67 560 -114 b 516 -363 549 -335 536 -363 b 465 6 482 -363 465 -178 l 465 717 l 532 717 l 532 397 b 1017 0 532 199 699 0 b 1390 324 1413 0 1523 324 z "},"":{"ha":1475,"x_min":0,"x_max":0,"o":"m 1017 783 b 879 769 967 783 921 778 b 855 772 871 771 863 772 l 644 772 b 571 744 616 772 591 761 l 465 744 l 465 865 b 354 977 465 926 415 977 l 142 977 b 31 865 81 977 31 926 l 31 6 b 516 -391 31 -193 198 -391 b 889 -67 911 -391 1021 -67 l 663 -67 b 557 -174 580 -67 560 -114 b 516 -363 548 -335 536 -363 b 465 6 482 -363 465 -178 l 465 717 l 549 717 b 532 660 538 701 532 681 l 532 111 b 644 0 532 50 583 0 l 855 0 b 967 111 917 0 967 50 l 967 386 b 1017 755 967 571 984 755 b 1059 566 1038 755 1050 727 b 1165 459 1062 507 1082 459 l 1391 459 b 1017 783 1523 459 1413 783 z "},"":{"ha":2106,"x_min":0,"x_max":0,"o":"m 1217 839 l 1443 839 b 1070 1163 1575 839 1465 1163 b 585 765 752 1163 585 964 l 585 262 b 527 55 585 130 568 54 b 465 386 466 56 465 307 l 465 673 b 366 772 465 727 420 772 l 130 772 b 31 673 75 772 31 727 l 31 386 b 416 0 31 95 265 0 b 606 47 507 0 562 19 b 696 0 626 19 659 0 l 908 0 b 1019 112 969 0 1019 50 l 1019 765 b 1070 1135 1019 950 1036 1135 b 1111 946 1090 1135 1103 1107 b 1217 839 1114 886 1134 839 z m 1949 241 l 1724 241 b 1617 137 1641 241 1624 194 b 1525 146 1598 -21 1539 12 b 1520 264 1521 185 1520 228 b 1647 252 1560 256 1602 252 b 2074 513 1883 252 2074 369 b 1567 772 2074 656 1919 772 b 1086 499 1214 772 1086 658 l 1086 291 b 1549 1 1086 52 1307 8 b 2027 188 1777 -6 2031 52 b 1949 241 2026 231 1988 241 z m 1520 661 b 1553 705 1520 697 1520 723 b 1647 513 1608 676 1647 601 b 1520 308 1647 407 1592 321 z "},"":{"ha":1550,"x_min":0,"x_max":0,"o":"m 1442 -67 l 1217 -67 b 1111 -174 1134 -67 1114 -114 b 1069 -363 1103 -335 1090 -363 b 1019 7 1036 -363 1019 -178 l 1019 661 b 907 772 1019 722 969 772 l 696 772 b 584 661 635 772 584 722 l 584 262 b 527 55 584 130 567 54 b 465 386 466 56 465 307 l 465 673 b 366 772 465 727 420 772 l 130 772 b 31 673 75 772 31 727 l 31 386 b 416 0 31 95 265 0 b 584 34 493 0 544 13 l 584 7 b 1069 -391 584 -192 751 -391 b 1442 -67 1465 -391 1575 -67 z m 1409 772 l 1197 772 b 1086 661 1135 772 1086 722 l 1086 112 b 1197 0 1086 50 1135 0 l 1409 0 b 1520 112 1470 0 1520 50 l 1520 661 b 1409 772 1520 722 1470 772 z m 1303 813 b 1478 988 1399 813 1478 891 b 1303 1163 1478 1085 1399 1163 b 1127 988 1206 1163 1127 1085 b 1303 813 1127 891 1206 813 z "},"":{"ha":2028,"x_min":0,"x_max":0,"o":"m 1571 784 b 1520 782 1553 784 1536 783 b 1035 1163 1511 975 1344 1163 b 662 839 639 1163 529 839 l 887 839 b 994 946 970 839 991 886 b 1035 1135 1002 1107 1014 1135 b 1085 765 1069 1135 1085 950 l 1085 112 b 1197 0 1085 50 1136 0 l 1408 0 b 1520 112 1470 0 1520 50 l 1520 386 b 1570 756 1520 571 1537 756 b 1611 566 1591 756 1603 727 b 1718 459 1614 507 1635 459 l 1943 459 b 1571 784 2076 459 1966 784 z m 1442 -67 l 1217 -67 b 1111 -174 1134 -67 1114 -114 b 1069 -363 1103 -335 1090 -363 b 1019 7 1036 -363 1019 -178 l 1019 661 b 907 772 1019 722 969 772 l 696 772 b 584 661 635 772 584 722 l 584 262 b 527 55 584 130 567 54 b 465 386 466 56 465 307 l 465 673 b 366 772 465 727 420 772 l 130 772 b 31 673 75 772 31 727 l 31 386 b 416 0 31 95 265 0 b 584 34 493 0 544 13 l 584 7 b 1069 -391 584 -192 751 -391 b 1442 -67 1465 -391 1575 -67 z "}}}
